<svg width="24" height="24" viewBox="0 0 24 24" fill="none" xmlns="http://www.w3.org/2000/svg">
<rect width="24" height="24" rx="5.55556" fill="white"/>
<g clip-path="url(#clip0_5996_80770)">
<path d="M5.24942 8.25C5.24942 7.65326 5.48647 7.08097 5.90843 6.65901C6.33039 6.23705 6.90268 6 7.49942 6H16.9994C17.5962 6 18.1685 6.23705 18.5904 6.65901C19.0124 7.08097 19.2494 7.65326 19.2494 8.25V15.75C19.2494 16.3467 19.0124 16.919 18.5904 17.341C18.1685 17.7629 17.5962 18 16.9994 18H12.4994C12.4634 17.9531 12.4247 17.9083 12.3834 17.866L11.1334 16.6165C11.3684 16.1265 11.4994 15.578 11.4994 15H13.7494C13.882 15 14.0092 14.9473 14.103 14.8536C14.1967 14.7598 14.2494 14.6326 14.2494 14.5C14.2494 14.3674 14.1967 14.2402 14.103 14.1464C14.0092 14.0527 13.882 14 13.7494 14H11.3644C11.2102 13.4435 10.9296 12.9302 10.5444 12.5H15.2494C15.382 12.5 15.5092 12.4473 15.603 12.3536C15.6967 12.2598 15.7494 12.1326 15.7494 12C15.7494 11.8674 15.6967 11.7402 15.603 11.6464C15.5092 11.5527 15.382 11.5 15.2494 11.5H9.09842C8.66795 11.3344 8.21063 11.2497 7.74942 11.25C6.78942 11.25 5.91292 11.611 5.24942 12.205V8.25ZM8.24942 9.5C8.24942 9.63261 8.3021 9.75979 8.39587 9.85355C8.48963 9.94732 8.61681 10 8.74942 10H12.2494C12.382 10 12.5092 9.94732 12.603 9.85355C12.6967 9.75979 12.7494 9.63261 12.7494 9.5C12.7494 9.36739 12.6967 9.24021 12.603 9.14645C12.5092 9.05268 12.382 9 12.2494 9H8.74942C8.61681 9 8.48963 9.05268 8.39587 9.14645C8.3021 9.24021 8.24942 9.36739 8.24942 9.5ZM7.74942 18C8.39742 18 8.99742 17.795 9.48742 17.445L11.1459 19.1035C11.2402 19.1946 11.3665 19.245 11.4976 19.2438C11.6287 19.2427 11.7541 19.1901 11.8468 19.0974C11.9395 19.0047 11.9921 18.8793 11.9933 18.7482C11.9944 18.6171 11.944 18.4908 11.8529 18.3965L10.1949 16.7385C10.5846 16.1904 10.7789 15.5273 10.7465 14.8555C10.7141 14.1838 10.457 13.5424 10.0163 13.0344C9.5757 12.5263 8.97712 12.1811 8.31671 12.054C7.6563 11.927 6.97235 12.0255 6.37467 12.3338C5.77699 12.6421 5.30023 13.1423 5.02094 13.7541C4.74165 14.3659 4.67602 15.0538 4.83459 15.7073C4.99315 16.3609 5.36672 16.9422 5.89533 17.358C6.42393 17.7738 7.0769 17.9999 7.74942 18ZM7.74942 17C7.21899 17 6.71028 16.7893 6.33521 16.4142C5.96013 16.0391 5.74942 15.5304 5.74942 15C5.74942 14.4696 5.96013 13.9609 6.33521 13.5858C6.71028 13.2107 7.21899 13 7.74942 13C8.27985 13 8.78856 13.2107 9.16363 13.5858C9.53871 13.9609 9.74942 14.4696 9.74942 15C9.74942 15.5304 9.53871 16.0391 9.16363 16.4142C8.78856 16.7893 8.27985 17 7.74942 17Z" fill="#B01116"/>
</g>
<defs>
<clipPath id="clip0_5996_80770">
<rect width="16" height="16" fill="white" transform="translate(4.25 4)"/>
</clipPath>
</defs>
</svg>
