<svg width="24" height="24" viewBox="0 0 24 24" fill="none" xmlns="http://www.w3.org/2000/svg">
<path d="M1.49913 6.375C1.49913 5.47989 1.85471 4.62145 2.48764 3.98851C3.12058 3.35558 3.97902 3 4.87413 3H19.1241C20.0192 3 20.8777 3.35558 21.5106 3.98851C22.1435 4.62145 22.4991 5.47989 22.4991 6.375V17.625C22.4991 18.5201 22.1435 19.3785 21.5106 20.0115C20.8777 20.6444 20.0192 21 19.1241 21H12.3741C12.3201 20.9296 12.262 20.8625 12.2001 20.799L10.3251 18.9247C10.6776 18.1897 10.8741 17.367 10.8741 16.5H14.2491C14.448 16.5 14.6388 16.421 14.7795 16.2803C14.9201 16.1397 14.9991 15.9489 14.9991 15.75C14.9991 15.5511 14.9201 15.3603 14.7795 15.2197C14.6388 15.079 14.448 15 14.2491 15H10.6716C10.4403 14.1653 10.0194 13.3953 9.44163 12.75H16.4991C16.698 12.75 16.8888 12.671 17.0295 12.5303C17.1701 12.3897 17.2491 12.1989 17.2491 12C17.2491 11.8011 17.1701 11.6103 17.0295 11.4697C16.8888 11.329 16.698 11.25 16.4991 11.25H7.27263C6.62693 11.0016 5.94095 10.8745 5.24913 10.875C3.80913 10.875 2.49438 11.4165 1.49913 12.3075V6.375ZM5.99913 8.25C5.99913 8.44891 6.07815 8.63968 6.2188 8.78033C6.35945 8.92098 6.55022 9 6.74913 9H11.9991C12.198 9 12.3888 8.92098 12.5295 8.78033C12.6701 8.63968 12.7491 8.44891 12.7491 8.25C12.7491 8.05109 12.6701 7.86032 12.5295 7.71967C12.3888 7.57902 12.198 7.5 11.9991 7.5H6.74913C6.55022 7.5 6.35945 7.57902 6.2188 7.71967C6.07815 7.86032 5.99913 8.05109 5.99913 8.25ZM5.24913 21C6.22113 21 7.12113 20.6925 7.85613 20.1675L10.3439 22.6552C10.4853 22.7919 10.6748 22.8675 10.8714 22.8658C11.0681 22.864 11.2562 22.7852 11.3952 22.6461C11.5343 22.5071 11.6132 22.3189 11.6149 22.1223C11.6166 21.9257 11.541 21.7362 11.4044 21.5947L8.91738 19.1077C9.50197 18.2856 9.79336 17.2909 9.74478 16.2833C9.6962 15.2757 9.31047 14.3136 8.64951 13.5515C7.98854 12.7895 7.09069 12.2716 6.10007 12.081C5.10945 11.8905 4.08353 12.0383 3.18701 12.5007C2.29048 12.9632 1.57535 13.7135 1.15641 14.6312C0.737469 15.5489 0.639024 16.5807 0.876878 17.561C1.11473 18.5414 1.67509 19.4133 2.46799 20.037C3.26089 20.6607 4.24035 20.9998 5.24913 21ZM5.24913 19.5C4.45348 19.5 3.69042 19.1839 3.12781 18.6213C2.5652 18.0587 2.24913 17.2956 2.24913 16.5C2.24913 15.7043 2.5652 14.9413 3.12781 14.3787C3.69042 13.8161 4.45348 13.5 5.24913 13.5C6.04478 13.5 6.80784 13.8161 7.37045 14.3787C7.93306 14.9413 8.24913 15.7043 8.24913 16.5C8.24913 17.2956 7.93306 18.0587 7.37045 18.6213C6.80784 19.1839 6.04478 19.5 5.24913 19.5Z" fill="#F89295"/>
</svg>
