<svg width="407" height="307" viewBox="0 0 407 307" fill="none" xmlns="http://www.w3.org/2000/svg">
<g clip-path="url(#clip0_5637_272457)">
<path d="M170.498 271.545C170.92 271.156 171.171 270.616 171.196 270.042C171.22 269.468 171.015 268.908 170.626 268.485C165.729 263.158 163.894 257.407 164.849 250.387C165.742 243.822 168.936 236.801 172.319 229.368C176.813 219.49 181.462 209.276 182.078 197.874C182.789 184.734 177.814 172.559 166.87 160.653C166.481 160.23 165.94 159.979 165.367 159.955C164.793 159.931 164.233 160.135 163.81 160.524C163.387 160.913 163.136 161.453 163.112 162.027C163.088 162.601 163.292 163.161 163.681 163.584C173.794 174.586 178.397 185.726 177.753 197.64C177.181 208.225 172.705 218.061 168.376 227.574C161.354 243.006 154.722 257.582 167.438 271.416C167.827 271.839 168.367 272.09 168.941 272.114C169.515 272.138 170.075 271.934 170.498 271.545Z" fill="#597B91"/>
<path d="M161.076 164.528C161.272 165.031 161.467 165.524 161.663 165.991C161.841 166.429 162.019 166.846 162.188 167.241C162.358 167.635 162.509 168.017 162.679 168.342C163.016 168.992 163.427 169.416 163.763 169.668C164.098 169.921 164.365 169.995 164.365 169.995C168.108 171.042 171.991 168.855 173.037 165.112C173.326 164.066 173.372 162.967 173.172 161.9C173.172 161.9 173.12 161.628 172.897 161.272C172.674 160.917 172.287 160.472 171.666 160.081C171.357 159.884 170.989 159.702 170.611 159.499C170.231 159.297 169.831 159.085 169.41 158.871C168.961 158.636 168.485 158.4 168.001 158.163C174.447 144.44 172.721 108.384 160.213 84.544C158.075 80.2321 155.335 76.2459 152.076 72.7048C133.085 52.0453 100.943 50.6912 80.2835 69.681C59.6237 88.6708 58.2702 120.813 77.2597 141.472C80.5142 145.018 84.2559 148.084 88.3727 150.577C111.077 165.045 146.86 169.798 161.076 164.528Z" fill="#0FDC1D"/>
<path d="M130.653 92.3801C136.815 99.0838 144.947 101.635 148.817 98.0777C152.686 94.5207 150.828 86.203 144.667 79.4993C138.505 72.7956 130.373 70.2447 126.503 73.8017C122.634 77.359 124.492 85.6767 130.653 92.3801Z" fill="#C1FFA9"/>
</g>
<g clip-path="url(#clip1_5637_272457)">
<path d="M250.467 282.608C250.005 282.267 249.698 281.755 249.613 281.187C249.529 280.619 249.673 280.041 250.015 279.579C254.32 273.763 255.537 267.851 253.843 260.971C252.261 254.537 248.34 247.894 244.19 240.861C238.675 231.515 232.971 221.85 231.151 210.578C229.053 197.587 232.711 184.953 242.333 171.955C242.674 171.494 243.185 171.187 243.754 171.102C244.322 171.017 244.9 171.162 245.362 171.503C245.823 171.845 246.13 172.356 246.215 172.924C246.3 173.492 246.155 174.071 245.814 174.532C236.923 186.543 233.525 198.108 235.427 209.887C237.116 220.352 242.609 229.659 247.92 238.66C256.537 253.261 264.675 267.053 253.495 282.156C253.154 282.617 252.643 282.924 252.075 283.009C251.507 283.094 250.928 282.95 250.467 282.608Z" fill="#597B91"/>
<path d="M248.507 175.196C248.366 175.716 248.224 176.228 248.078 176.713C247.948 177.167 247.815 177.601 247.689 178.012C247.561 178.421 247.452 178.817 247.317 179.158C247.051 179.841 246.687 180.306 246.38 180.592C246.073 180.879 245.816 180.981 245.816 180.981C242.204 182.418 238.112 180.655 236.675 177.043C236.277 176.033 236.115 174.946 236.201 173.864C236.201 173.864 236.224 173.587 236.408 173.21C236.592 172.833 236.93 172.35 237.506 171.895C237.792 171.667 238.139 171.447 238.494 171.205C238.85 170.964 239.225 170.711 239.621 170.454C240.043 170.172 240.491 169.887 240.948 169.6C233.084 156.637 230.983 120.601 240.897 95.5702C242.566 91.0562 244.869 86.8023 247.735 82.9359C264.431 60.3819 296.249 55.6321 318.803 72.3277C341.357 89.0233 346.107 120.841 329.411 143.395C326.55 147.266 323.154 150.71 319.325 153.625C298.28 170.416 263.202 178.931 248.507 175.196Z" fill="#FFD53E"/>
<path d="M271.12 100.236C265.703 107.554 257.887 110.952 253.662 107.825C249.438 104.697 250.405 96.2296 255.822 88.9112C261.239 81.5928 269.056 78.1952 273.28 81.3224C277.505 84.45 276.538 92.9177 271.12 100.236Z" fill="#FFE7A9"/>
</g>
<g clip-path="url(#clip2_5637_272457)">
<path d="M254.669 248.704C254.116 248.55 253.646 248.182 253.364 247.682C253.081 247.182 253.009 246.59 253.163 246.037C255.104 239.066 254.126 233.109 250.085 227.29C246.305 221.848 240.269 217.046 233.878 211.962C225.385 205.206 216.602 198.22 210.871 188.344C204.266 176.963 203.164 163.857 207.501 148.278C207.655 147.724 208.023 147.255 208.523 146.973C209.023 146.69 209.615 146.618 210.168 146.772C210.721 146.926 211.191 147.294 211.473 147.794C211.756 148.294 211.828 148.886 211.674 149.439C207.666 163.836 208.629 175.851 214.617 186.17C219.938 195.339 228.395 202.066 236.574 208.573C249.843 219.127 262.375 229.096 257.335 247.198C257.181 247.752 256.814 248.221 256.314 248.503C255.814 248.786 255.222 248.858 254.669 248.704Z" fill="#597B91"/>
<path d="M214.427 149.096C214.481 149.633 214.532 150.161 214.569 150.667C214.609 151.137 214.64 151.59 214.669 152.018C214.696 152.447 214.736 152.856 214.732 153.222C214.728 153.955 214.554 154.519 214.37 154.896C214.186 155.274 213.982 155.461 213.982 155.461C211.123 158.095 206.671 157.911 204.038 155.053C203.305 154.252 202.765 153.294 202.458 152.253C202.458 152.253 202.38 151.987 202.418 151.569C202.455 151.151 202.598 150.579 202.972 149.948C203.158 149.633 203.403 149.303 203.648 148.95C203.894 148.598 204.155 148.227 204.433 147.845C204.726 147.431 205.042 147.005 205.366 146.574C193.386 137.28 178.537 104.379 178.844 77.4582C178.789 72.6456 179.418 67.8496 180.712 63.214C188.238 36.1807 216.253 20.3664 243.286 27.892C270.32 35.4176 286.133 63.4332 278.608 90.4662C277.32 95.1037 275.381 99.5347 272.847 103.627C259.199 126.833 229.485 147.329 214.427 149.096Z" fill="#FF473E"/>
<path d="M208.738 71.0067C206.296 79.7785 200.211 85.7466 195.148 84.337C190.084 82.9274 187.959 74.6739 190.401 65.9021C192.843 57.1303 198.927 51.1622 203.991 52.5718C209.054 53.9819 211.179 62.2354 208.738 71.0067Z" fill="#FFA9BA"/>
</g>
<defs>
<clipPath id="clip0_5637_272457">
<rect width="211.186" height="211.186" fill="white" transform="matrix(-0.736237 0.676724 0.676724 0.736237 155.482 0)"/>
</clipPath>
<clipPath id="clip1_5637_272457">
<rect width="211.186" height="211.186" fill="white" transform="translate(236.646 11) rotate(36.5102)"/>
</clipPath>
<clipPath id="clip2_5637_272457">
<rect width="211.186" height="211.186" fill="white" transform="translate(144.631) rotate(15.5563)"/>
</clipPath>
</defs>
</svg>
