<svg width="24" height="24" viewBox="0 0 24 24" fill="none" xmlns="http://www.w3.org/2000/svg">
<path fill-rule="evenodd" clip-rule="evenodd" d="M12.0025 2.3999C10.093 2.3999 8.26164 3.15847 6.91138 4.50873C5.56111 5.859 4.80254 7.69034 4.80254 9.5999C4.80254 11.8643 4.25774 13.9979 3.29414 15.8807C3.23103 16.004 3.19724 16.1402 3.19539 16.2788C3.19355 16.4173 3.2237 16.5543 3.28351 16.6793C3.34331 16.8042 3.43115 16.9137 3.54019 16.9991C3.64923 17.0846 3.77652 17.1437 3.91214 17.1719C5.20358 17.44 6.50761 17.6435 7.81934 17.7815C7.91307 18.8263 8.39434 19.7981 9.16848 20.5059C9.94263 21.2137 10.9536 21.6062 12.0025 21.6062C13.0515 21.6062 14.0625 21.2137 14.8366 20.5059C15.6107 19.7981 16.092 18.8263 16.1857 17.7815C17.4975 17.6435 18.8015 17.44 20.0929 17.1719C20.2286 17.1437 20.3559 17.0846 20.4649 16.9991C20.5739 16.9137 20.6618 16.8042 20.7216 16.6793C20.7814 16.5543 20.8115 16.4173 20.8097 16.2788C20.8079 16.1402 20.7741 16.004 20.7109 15.8807C19.7162 13.9367 19.1991 11.7836 19.2025 9.5999C19.2025 7.69034 18.444 5.859 17.0937 4.50873C15.7435 3.15847 13.9121 2.3999 12.0025 2.3999ZM9.66255 17.9315C11.2213 18.021 12.7838 18.021 14.3425 17.9315C14.2217 18.4617 13.9244 18.9352 13.4992 19.2744C13.0741 19.6135 12.5464 19.7982 12.0025 19.7982C11.4587 19.7982 10.931 19.6135 10.5059 19.2744C10.0807 18.9352 9.78339 18.4617 9.66255 17.9315Z" fill="white"/>
</svg>
