<svg width="36" height="36" viewBox="0 0 36 36" fill="none" xmlns="http://www.w3.org/2000/svg">
<path d="M11.5912 11.5216C11.7934 11.1477 12.0929 10.8355 12.4581 10.6179C12.8232 10.4003 13.2404 10.2855 13.6655 10.2856H22.3321C22.7571 10.2855 23.1743 10.4003 23.5395 10.6179C23.9047 10.8355 24.2042 11.1477 24.4064 11.5216L27.3747 17.0142C26.9175 16.8149 26.4239 16.7127 25.9252 16.7142H10.0681C9.55465 16.7142 9.06694 16.8205 8.62379 17.0116L11.5912 11.5216ZM25.9252 25.7142C26.5504 25.7142 27.1499 25.4659 27.592 25.0238C28.034 24.5818 28.2824 23.9822 28.2824 23.3571V20.3571C28.2824 19.7319 28.034 19.1324 27.592 18.6903C27.1499 18.2483 26.5504 17.9999 25.9252 17.9999H10.0681C9.44293 17.9999 8.84338 18.2483 8.40133 18.6903C7.95928 19.1324 7.71094 19.7319 7.71094 20.3571V23.3571C7.71094 23.9822 7.95928 24.5818 8.40133 25.0238C8.84338 25.4659 9.44293 25.7142 10.0681 25.7142H25.9252ZM23.3538 21.8571C23.3538 21.5747 23.4653 21.3037 23.664 21.1031C23.8627 20.9024 24.1326 20.7884 24.4149 20.7856H24.4355C24.647 20.7877 24.8531 20.8522 25.0279 20.9712C25.2028 21.0901 25.3385 21.2582 25.418 21.4541C25.4975 21.6501 25.5173 21.8652 25.4748 22.0723C25.4323 22.2795 25.3295 22.4694 25.1792 22.6182C25.029 22.7671 24.838 22.8681 24.6305 22.9086C24.4229 22.9491 24.208 22.9273 24.0129 22.8459C23.8177 22.7645 23.651 22.6272 23.5337 22.4512C23.4164 22.2753 23.3538 22.0685 23.3538 21.8571Z" fill="#F89295"/>
</svg>
