<svg width="32" height="32" viewBox="0 0 32 32" fill="none" xmlns="http://www.w3.org/2000/svg">
<rect width="32" height="32" rx="16" fill="#F5BEC0"/>
<path fill-rule="evenodd" clip-rule="evenodd" d="M15.6641 9.33301C12.9026 9.33301 10.6641 11.6236 10.6641 14.4493C10.6641 15.9642 11.3081 17.3258 12.3298 18.2619C12.6703 18.574 12.9226 18.8051 13.1014 18.9728C13.1908 19.0567 13.2591 19.1222 13.3096 19.1725C13.3347 19.1976 13.354 19.2174 13.3683 19.2328C13.3754 19.2404 13.3807 19.2463 13.3846 19.2507C13.3884 19.2551 13.3902 19.2573 13.3902 19.2573C13.5479 19.4564 13.582 19.5078 13.6023 19.5543C13.6226 19.6009 13.6373 19.6611 13.6771 19.9141C13.6928 20.014 13.6944 20.1851 13.6944 20.6508L13.6944 20.6708C13.6944 20.9436 13.6943 21.1788 13.7114 21.3719C13.7295 21.576 13.7696 21.7781 13.8771 21.9687C13.9967 22.1808 14.1689 22.3569 14.3762 22.4794C14.5624 22.5894 14.7599 22.6304 14.9594 22.6489C15.1481 22.6664 15.378 22.6664 15.6445 22.6663H15.6836C15.9501 22.6664 16.18 22.6664 16.3687 22.6489C16.5682 22.6304 16.7658 22.5894 16.9519 22.4794C17.1592 22.3569 17.3314 22.1808 17.4511 21.9687C17.5586 21.7781 17.5986 21.576 17.6167 21.3719C17.6338 21.1788 17.6338 20.9436 17.6338 20.6708V20.6508C17.6338 20.1851 17.6354 20.014 17.6511 19.9141C17.6909 19.6611 17.7055 19.6009 17.7258 19.5543C17.7461 19.5078 17.7803 19.4564 17.9379 19.2573C17.9379 19.2573 17.9396 19.2553 17.9435 19.2507C17.9474 19.2463 17.9527 19.2404 17.9598 19.2328C17.9742 19.2174 17.9934 19.1976 18.0185 19.1725C18.069 19.1222 18.1373 19.0567 18.2267 18.9728C18.4055 18.8051 18.6578 18.574 18.9983 18.2619C20.02 17.3258 20.6641 15.9642 20.6641 14.4493C20.6641 11.6236 18.4255 9.33301 15.6641 9.33301ZM16.7208 21.116H14.6074C14.6093 21.1806 14.6123 21.2371 14.6168 21.2879C14.6292 21.4275 14.6501 21.4782 14.6644 21.5036C14.7042 21.5743 14.7616 21.633 14.8307 21.6738C14.8555 21.6884 14.905 21.7098 15.0415 21.7224C15.1842 21.7357 15.3725 21.7361 15.6641 21.7361C15.9556 21.7361 16.1439 21.7357 16.2866 21.7224C16.4231 21.7098 16.4726 21.6884 16.4974 21.6738C16.5665 21.633 16.6239 21.5743 16.6638 21.5036C16.6781 21.4782 16.6989 21.4275 16.7113 21.2879C16.7158 21.2371 16.7188 21.1806 16.7208 21.116ZM16.4044 13.4507C16.6086 13.6 16.656 13.8904 16.51 14.0995L15.7247 15.2245H16.6597C16.8299 15.2245 16.9859 15.3219 17.0638 15.4768C17.1417 15.6317 17.1285 15.8182 17.0295 15.9599L15.7308 17.8204C15.5849 18.0294 15.301 18.0778 15.0968 17.9285C14.8925 17.7792 14.8452 17.4887 14.9911 17.2797L15.7764 16.1547H14.8415C14.6712 16.1547 14.5152 16.0573 14.4373 15.9024C14.3594 15.7475 14.3726 15.561 14.4716 15.4193L15.7703 13.5588C15.9162 13.3498 16.2001 13.3013 16.4044 13.4507Z" fill="#B01116"/>
</svg>
