<svg width="120" height="190" viewBox="0 0 120 190" fill="none" xmlns="http://www.w3.org/2000/svg">
<rect width="120" height="190" rx="60" fill="#FFEFE9"/>
<ellipse cx="60.5" cy="157.5" rx="20.5" ry="1.5" fill="#E4CACA"/>
<g clip-path="url(#clip0_5659_325920)">
<path fill-rule="evenodd" clip-rule="evenodd" d="M88.195 104.819C83.7319 97.783 75.8604 92.893 67.5447 91.9637C67.9296 91.3884 68.1885 90.7801 68.3477 90.2378C68.6032 90.3668 69.7282 89.9171 70.0832 88.5749C70.4051 87.4243 70.5014 86.2407 70.3719 85.0571C71.7225 84.5447 70.5644 82.8519 69.9538 82.8519C70.3056 81.255 69.7282 79.3671 68.3809 77.767C67.2261 76.3618 63.7253 75.4658 63.629 75.3997L63.0815 74.5037C61.6048 74.2161 61.4754 74.9501 61.346 75.3336C61.0573 76.1634 56.561 74.9501 55.4991 82.1741C55.3398 83.3874 53.83 82.4948 54.4405 84.733L55.0843 85.0835C55.0212 86.7134 54.925 89.6857 57.1085 89.7816L58.5552 92.2116C23.2512 100.659 21.068 133.525 39.5045 141.616C45.9587 144.463 50.6507 141.87 50.7467 141.87C51.9678 142.446 53.2852 142.733 54.5993 142.733C55.7541 142.733 58.7439 142.413 59.1587 141.103L73.3546 136.627C75.2494 136.372 75.8931 135.189 75.8931 133.463C76.8886 134.326 78.1098 134.455 79.5233 134.134L82.7687 134.838C86.1732 134.838 89.6111 132.696 90.7659 129.561C93.7855 121.537 92.79 112.042 88.1975 104.818L88.195 104.819ZM75.6684 95.0987C77.8186 98.5834 78.4292 102.994 77.3375 106.896C74.7027 107.279 72.6155 108.688 73.4849 110.284L73.7105 123.969C72.8112 122.977 70.9497 117.799 67.0937 119.3C69.536 110.86 70.5315 102.036 69.984 93.2115C71.9418 93.6281 73.8367 94.2655 75.6684 95.0987ZM83.8912 113.001C84.1467 114.535 85.2716 116.486 87.2328 116.294L81.7708 123.231C81.3859 122.626 80.9678 122.05 80.5497 121.571L80.8383 116.744L83.8248 111.021C83.7916 111.725 83.7916 112.492 83.8879 113.005L83.8912 113.001ZM88.0657 115.111C86.6853 116.165 85.046 114.856 84.7242 112.839C84.5947 112.01 84.691 110.376 84.7872 109.546C87.7405 110.793 89.476 114.053 88.0624 115.111H88.0657ZM77.1786 122.047C78.2704 122.973 78.7216 124.414 78.2372 125.373C77.016 125.532 75.6356 125.373 74.5438 124.702L74.2883 110.955C75.765 111.372 78.3367 110.826 80.2945 109.9L79.747 120.834C77.7559 119.396 76.6643 121.601 77.1786 122.047ZM80.3907 108.524C80.3277 108.716 80.2613 108.908 80.1983 109.004C79.4284 109.675 73.5184 111.305 74.1921 109.354C74.6733 108.045 80.3907 106.604 80.3907 108.524ZM72.6192 125.502C71.8162 129.179 64.6851 129.562 65.8432 122.722C66.9017 116.456 73.3923 121.921 72.6192 125.502ZM54.4418 134.039C54.4086 134.039 54.4086 134.072 54.3787 134.072C52.5471 133.176 51.0704 135.285 49.8193 135.735C49.7231 135.768 49.6601 135.831 49.6269 135.927C47.7653 135.672 46.0298 134.905 44.52 133.784L65.3657 121.317C64.4332 123.651 64.6589 128.128 68.1597 128.862L54.4418 134.039ZM41.6264 118.374C42.4924 119.845 44.8053 121.22 47.6657 120.387C49.9454 119.746 51.4851 117.061 50.9708 114.568C49.7496 108.366 49.5273 102.034 50.3602 95.7364C51.807 95.128 53.3467 94.5858 54.9196 94.0734C57.5212 102.131 61.6956 112.04 65.9698 119.65C66.003 119.713 66.0328 119.746 66.0992 119.779V119.875L62.5353 121.922C55.1785 123.872 47.3736 123.872 40.0501 121.826C40.372 120.609 40.9195 119.429 41.6264 118.374ZM57.2655 93.5646C57.9723 94.8441 59.7708 102.644 60.7033 102.644L61.8282 101.556L63.0494 102.323L62.472 110.86C59.9036 105.328 57.6206 99.6383 55.7258 93.8524C56.2401 93.6937 56.7213 93.5648 57.2356 93.4061C57.2356 93.4689 57.2356 93.502 57.2688 93.5648L57.2655 93.5646ZM67.7049 113.323C67.2536 110.03 66.6464 106.003 65.6807 102.039L66.2581 101.367C67.4793 102.359 67.5755 103.189 68.7635 96.8612C68.8929 96.1569 69.0521 95.456 69.1816 94.7518C69.4371 101.017 68.9559 107.253 67.7049 113.326L67.7049 113.323ZM66.3875 118.629C65.329 116.645 64.3003 114.665 63.3048 112.618L63.8822 102.164C63.8822 101.717 63.0792 101.301 62.4055 100.917L63.756 99.4164L65.5877 100.855L64.8179 102.038L67.1308 115.722C66.9051 116.714 66.6795 117.673 66.3908 118.632L66.3875 118.629ZM67.9305 96.6992C67.675 98.0746 67.383 99.5128 66.9682 100.888L64.1709 98.6466C65.7769 97.4001 67.2204 95.9289 68.4415 94.299C68.249 95.0991 68.0898 95.8958 67.9272 96.6959L67.9305 96.6992ZM60.8326 101.397C60.1889 99.6054 59.5484 97.7837 58.971 95.9289C60.0959 97.2084 61.4763 98.2301 63.0493 98.9343L60.8326 101.397ZM39.8603 122.656C46.5733 124.511 53.6383 124.703 60.4469 123.264L55.7582 126.015C50.2995 126.974 44.9042 126.719 39.7011 125.248C39.638 124.385 39.7011 123.522 39.8603 122.659V122.656ZM49.271 127.42C50.8439 127.42 52.4201 127.324 54.0229 127.133L43.8095 133.239C41.689 131.417 40.2124 128.891 39.7943 126.141C42.877 127.004 46.0559 127.42 49.2678 127.42L49.271 127.42ZM69.2774 88.3545C69.2144 88.609 68.9887 89.2802 68.5706 89.2802V85.412C68.9555 85.3789 69.2774 85.3161 69.5329 85.2831C69.6291 86.3047 69.5661 87.3626 69.2774 88.3512L69.2774 88.3545ZM62.1463 75.6621C62.2426 75.3744 62.1132 75.2455 62.6607 75.3116C63.0124 76.1117 62.7901 76.0158 63.7856 76.3332C64.0411 77.9962 64.0112 79.7551 63.7524 81.5768C60.5734 81.5438 62.2426 81.8314 61.184 76.4291C61.569 76.3002 61.9539 76.0787 62.1463 75.6621ZM55.3039 83.6233C55.9776 83.3688 56.2032 83.3026 56.3625 82.2811C56.6844 79.7221 57.4543 77.421 60.3445 76.6209C61.3731 81.8017 59.5746 82.4067 63.9416 82.4067L64.5522 81.8942C64.8408 80.0725 64.874 78.3136 64.6816 76.6506C71.3614 79.0476 67.8937 82.7571 69.7254 83.6829C70.0141 83.8416 70.1767 83.9077 70.1103 84.2912C69.0186 84.7706 61.3733 85.1541 55.1746 84.2581C55.1414 83.9705 55.1414 83.7159 55.304 83.62L55.3039 83.6233ZM56.3625 88.5462C55.8813 87.9379 55.9112 85.8914 55.9444 85.1905C56.2961 85.2236 56.6844 85.2864 57.0693 85.3194C56.7474 86.503 56.6844 87.7495 56.91 88.867C56.6844 88.8339 56.4919 88.7083 56.3625 88.5462ZM58.161 90.1134C57.1025 87.7793 57.9055 85.9575 57.9055 85.4153L67.5422 85.5112L67.7977 85.9278C68.6339 95.486 60.2186 94.7192 58.161 90.1167V90.1134ZM61.34 93.9816C63.2679 94.5569 65.4514 94.1403 66.8949 92.7352C67.3761 92.7682 67.8572 92.8311 68.3716 92.8939C67.0211 94.9404 65.3519 96.6993 63.3941 98.1706C61.4993 97.3077 58.6721 95.0065 58.1279 93.1849C58.5128 93.089 58.8978 92.9931 59.2827 92.8972C59.8933 93.3766 60.6001 93.7601 61.3368 93.985L61.34 93.9816ZM39.8572 140.847C23.8961 133.848 24.0252 107.408 49.4607 96.1535C48.6909 102.356 48.9464 108.591 50.1376 114.727C50.5524 116.807 49.2683 119.075 47.4067 119.587C43.7134 120.642 42.2036 117.637 42.1405 117.604C45.512 113.226 48.6278 114.056 48.306 113.002C47.8248 111.339 38.2217 116.549 38.8622 125.631C39.3433 131.1 43.906 135.894 49.3644 136.757L50.1044 141.234C46.9554 142.51 43.3277 142.384 39.8572 140.847ZM58.1017 141.134C55.8519 142.189 53.1541 142.156 50.9408 141.039L50.2008 136.499C51.0669 136.149 53.7016 133.59 54.4084 135.19C54.8265 136.149 53.2835 135.606 52.7393 136.532C51.8401 138.099 53.2205 139.442 55.7888 139.379C59.0641 139.25 58.4236 140.976 58.1018 141.138L58.1017 141.134ZM58.3573 138.995C56.8142 138.003 54.4383 139.124 53.476 137.941C53.1541 137.524 53.4129 136.694 53.8609 136.757C54.6971 136.886 55.6926 135.894 55.0821 134.711L70.4324 128.925C69.3406 131.355 68.8263 134.902 71.6203 136.341L59.16 140.209C59.0339 139.696 58.7455 139.25 58.3573 138.995ZM74.9291 134.489C74.3816 137.048 67.735 136.248 71.6539 128.349C72.4902 128.349 75.6359 131.034 74.9291 134.489ZM75.699 131.93C75.2178 130.108 73.9635 128.508 72.2612 127.711C73.0642 126.944 73.5122 126.048 73.5122 124.931C75.3108 126.498 78.5229 126.561 78.8747 125.986C79.6777 124.739 79.2596 122.917 77.9422 121.605C79.0007 119.687 82.1167 124.961 82.5016 127.007C82.9197 129.341 81.7948 131.867 79.8037 133.176C77.3947 133.91 76.3659 133.018 75.6924 131.93L75.699 131.93ZM89.9909 129.245C88.6403 132.763 84.2402 134.81 80.643 133.656C83.759 131.322 84.1771 127.645 82.2491 124.032L88.9355 115.432C91.2816 112.49 84.5686 107.154 83.958 108.909L80.9085 114.791L81.164 107.917C80.9085 107.055 79.913 106.704 78.2406 106.8C79.1731 103.123 78.7217 99.1263 76.9895 95.7377C81.2602 97.9429 84.9236 101.236 87.4918 105.266C91.9251 112.299 92.8874 121.476 89.9971 129.243L89.9909 129.245Z" fill="#200506"/>
</g>
<rect x="49.5" y="13.5" width="21" height="21" rx="10.5" fill="white" stroke="#200506"/>
<defs>
<clipPath id="clip0_5659_325920">
<rect width="64.5614" height="69.4035" fill="white" transform="translate(28 74)"/>
</clipPath>
</defs>
</svg>
