<svg width="122" height="132" viewBox="0 0 122 132" fill="none" xmlns="http://www.w3.org/2000/svg">
<g filter="url(#filter0_d_5996_86240)">
<path d="M75.0384 91.4084L60.8752 85.6105L46.9688 91.4084V64.002H75.0384V91.4084Z" fill="url(#paint0_linear_5996_86240)"/>
<path d="M72.5572 90.4245L60.8972 85.6107L49.4297 90.4245V63.0181H72.5572V90.4245Z" fill="url(#paint1_linear_5996_86240)"/>
<path d="M98.9352 48.5336V48.555C101.096 53.9892 98.5287 60.1722 93.1587 62.4828V62.5042C93.0517 68.3449 88.3449 73.0731 82.5042 73.1587H82.4828C80.1508 78.5501 73.9892 81.0961 68.555 78.9352L68.5336 78.9566C64.3402 83.0216 57.6651 83.0216 53.4718 78.9566L53.4504 78.9352C47.9948 81.0961 41.8331 78.5501 39.5225 73.1587H39.5011C33.639 73.0731 28.9322 68.3449 28.8466 62.5042V62.4828C23.4552 60.1722 20.9093 53.9892 23.0701 48.555L23.0487 48.5336C18.9838 44.3402 18.9838 37.6651 23.0487 33.4718L23.0701 33.4504C20.9093 28.0162 23.4552 21.8331 28.8466 19.5225V19.5011C28.9322 13.6604 33.639 8.93223 39.5011 8.84665H39.5225C41.8331 3.47662 48.0162 0.909268 53.4504 3.07012L53.4718 3.04872C57.6651 -1.01624 64.3402 -1.01624 68.5336 3.04872L68.555 3.07012C73.9892 0.909268 80.1508 3.47662 82.4828 8.84665H82.5042C88.3449 8.93223 93.0517 13.6604 93.1587 19.5011V19.5225C98.5287 21.8331 101.096 28.0162 98.9352 33.4504V33.4718C103.022 37.6651 103.022 44.3402 98.9352 48.5336Z" fill="url(#paint2_linear_5996_86240)"/>
<path d="M94.4477 41.0026C94.4477 59.4875 79.4715 74.4637 61.008 74.4637C42.5231 74.4637 27.5469 59.4875 27.5469 41.0026C27.5469 22.5391 42.5231 7.5415 61.008 7.5415C79.4715 7.5415 94.4477 22.5391 94.4477 41.0026Z" fill="white"/>
<path d="M92.1719 41.0024C92.1719 58.2251 78.2012 72.1743 61 72.1743C43.7774 72.1743 29.8281 58.2251 29.8281 41.0024C29.8281 23.8012 43.7774 9.83057 61 9.83057C78.2012 9.83057 92.1719 23.8012 92.1719 41.0024Z" fill="url(#paint3_linear_5996_86240)"/>
<path d="M91.062 41.0027C91.062 57.6263 77.6048 71.0835 61.0026 71.0835C44.3791 71.0835 30.9219 57.6263 30.9219 41.0027C30.9219 24.4005 44.3791 10.9434 61.0026 10.9434C77.6048 10.9434 91.062 24.4005 91.062 41.0027Z" fill="url(#paint4_linear_5996_86240)"/>
<path opacity="0.1" d="M85.3017 34.3915C85.3017 45.7734 74.4119 54.9945 60.9975 54.9945C47.5617 54.9945 36.6719 45.7734 36.6719 34.3915C36.6719 23.0096 47.5617 13.7886 60.9975 13.7886C74.4119 13.7886 85.3017 23.0096 85.3017 34.3915Z" fill="url(#paint5_linear_5996_86240)"/>
<path d="M61.0076 1.87207L61.735 3.3483L63.3824 3.58364L62.1843 4.73894L62.4624 6.38632L61.0076 5.61612L59.5314 6.38632L59.8095 4.73894L58.6328 3.58364L60.2588 3.3483L61.0076 1.87207Z" fill="white"/>
<path d="M61.0076 80.1544L60.2588 78.6568L58.6328 78.4214L59.8095 77.2661L59.5314 75.6401L61.0076 76.4103L62.4624 75.6401L62.1843 77.2661L63.3824 78.4214L61.735 78.6568L61.0076 80.1544Z" fill="white"/>
<path d="M21.8516 41.0027L23.3492 40.2753L23.5845 38.6279L24.7398 39.826L26.3658 39.5479L25.5956 41.0027L26.3658 42.4789L24.7398 42.2008L23.5845 43.3775L23.3492 41.7301L21.8516 41.0027Z" fill="white"/>
<path d="M100.139 41.0027L98.663 41.7301L98.4277 43.3775L97.251 42.2008L95.625 42.4789L96.3952 41.0027L95.625 39.5479L97.251 39.826L98.4277 38.6279L98.663 40.2753L100.139 41.0027Z" fill="white"/>
<path d="M45.6206 5.01758L46.8615 6.08731L48.466 5.68081L47.8456 7.19982L48.7442 8.59047L47.0754 8.4621L46.0485 9.74578L45.6634 8.14119L44.1016 7.54214L45.5136 6.66496L45.6206 5.01758Z" fill="white"/>
<path d="M76.3892 76.9889L75.127 75.9192L73.5224 76.3471L74.1642 74.8067L73.2656 73.416L74.913 73.5658L75.9613 72.2607L76.3464 73.8867L77.8868 74.4858L76.4748 75.3416L76.3892 76.9889Z" fill="white"/>
<path d="M25.0078 56.3848L26.0775 55.1226L25.6496 53.5394L27.1687 54.1598L28.5807 53.2612L28.4309 54.9086L29.7146 55.9569L28.11 56.342L27.511 57.9038L26.6552 56.4704L25.0078 56.3848Z" fill="white"/>
<path d="M96.9782 25.6192L95.8871 26.8815L96.315 28.4861L94.796 27.8442L93.4053 28.7428L93.5337 27.0954L92.25 26.0471L93.8546 25.662L94.4536 24.1216L95.3308 25.5336L96.9782 25.6192Z" fill="white"/>
<path d="M33.2383 13.4253L34.8002 13.9601L36.1266 12.9546L36.1052 14.602L37.4745 15.5647L35.8913 16.0568L35.3992 17.64L34.4364 16.2921L32.7891 16.3135L33.7732 14.9871L33.2383 13.4253Z" fill="white"/>
<path d="M88.7752 68.5804L87.192 68.067L85.8655 69.0511L85.8869 67.4037L84.5391 66.441L86.1009 65.9489L86.5929 64.3657L87.5557 65.7136L89.2245 65.6922L88.2189 67.0186L88.7752 68.5804Z" fill="white"/>
<path d="M33.4024 68.7727L33.9373 67.2109L32.9531 65.8845H34.6005L35.5419 64.5366L36.0553 66.1198L37.6385 66.6119L36.2907 67.5747L36.3121 69.222L34.9856 68.2379L33.4024 68.7727Z" fill="white"/>
<path d="M88.5819 13.2325L88.0471 14.8157L89.0526 16.1421L87.3838 16.1208L86.4425 17.4686L85.9504 15.8854L84.3672 15.4147L85.7151 14.452L85.6723 12.7832L87.0201 13.7674L88.5819 13.2325Z" fill="white"/>
<path d="M24.6797 26.4334L26.3271 26.305L27.1615 24.8716L27.7819 26.412L29.4079 26.7543L28.1456 27.824L28.3168 29.4714L26.9047 28.6156L25.3857 29.2789L25.7708 27.6743L24.6797 26.4334Z" fill="white"/>
<path d="M97.3355 55.5727L95.6668 55.7011L94.8538 57.1345L94.2119 55.5941L92.5859 55.2518L93.8482 54.1821L93.6771 52.5347L95.0891 53.3905L96.6081 52.7272L96.223 54.3318L97.3355 55.5727Z" fill="white"/>
<path d="M46.4368 77.3307L46.3084 75.6834L44.875 74.849L46.394 74.2285L46.7577 72.6025L47.8274 73.8648L49.4748 73.6937L48.5977 75.1057L49.2823 76.6247L47.6777 76.2182L46.4368 77.3307Z" fill="white"/>
<path d="M75.575 4.6748L75.682 6.32219L77.1155 7.15657L75.5964 7.79841L75.2541 9.403L74.163 8.16212L72.5156 8.31188L73.3928 6.89984L72.7296 5.40222L74.3342 5.78732L75.575 4.6748Z" fill="white"/>
<path d="M61.0076 15.5859L61.735 17.0622L63.3824 17.3189L62.1843 18.4742L62.4624 20.1002L61.0076 19.33L59.5314 20.1002L59.8095 18.4742L58.6328 17.3189L60.2588 17.0622L61.0076 15.5859Z" fill="url(#paint6_linear_5996_86240)"/>
<path d="M68.0302 17.4678L68.5437 18.4947L69.699 18.6659L68.8646 19.4789L69.0571 20.6128L68.0302 20.0779L67.0033 20.6128L67.1958 19.4789L66.3828 18.6659L67.5167 18.4947L68.0302 17.4678Z" fill="url(#paint7_linear_5996_86240)"/>
<path d="M53.9755 17.4678L54.489 18.4947L55.6443 18.6659L54.8099 19.4789L55.0024 20.6128L53.9755 20.0779L52.9486 20.6128L53.1411 19.4789L52.3281 18.6659L53.462 18.4947L53.9755 17.4678Z" fill="url(#paint8_linear_5996_86240)"/>
<path d="M61.0076 66.4195L60.2588 64.9433L58.6328 64.708L59.8095 63.5527L59.5314 61.9053L61.0076 62.6755L62.4624 61.9053L62.1843 63.5527L63.3824 64.708L61.735 64.9433L61.0076 66.4195Z" fill="url(#paint9_linear_5996_86240)"/>
<path d="M53.9755 64.5361L53.462 63.5092L52.3281 63.338L53.1411 62.525L52.9486 61.3911L53.9755 61.926L55.0024 61.3911L54.8099 62.525L55.6443 63.338L54.489 63.5092L53.9755 64.5361Z" fill="url(#paint10_linear_5996_86240)"/>
<path d="M68.0302 64.5361L67.5167 63.5092L66.3828 63.338L67.1958 62.525L67.0033 61.3911L68.0302 61.926L69.0571 61.3911L68.8646 62.525L69.699 63.338L68.5437 63.5092L68.0302 64.5361Z" fill="url(#paint11_linear_5996_86240)"/>
<path d="M71.9298 62.248C71.9298 62.248 70.9457 61.0499 71.074 59.6806C71.2024 58.3328 72.4005 57.3486 72.4005 57.3486C72.4005 57.3486 73.3847 58.5467 73.2563 59.916C73.1279 61.2638 71.9298 62.248 71.9298 62.248Z" fill="url(#paint12_linear_5996_86240)"/>
<path d="M76.6616 63.4461C76.6616 63.4461 75.3352 64.2377 74.0087 63.8953C72.6822 63.5744 71.8906 62.2266 71.8906 62.2266C71.8906 62.2266 73.2385 61.435 74.5436 61.7773C75.87 62.1196 76.6616 63.4461 76.6616 63.4461Z" fill="url(#paint13_linear_5996_86240)"/>
<path d="M75.4645 59.8297C75.4645 59.8297 74.5659 58.7172 74.6729 57.4763C74.8013 56.214 75.9138 55.3154 75.9138 55.3154C75.9138 55.3154 76.8124 56.4279 76.7054 57.6688C76.577 58.9097 75.4645 59.8297 75.4645 59.8297Z" fill="url(#paint14_linear_5996_86240)"/>
<path d="M79.8448 60.9425C79.8448 60.9425 78.6039 61.6699 77.3844 61.349C76.1649 61.0495 75.4375 59.8086 75.4375 59.8086C75.4375 59.8086 76.6784 59.0811 77.8979 59.4021C79.096 59.7016 79.8448 60.9425 79.8448 60.9425Z" fill="url(#paint15_linear_5996_86240)"/>
<path d="M79.014 57.4121C79.014 57.4121 78.2866 56.5135 78.3936 55.5293C78.4791 54.5238 79.3777 53.7964 79.3777 53.7964C79.3777 53.7964 80.0837 54.695 79.9981 55.6791C79.8912 56.6846 79.014 57.4121 79.014 57.4121Z" fill="url(#paint16_linear_5996_86240)"/>
<path d="M82.5009 58.2892C82.5009 58.2892 81.5167 58.8882 80.554 58.6315C79.5698 58.3747 78.9922 57.3906 78.9922 57.3906C78.9922 57.3906 79.9763 56.8129 80.9605 57.0697C81.9232 57.305 82.5009 58.2892 82.5009 58.2892Z" fill="url(#paint17_linear_5996_86240)"/>
<path d="M50.0685 62.248C50.0685 62.248 51.0527 61.0499 50.9243 59.6806C50.7746 58.3328 49.5765 57.3486 49.5765 57.3486C49.5765 57.3486 48.5923 58.5467 48.7421 59.916C48.8704 61.2638 50.0685 62.248 50.0685 62.248Z" fill="url(#paint18_linear_5996_86240)"/>
<path d="M45.3125 63.4461C45.3125 63.4461 46.6604 64.2377 47.9654 63.8953C49.2919 63.5744 50.0835 62.2266 50.0835 62.2266C50.0835 62.2266 48.757 61.435 47.4306 61.7773C46.1041 62.1196 45.3125 63.4461 45.3125 63.4461Z" fill="url(#paint19_linear_5996_86240)"/>
<path d="M46.5052 59.8297C46.5052 59.8297 47.4252 58.7172 47.2968 57.4763C47.1684 56.214 46.0773 55.3154 46.0773 55.3154C46.0773 55.3154 45.1574 56.4279 45.2857 57.6688C45.4141 58.9097 46.5052 59.8297 46.5052 59.8297Z" fill="url(#paint20_linear_5996_86240)"/>
<path d="M42.1406 60.9425C42.1406 60.9425 43.3601 61.6699 44.5796 61.349C45.7991 61.0495 46.5265 59.8086 46.5265 59.8086C46.5265 59.8086 45.307 59.0811 44.0875 59.4021C42.868 59.7016 42.1406 60.9425 42.1406 60.9425Z" fill="url(#paint21_linear_5996_86240)"/>
<path d="M42.9579 57.4121C42.9579 57.4121 43.6853 56.5135 43.5997 55.5293C43.4927 54.5238 42.6156 53.7964 42.6156 53.7964C42.6156 53.7964 41.8881 54.695 41.9951 55.6791C42.0807 56.6846 42.9579 57.4121 42.9579 57.4121Z" fill="url(#paint22_linear_5996_86240)"/>
<path d="M39.4688 58.2892C39.4688 58.2892 40.4529 58.8882 41.4371 58.6315C42.3998 58.3747 42.9775 57.3906 42.9775 57.3906C42.9775 57.3906 41.9933 56.8129 41.0306 57.0697C40.0464 57.305 39.4688 58.2892 39.4688 58.2892Z" fill="url(#paint23_linear_5996_86240)"/>
</g>
<defs>
<filter id="filter0_d_5996_86240" x="0" y="0" width="122" height="131.408" filterUnits="userSpaceOnUse" color-interpolation-filters="sRGB">
<feFlood flood-opacity="0" result="BackgroundImageFix"/>
<feColorMatrix in="SourceAlpha" type="matrix" values="0 0 0 0 0 0 0 0 0 0 0 0 0 0 0 0 0 0 127 0" result="hardAlpha"/>
<feOffset dy="20"/>
<feGaussianBlur stdDeviation="10"/>
<feComposite in2="hardAlpha" operator="out"/>
<feColorMatrix type="matrix" values="0 0 0 0 0 0 0 0 0 0 0 0 0 0 0 0 0 0 0.25 0"/>
<feBlend mode="normal" in2="BackgroundImageFix" result="effect1_dropShadow_5996_86240"/>
<feBlend mode="normal" in="SourceGraphic" in2="effect1_dropShadow_5996_86240" result="shape"/>
</filter>
<linearGradient id="paint0_linear_5996_86240" x1="70.5779" y1="50.1928" x2="87.0271" y2="87.6814" gradientUnits="userSpaceOnUse">
<stop stop-color="#C2B1AB"/>
<stop offset="0.516" stop-color="#F3EDEA"/>
<stop offset="1" stop-color="#B9A6A0"/>
</linearGradient>
<linearGradient id="paint1_linear_5996_86240" x1="72.5599" y1="61.3823" x2="72.5599" y2="93.7389" gradientUnits="userSpaceOnUse">
<stop stop-color="#0A9A5D"/>
<stop offset="1" stop-color="#05502A"/>
</linearGradient>
<linearGradient id="paint2_linear_5996_86240" x1="88.9694" y1="-41.3198" x2="138.986" y2="69.9708" gradientUnits="userSpaceOnUse">
<stop stop-color="#C2B1AB"/>
<stop offset="0.516" stop-color="#F3EDEA"/>
<stop offset="1" stop-color="#B9A6A0"/>
</linearGradient>
<linearGradient id="paint3_linear_5996_86240" x1="82.2648" y1="-21.5824" x2="120.288" y2="63.027" gradientUnits="userSpaceOnUse">
<stop stop-color="#C2B1AB"/>
<stop offset="0.516" stop-color="#F3EDEA"/>
<stop offset="1" stop-color="#B9A6A0"/>
</linearGradient>
<linearGradient id="paint4_linear_5996_86240" x1="91.069" y1="7.35378" x2="91.069" y2="78.3565" gradientUnits="userSpaceOnUse">
<stop stop-color="#0A9A5D"/>
<stop offset="1" stop-color="#05502A"/>
</linearGradient>
<linearGradient id="paint5_linear_5996_86240" x1="71.9374" y1="-1.35877" x2="99.2075" y2="62.1178" gradientUnits="userSpaceOnUse">
<stop stop-color="#F2F2F2"/>
<stop offset="1" stop-color="#F2F2F2" stop-opacity="0"/>
</linearGradient>
<linearGradient id="paint6_linear_5996_86240" x1="58.2242" y1="19.128" x2="59.1685" y2="13.8239" gradientUnits="userSpaceOnUse">
<stop stop-color="#DD9F22"/>
<stop offset="1" stop-color="#FFD741"/>
</linearGradient>
<linearGradient id="paint7_linear_5996_86240" x1="66.0927" y1="19.9399" x2="66.7527" y2="16.2333" gradientUnits="userSpaceOnUse">
<stop stop-color="#DD9F22"/>
<stop offset="1" stop-color="#FFD741"/>
</linearGradient>
<linearGradient id="paint8_linear_5996_86240" x1="52.0404" y1="19.9399" x2="52.7003" y2="16.2333" gradientUnits="userSpaceOnUse">
<stop stop-color="#DD9F22"/>
<stop offset="1" stop-color="#FFD741"/>
</linearGradient>
<linearGradient id="paint9_linear_5996_86240" x1="63.7774" y1="62.8851" x2="62.8331" y2="68.1893" gradientUnits="userSpaceOnUse">
<stop stop-color="#DD9F22"/>
<stop offset="1" stop-color="#FFD741"/>
</linearGradient>
<linearGradient id="paint10_linear_5996_86240" x1="55.9207" y1="62.0719" x2="55.2608" y2="65.7783" gradientUnits="userSpaceOnUse">
<stop stop-color="#DD9F22"/>
<stop offset="1" stop-color="#FFD741"/>
</linearGradient>
<linearGradient id="paint11_linear_5996_86240" x1="69.973" y1="62.0719" x2="69.3131" y2="65.7783" gradientUnits="userSpaceOnUse">
<stop stop-color="#DD9F22"/>
<stop offset="1" stop-color="#FFD741"/>
</linearGradient>
<linearGradient id="paint12_linear_5996_86240" x1="86.9381" y1="55.0855" x2="72.859" y2="65.8859" gradientUnits="userSpaceOnUse">
<stop stop-color="#DD9F22"/>
<stop offset="1" stop-color="#FFD741"/>
</linearGradient>
<linearGradient id="paint13_linear_5996_86240" x1="89.1428" y1="53.0102" x2="72.275" y2="65.9498" gradientUnits="userSpaceOnUse">
<stop stop-color="#DD9F22"/>
<stop offset="1" stop-color="#FFD741"/>
</linearGradient>
<linearGradient id="paint14_linear_5996_86240" x1="85.585" y1="56.0899" x2="71.5057" y2="66.8906" gradientUnits="userSpaceOnUse">
<stop stop-color="#DD9F22"/>
<stop offset="1" stop-color="#FFD741"/>
</linearGradient>
<linearGradient id="paint15_linear_5996_86240" x1="86.8695" y1="54.7436" x2="70.002" y2="67.683" gradientUnits="userSpaceOnUse">
<stop stop-color="#DD9F22"/>
<stop offset="1" stop-color="#FFD741"/>
</linearGradient>
<linearGradient id="paint16_linear_5996_86240" x1="84.0558" y1="56.7546" x2="69.9769" y2="67.555" gradientUnits="userSpaceOnUse">
<stop stop-color="#DD9F22"/>
<stop offset="1" stop-color="#FFD741"/>
</linearGradient>
<linearGradient id="paint17_linear_5996_86240" x1="84.4842" y1="56.1407" x2="67.6165" y2="69.0804" gradientUnits="userSpaceOnUse">
<stop stop-color="#DD9F22"/>
<stop offset="1" stop-color="#FFD741"/>
</linearGradient>
<linearGradient id="paint18_linear_5996_86240" x1="35.0468" y1="55.0857" x2="49.1259" y2="65.8862" gradientUnits="userSpaceOnUse">
<stop stop-color="#DD9F22"/>
<stop offset="1" stop-color="#FFD741"/>
</linearGradient>
<linearGradient id="paint19_linear_5996_86240" x1="32.8392" y1="53.0104" x2="49.7067" y2="65.9499" gradientUnits="userSpaceOnUse">
<stop stop-color="#DD9F22"/>
<stop offset="1" stop-color="#FFD741"/>
</linearGradient>
<linearGradient id="paint20_linear_5996_86240" x1="36.3926" y1="56.0899" x2="50.4718" y2="66.8903" gradientUnits="userSpaceOnUse">
<stop stop-color="#DD9F22"/>
<stop offset="1" stop-color="#FFD741"/>
</linearGradient>
<linearGradient id="paint21_linear_5996_86240" x1="35.1022" y1="54.7436" x2="51.97" y2="67.6832" gradientUnits="userSpaceOnUse">
<stop stop-color="#DD9F22"/>
<stop offset="1" stop-color="#FFD741"/>
</linearGradient>
<linearGradient id="paint22_linear_5996_86240" x1="37.9239" y1="56.7546" x2="52.0029" y2="67.555" gradientUnits="userSpaceOnUse">
<stop stop-color="#DD9F22"/>
<stop offset="1" stop-color="#FFD741"/>
</linearGradient>
<linearGradient id="paint23_linear_5996_86240" x1="37.4934" y1="56.1407" x2="54.3611" y2="69.0803" gradientUnits="userSpaceOnUse">
<stop stop-color="#DD9F22"/>
<stop offset="1" stop-color="#FFD741"/>
</linearGradient>
</defs>
</svg>
