<svg width="228" height="323" viewBox="0 0 228 323" fill="none" xmlns="http://www.w3.org/2000/svg">
<rect width="228" height="323" rx="16" fill="#05502A"/>
<g clip-path="url(#clip0_5996_86225)">
<path d="M536.398 974.8C532.799 962.566 525.052 951.559 516.289 942.119C496.943 921.418 472.093 906.601 452.07 886.535C432.046 866.469 416.679 837.81 423.876 810.42C427.813 795.476 438.227 782.014 438.142 766.563C438.057 750.053 425.696 735.786 411.472 727.446C397.206 719.064 380.907 715.085 365.625 708.82C329.811 694.045 308.263 668.815 286.25 638.419C265.93 610.31 240.403 587.619 204.335 584.063C196.122 583.259 187.571 583.386 180.078 579.999C159.25 570.517 157.98 540.756 141.978 524.458C131.268 513.536 114.927 509.726 103.92 499.058C83.0923 478.865 88.2993 441.993 68.6143 420.657C56.507 407.534 37.838 403.385 21.7936 395.596C5.7493 387.806 -9.78701 371.508 -5.00334 354.321C-2.46334 345.219 5.15663 338.615 12.2686 332.392C31.361 315.712 51.046 293.53 46.7703 268.553C43.426 248.995 26.3233 235.025 17.264 217.372C-1.91302 179.95 13.6656 124.535 -20.7937 100.405C-36.1607 89.6525 -58.5127 88.5095 -69.0537 73.0155C-74.0067 65.7765 -75.2343 56.7172 -77.8167 48.3352C-80.1027 40.8845 -83.6164 33.8994 -88.1037 27.5494C-96.9937 14.8918 -116.298 27.2955 -108.508 40.7152L-90.9823 70.8565C-85.86 79.6195 -80.653 88.5941 -72.9907 95.2828C-58.0893 108.321 -35.441 111.539 -23.4183 127.287C-6.95067 148.834 -19.1427 180.627 -10.549 206.366C-1.23566 234.221 32.2076 255.176 26.2386 283.92C19.8463 314.654 -27.7787 324.348 -30.8267 355.633C-32.6893 374.852 -15.8407 390.6 0.96565 400.125C17.772 409.65 37.1183 417.397 47.109 433.907C61.9257 458.418 51.6387 495.375 73.3557 514.086C84.193 523.442 99.56 524.67 113.064 529.453C140.285 539.105 160.689 565.564 163.102 594.351C164.245 608.067 161.663 622.291 165.939 635.414C171.696 653.236 188.46 664.751 204.208 674.911C255.008 707.804 305.808 740.739 356.608 773.632C364.355 778.67 372.991 783.919 382.177 782.776C391.364 781.633 399.238 770.288 393.65 762.964C390.432 758.731 384.548 757.799 379.299 756.91C352.036 752.381 326.001 740.697 304.538 723.34C280.493 703.909 261.57 677.197 233.418 664.412C221.819 659.163 209.034 656.496 197.985 650.146C186.936 643.796 177.369 632.197 178.935 619.539C181.306 600.15 208.187 592.911 225.671 601.674C243.155 610.437 253.569 628.429 264.999 644.304C294.801 685.833 337.473 718.049 385.606 735.321C398.814 740.062 414.181 745.311 418.965 758.519C424.976 775.199 410.075 791.327 403.937 807.922C392.464 839.206 413.504 873.242 438.396 895.425C463.288 917.608 493.726 935.134 510.363 964.048C515.062 972.26 518.575 981.658 517.263 991.014C515.951 1000.37 508.585 1009.34 499.144 1009.89C487.418 1010.61 478.909 999.396 472.686 989.448C448.26 950.459 423.833 911.469 399.365 872.48C379.934 841.45 358.598 808.726 325.154 793.783C310.761 787.348 294.505 784.47 281.974 774.86C267.327 763.599 257.717 743.321 239.387 741.035C222.962 738.961 206.917 753.058 191 748.571C178.935 745.142 172.289 732.484 167.42 720.927C143.248 663.777 126.272 600.531 81.653 557.393C73.525 549.519 63.8307 542.153 52.5277 541.264C41.2247 540.375 28.6516 548.588 28.7786 559.891C28.821 565.733 32.123 571.067 35.6367 575.724C35.7213 575.851 35.8483 575.978 35.933 576.105C41.902 583.894 53.7977 575.512 48.506 567.257C46.22 563.659 49.6067 559.171 53.6707 560.357C61.7563 562.685 68.9953 569.967 74.541 576.909C110.482 621.994 136.559 674.953 150.36 730.918C154.593 748.063 160.689 768.806 177.877 772.87C189.561 775.664 201.583 769.018 213.564 769.738C230.074 770.754 242.181 784.85 255.812 794.248C282.271 812.452 318.085 813.891 343.061 834.084C360.587 848.266 370.324 869.644 381.246 889.329C401.566 925.905 427.897 958.756 454.102 991.395C470.061 1011.29 493.683 1033.43 517.305 1023.91C532.249 1017.9 540.038 1000.12 538.345 984.113C537.922 981.023 537.287 977.848 536.398 974.8Z" fill="#0C6538"/>
<path d="M629.368 710.131C627.209 696.669 620.648 683.715 612.181 672.878C599.947 657.172 584.029 644.811 569.17 631.561C524.848 591.937 489.414 543.042 444.16 504.434C403.943 470.144 356.192 444.151 322.156 403.723C305.18 383.53 291.464 359.696 269.408 345.218C235.33 322.908 190.499 328.623 150.96 338.445C137.286 341.831 122.935 345.599 109.388 341.789C95.8415 337.937 84.3269 323.162 89.4915 310.081C94.5715 297.212 111.632 293.995 125.263 296.45C125.39 296.492 125.517 296.492 125.687 296.535C136.355 298.524 143.17 285.486 135.339 277.95C117.77 261.059 102.403 241.925 89.7879 221.097C86.4859 215.678 83.2685 210.005 79.9242 204.333C73.1932 192.945 55.8365 201.412 60.6625 213.688C69.9759 237.607 74.4209 262.414 67.9015 286.967C63.5412 303.308 54.6935 321.511 63.6259 335.862C68.4095 343.525 77.1725 347.673 85.6392 350.848C119.76 363.718 157.013 368.247 193.208 363.929C215.857 361.22 239.987 355.336 260.561 365.199C276.224 372.692 286.469 387.932 296.586 402.029C313.35 425.313 332.146 447.538 354.625 465.529C365.42 474.165 377.4 482.928 390.397 487.839C402.927 492.538 410.082 498.803 420.03 508.201C468.502 553.964 515.323 601.462 560.45 650.568C575.351 666.782 590.041 683.123 604.519 699.675C609.133 704.924 613.705 710.174 618.235 715.423C622.426 720.249 630.384 716.608 629.368 710.301C629.368 710.258 629.368 710.216 629.368 710.131Z" fill="#0C6538"/>
<path d="M478.276 165.641C480.097 145.532 462.528 128.176 443.944 119.878C425.021 111.454 403.77 108.702 385.651 98.627C360.632 84.7417 344.418 58.5373 319.738 44.0593C305.726 35.8466 289.385 31.698 276.304 22.046C251.031 3.41931 242.734 -31.7597 218.18 -51.36C202.94 -63.5097 181.266 -70.1137 174.027 -88.2324C172.376 -92.3387 171.868 -97.588 175.043 -100.678C177.117 -102.71 180.207 -103.218 183.086 -103.472C213.778 -106.309 243.961 -91.4497 266.737 -70.664C289.512 -49.8784 306.276 -23.5046 323.506 2.10704C338.661 24.586 354.748 47.0227 375.406 64.337C379.894 68.1047 386.328 62.8977 383.577 57.6907C383.534 57.6484 383.534 57.606 383.492 57.5637C362.833 19.0404 334.809 -14.9109 306.953 -48.5659C291.967 -66.6846 276.6 -85.142 256.788 -97.7574C234.563 -111.897 207.978 -117.823 181.689 -119.94C172.926 -120.617 162.216 -119.898 158.025 -112.151C156.204 -108.722 156.162 -104.615 156.585 -100.763C158.914 -80.8663 172.799 -64.3563 187.616 -50.8943C202.432 -37.4323 219.069 -25.3673 229.991 -8.60331C238.416 4.35069 243.199 19.7176 253.613 31.1476C274.103 53.7113 309.705 55.0237 328.924 78.8574C352.081 107.559 386.244 113.486 419.264 126.144C424.344 128.091 429.339 130.208 434.207 132.621C443.563 137.277 452.792 143.585 457.067 153.152C461.301 162.677 458.464 175.97 448.855 180.076C442.547 182.786 435.223 181.008 429 178.171C416.258 172.414 405.844 162.635 394.499 154.422C371.469 137.743 344.418 127.414 320.754 111.623C295.735 94.9017 274.949 72.3804 249.549 56.2091C232.32 45.2447 213.016 37.1591 197.945 23.4007C155.188 -15.7153 157.644 -89.6293 111.966 -125.316C95.9639 -137.805 75.9826 -143.858 56.3823 -149.235C49.5243 -151.14 39.322 -150.886 38.56 -143.774C38.3483 -141.615 39.0679 -139.456 40.4226 -137.762C52.7416 -122.226 73.4849 -117.696 90.0796 -107.325C139.483 -76.506 143.208 -2.25333 188.378 34.4497C199.977 43.89 213.693 50.2401 226.647 57.6907C253.275 72.9731 276.939 92.8274 301.365 111.454C338.619 139.817 377.946 165.344 417.274 190.829C431.456 200.058 446.357 210.006 453.638 225.288C458.972 236.507 459.607 249.376 458.845 261.737C457.745 279.771 453.892 297.636 447.5 314.527C445.976 318.549 444.41 323.375 446.95 326.846C449.405 330.233 454.739 330.233 458.253 327.947C461.724 325.661 463.756 321.724 465.449 317.914C476.922 292.133 479.843 262.669 473.662 235.152C470.826 222.579 466.127 209.837 468.37 197.179C470.233 186.596 476.795 177.24 478.107 166.572C478.192 166.318 478.234 165.979 478.276 165.641Z" fill="#0C6538"/>
<path d="M536.398 466.8C532.799 454.566 525.052 443.559 516.289 434.119C496.943 413.418 472.093 398.601 452.07 378.535C432.046 358.469 416.679 329.809 423.876 302.42C427.813 287.476 438.227 274.014 438.142 258.563C438.057 242.053 425.696 227.786 411.472 219.446C397.206 211.064 380.907 207.085 365.625 200.82C329.811 186.045 308.263 160.815 286.25 130.419C265.93 102.31 240.403 79.6195 204.335 76.0635C196.122 75.2591 187.571 75.3861 180.078 71.9994C159.25 62.5168 157.98 32.7565 141.978 16.4581C131.268 5.53613 114.927 1.72613 103.92 -8.94187C83.0923 -29.1349 88.2993 -66.0072 68.6143 -87.3432C56.507 -100.467 37.838 -104.615 21.7936 -112.405C5.7493 -120.194 -9.78701 -136.492 -5.00334 -153.68C-2.46334 -162.781 5.15663 -169.385 12.2686 -175.608C31.361 -192.288 51.046 -214.47 46.7703 -239.447C43.426 -259.005 26.3233 -272.975 17.264 -290.628C-1.91302 -328.051 13.6656 -383.465 -20.7937 -407.595C-36.1607 -418.348 -58.5127 -419.491 -69.0537 -434.985C-74.0067 -442.224 -75.2343 -451.283 -77.8167 -459.665C-80.1027 -467.116 -83.6164 -474.101 -88.1037 -480.451C-96.9937 -493.108 -116.298 -480.705 -108.508 -467.285L-90.9823 -437.144C-85.86 -428.381 -80.653 -419.406 -72.9907 -412.717C-58.0893 -399.679 -35.441 -396.461 -23.4183 -380.713C-6.95067 -359.166 -19.1427 -327.373 -10.549 -301.635C-1.23566 -273.779 32.2076 -252.824 26.2386 -224.08C19.8463 -193.346 -27.7787 -183.652 -30.8267 -152.367C-32.6893 -133.148 -15.8407 -117.4 0.96565 -107.875C17.772 -98.3499 37.1183 -90.6029 47.109 -74.0929C61.9257 -49.5819 51.6387 -12.6249 73.3557 6.08646C84.193 15.4421 99.56 16.6698 113.064 21.4535C140.285 31.1055 160.689 57.5638 163.102 86.3505C164.245 100.067 161.663 114.291 165.939 127.414C171.696 145.236 188.46 156.751 204.208 166.911C255.008 199.804 305.808 232.739 356.608 265.632C364.355 270.67 372.991 275.919 382.177 274.776C391.364 273.633 399.238 262.288 393.65 254.964C390.432 250.731 384.548 249.8 379.299 248.911C352.036 244.381 326.001 232.697 304.538 215.34C280.493 195.909 261.57 169.197 233.418 156.412C221.819 151.163 209.034 148.496 197.985 142.146C186.936 135.796 177.369 124.197 178.935 111.539C181.306 92.1502 208.187 84.9112 225.671 93.6742C243.155 102.437 253.569 120.429 264.999 136.304C294.801 177.833 337.473 210.049 385.606 227.321C398.814 232.062 414.181 237.311 418.965 250.519C424.976 267.199 410.075 283.328 403.937 299.922C392.464 331.207 413.504 365.242 438.396 387.425C463.288 409.608 493.726 427.134 510.363 456.048C515.062 464.26 518.575 473.658 517.263 483.014C515.951 492.37 508.585 501.344 499.144 501.937C487.418 502.656 478.909 491.438 472.686 481.49C448.26 442.501 423.833 403.512 399.365 364.523C379.934 333.492 358.598 300.769 325.154 285.825C310.761 279.39 294.505 276.512 281.974 266.902C267.327 255.642 257.717 235.364 239.387 233.078C222.962 231.003 206.917 245.1 191 240.613C178.935 237.184 172.289 224.526 167.42 212.969C143.248 155.819 126.272 92.5735 81.653 49.4359C73.525 41.5619 63.8307 34.1958 52.5277 33.3068C41.2247 32.4178 28.6516 40.6305 28.7786 51.9335C28.821 57.7755 32.123 63.1094 35.6367 67.7661C35.7213 67.8931 35.8483 68.0202 35.933 68.1472C41.902 75.9365 53.7977 67.5544 48.506 59.2994C46.22 55.7011 49.6067 51.2139 53.6707 52.3992C61.7563 54.7275 68.9953 62.0088 74.541 68.9515C110.482 114.036 136.559 166.995 150.36 222.96C154.593 240.105 160.689 260.849 177.877 264.913C189.561 267.707 201.583 261.06 213.564 261.78C230.074 262.796 242.181 276.893 255.812 286.291C282.271 304.494 318.085 305.933 343.061 326.126C360.587 340.308 370.324 361.686 381.246 381.371C401.566 417.947 427.897 450.798 454.102 483.437C470.061 503.334 493.683 525.474 517.305 515.949C532.249 509.938 540.038 492.158 538.345 476.156C537.922 473.023 537.287 469.848 536.398 466.8Z" fill="#0C6538"/>
<path d="M629.368 202.131C627.209 188.669 620.648 175.715 612.181 164.878C599.947 149.172 584.029 136.811 569.17 123.561C524.848 83.9367 489.414 35.0417 444.16 -3.56629C403.943 -37.8563 356.192 -63.8489 322.156 -104.277C305.18 -124.47 291.464 -148.304 269.408 -162.782C235.33 -185.092 190.499 -179.377 150.96 -169.555C137.286 -166.169 122.935 -162.401 109.388 -166.211C95.8415 -170.063 84.3269 -184.838 89.4915 -197.919C94.5715 -210.788 111.632 -214.005 125.263 -211.55C125.39 -211.508 125.517 -211.508 125.687 -211.465C136.355 -209.476 143.17 -222.514 135.339 -230.05C117.77 -246.941 102.403 -266.075 89.7879 -286.903C86.4859 -292.322 83.2685 -297.995 79.9242 -303.667C73.1932 -315.055 55.8365 -306.588 60.6625 -294.312C69.9759 -270.393 74.4209 -245.586 67.9015 -221.033C63.5412 -204.692 54.6935 -186.489 63.6259 -172.138C68.4095 -164.475 77.1725 -160.327 85.6392 -157.152C119.76 -144.282 157.013 -139.753 193.208 -144.071C215.857 -146.78 239.987 -152.664 260.561 -142.801C276.224 -135.308 286.469 -120.068 296.586 -105.971C313.35 -82.6872 332.146 -60.4622 354.625 -42.4706C365.42 -33.8346 377.4 -25.0716 390.397 -20.1609C402.927 -15.4619 410.082 -9.19656 420.03 0.201439C468.502 45.9638 515.323 93.4618 560.45 142.568C575.351 158.782 590.041 175.123 604.519 191.675C609.133 196.924 613.705 202.174 618.235 207.423C622.426 212.249 630.384 208.608 629.368 202.301C629.368 202.258 629.368 202.216 629.368 202.131Z" fill="#0C6538"/>
<path d="M28.3585 466.8C24.7602 454.566 17.0132 443.559 8.25021 434.119C-11.0961 413.418 -35.9458 398.601 -55.9694 378.535C-75.9931 358.469 -91.3601 329.809 -84.1634 302.42C-80.2264 287.476 -69.8124 274.014 -69.8971 258.563C-69.9818 242.053 -82.3431 227.786 -96.5671 219.446C-110.791 211.107 -127.132 207.085 -142.414 200.82C-178.228 186.045 -199.776 160.815 -221.789 130.419C-242.109 102.31 -267.636 79.6195 -303.704 76.0635C-311.917 75.2591 -320.468 75.3861 -327.961 71.9994C-348.789 62.5168 -350.059 32.7565 -366.061 16.4581C-376.771 5.53613 -393.112 1.72613 -404.119 -8.94187C-424.947 -29.1349 -419.74 -66.0072 -439.425 -87.3432C-451.532 -100.467 -470.201 -104.615 -486.245 -112.405C-502.29 -120.194 -517.826 -136.492 -513.042 -153.68C-510.502 -162.781 -502.882 -169.385 -495.77 -175.608C-476.678 -192.288 -456.993 -214.47 -461.269 -239.447C-464.613 -259.005 -481.716 -272.975 -490.775 -290.628C-509.952 -328.051 -494.373 -383.465 -528.833 -407.595C-544.2 -418.348 -566.552 -419.491 -577.093 -434.985C-582.046 -442.224 -583.273 -451.283 -585.856 -459.665C-588.142 -467.116 -591.655 -474.101 -596.143 -480.451C-605.033 -493.108 -624.337 -480.705 -616.547 -467.285L-599.021 -437.144C-593.899 -428.381 -588.692 -419.406 -581.03 -412.717C-566.128 -399.679 -543.48 -396.461 -531.457 -380.713C-514.99 -359.166 -527.182 -327.373 -518.588 -301.635C-509.275 -273.779 -475.831 -252.824 -481.8 -224.08C-488.193 -193.346 -535.818 -183.652 -538.866 -152.367C-540.728 -133.148 -523.88 -117.4 -507.073 -107.875C-490.267 -98.3499 -470.921 -90.6029 -460.93 -74.0929C-446.113 -49.5819 -456.4 -12.6249 -434.683 6.08646C-423.846 15.4421 -408.479 16.6698 -394.975 21.4535C-367.754 31.1055 -347.35 57.5638 -344.937 86.3505C-343.794 100.067 -346.376 114.291 -342.1 127.414C-336.343 145.236 -319.579 156.751 -303.831 166.911C-253.031 199.804 -202.231 232.739 -151.431 265.632C-143.684 270.67 -135.048 275.919 -125.862 274.776C-116.675 273.633 -108.801 262.288 -114.389 254.964C-117.607 250.731 -123.491 249.8 -128.74 248.911C-156.003 244.381 -182.038 232.697 -203.501 215.34C-227.546 195.909 -246.469 169.197 -274.621 156.412C-286.22 151.163 -299.005 148.496 -310.054 142.146C-321.103 135.838 -330.67 124.197 -329.104 111.539C-326.733 92.1502 -299.852 84.9112 -282.368 93.6742C-264.884 102.437 -254.47 120.429 -243.04 136.304C-213.238 177.833 -170.566 210.049 -122.433 227.321C-109.225 232.062 -93.8577 237.311 -89.0741 250.519C-83.0627 267.199 -97.9641 283.328 -104.102 299.922C-115.575 331.207 -94.5351 365.242 -69.6431 387.425C-44.7511 409.608 -14.3135 427.134 2.32354 456.048C7.02254 464.26 10.5362 473.658 9.2239 483.014C7.91156 492.37 0.545542 501.344 -8.89479 501.937C-20.6211 502.656 -29.1301 491.438 -35.3531 481.49C-59.7795 442.501 -84.2058 403.512 -108.674 364.523C-128.105 333.492 -149.441 300.769 -182.885 285.825C-197.278 279.39 -213.534 276.512 -226.065 266.902C-240.712 255.642 -250.322 235.364 -268.652 233.078C-285.077 231.003 -301.122 245.1 -317.039 240.613C-329.104 237.184 -335.75 224.526 -340.619 212.969C-364.791 155.819 -381.767 92.5735 -426.386 49.4359C-434.514 41.5619 -444.208 34.1958 -455.511 33.3068C-466.814 32.4178 -479.387 40.6305 -479.26 51.9335C-479.218 57.7755 -475.916 63.1094 -472.402 67.7661C-472.318 67.8931 -472.191 68.0202 -472.106 68.1472C-466.137 75.9365 -454.241 67.5544 -459.533 59.2994C-461.819 55.7011 -458.432 51.2139 -454.368 52.3992C-446.283 54.7275 -439.044 62.0088 -433.498 68.9515C-397.557 114.036 -371.48 166.995 -357.679 222.96C-353.446 240.105 -347.35 260.849 -330.162 264.913C-318.478 267.707 -306.456 261.06 -294.475 261.78C-277.965 262.796 -265.858 276.893 -252.227 286.291C-225.768 304.494 -189.954 305.933 -164.978 326.126C-147.452 340.308 -137.715 361.686 -126.793 381.371C-106.473 417.947 -80.1417 450.798 -53.9374 483.437C-37.9777 503.334 -14.3558 525.474 9.26622 515.949C24.2099 509.938 31.9992 492.158 30.3059 476.156C29.9249 473.023 29.2899 469.848 28.3585 466.8Z" fill="#0C6538"/>
<path d="M121.369 202.131C119.21 188.669 112.648 175.715 104.181 164.878C91.9469 149.172 76.0295 136.811 61.1705 123.561C16.8475 83.9367 -18.5855 35.0417 -63.8398 -3.56629C-104.056 -37.8563 -151.808 -63.8489 -185.844 -104.277C-202.82 -124.47 -216.536 -148.304 -238.592 -162.782C-272.67 -185.092 -317.501 -179.377 -357.04 -169.555C-370.714 -166.169 -385.065 -162.401 -398.612 -166.211C-412.158 -170.063 -423.673 -184.838 -418.508 -197.919C-413.428 -210.788 -396.368 -214.005 -382.737 -211.55C-382.61 -211.508 -382.483 -211.508 -382.313 -211.465C-371.645 -209.476 -364.83 -222.514 -372.661 -230.05C-390.23 -246.941 -405.597 -266.075 -418.212 -286.903C-421.514 -292.322 -424.731 -297.995 -428.076 -303.667C-434.807 -315.055 -452.163 -306.588 -447.337 -294.312C-438.024 -270.393 -433.579 -245.586 -440.098 -221.033C-444.459 -204.692 -453.306 -186.489 -444.374 -172.138C-439.59 -164.475 -430.827 -160.327 -422.361 -157.152C-388.24 -144.282 -350.987 -139.753 -314.792 -144.071C-292.143 -146.78 -268.013 -152.664 -247.439 -142.801C-231.776 -135.308 -221.531 -120.068 -211.414 -105.971C-194.65 -82.6872 -175.854 -60.4622 -153.375 -42.4706C-142.58 -33.8346 -130.599 -25.0716 -117.603 -20.1609C-105.072 -15.4619 -97.9181 -9.19656 -87.9698 0.201439C-39.4981 45.9638 7.32251 93.4618 52.4498 142.568C67.3512 158.782 82.0408 175.123 96.5188 191.675C101.133 196.924 105.705 202.174 110.235 207.423C114.426 212.249 122.385 208.608 121.369 202.301C121.369 202.258 121.369 202.216 121.369 202.131Z" fill="#0C6538"/>
<path d="M28.3585 -41.2002C24.7602 -53.4346 17.0132 -64.4412 8.25021 -73.8815C-11.0961 -94.5825 -35.9458 -109.399 -55.9694 -129.465C-75.9931 -149.531 -91.3601 -178.191 -84.1634 -205.581C-80.2264 -220.524 -69.8124 -233.986 -69.8971 -249.438C-69.9818 -265.948 -82.3431 -280.214 -96.5671 -288.554C-110.833 -296.894 -127.132 -300.915 -142.414 -307.181C-178.228 -321.955 -199.776 -347.186 -221.789 -377.581C-242.109 -405.69 -267.636 -428.381 -303.704 -431.937C-311.917 -432.741 -320.468 -432.614 -327.961 -436.001C-348.789 -445.484 -350.059 -475.244 -366.061 -491.542C-376.771 -502.464 -393.112 -506.274 -404.119 -516.942C-424.947 -537.135 -419.74 -574.008 -439.425 -595.344C-451.532 -608.467 -470.201 -612.616 -486.245 -620.405C-502.29 -628.194 -517.826 -644.493 -513.042 -661.68C-510.502 -670.782 -502.882 -677.386 -495.77 -683.609C-476.678 -700.288 -456.993 -722.471 -461.269 -747.447C-464.613 -767.005 -481.716 -780.975 -490.775 -798.628C-509.952 -836.051 -494.373 -891.465 -528.833 -915.595C-544.2 -926.348 -566.552 -927.491 -577.093 -942.985C-582.046 -950.224 -583.273 -959.283 -585.856 -967.665C-588.184 -975.074 -591.655 -982.059 -596.143 -988.409C-605.033 -1001.07 -624.337 -988.663 -616.547 -975.243L-599.021 -945.102C-593.899 -936.339 -588.692 -927.364 -581.03 -920.675C-566.128 -907.637 -543.48 -904.419 -531.457 -888.671C-514.99 -867.124 -527.182 -835.331 -518.588 -809.593C-509.275 -781.737 -475.831 -760.782 -481.8 -732.038C-488.193 -701.304 -535.818 -691.61 -538.866 -660.325C-540.728 -641.106 -523.88 -625.358 -507.073 -615.833C-490.267 -606.308 -470.921 -598.561 -460.93 -582.051C-446.113 -557.54 -456.4 -520.583 -434.683 -501.871C-423.846 -492.516 -408.479 -491.288 -394.975 -486.505C-367.754 -476.853 -347.35 -450.394 -344.937 -421.608C-343.794 -407.892 -346.376 -393.668 -342.1 -380.544C-336.343 -362.722 -319.579 -351.207 -303.831 -341.047C-253.031 -308.154 -202.231 -275.219 -151.431 -242.326C-143.684 -237.288 -135.048 -232.039 -125.862 -233.182C-116.675 -234.325 -108.801 -245.67 -114.389 -252.994C-117.607 -257.227 -123.491 -258.158 -128.74 -259.047C-156.003 -263.577 -182.038 -275.261 -203.501 -292.618C-227.546 -312.049 -246.469 -338.761 -274.621 -351.546C-286.22 -356.795 -299.005 -359.462 -310.054 -365.812C-321.103 -372.12 -330.67 -383.762 -329.104 -396.419C-326.733 -415.808 -299.852 -423.047 -282.368 -414.284C-264.884 -405.521 -254.47 -387.529 -243.04 -371.654C-213.238 -330.125 -170.566 -297.91 -122.433 -280.638C-109.225 -275.896 -93.8577 -270.647 -89.0741 -257.439C-83.0627 -240.76 -97.9641 -224.63 -104.102 -208.036C-115.575 -176.751 -94.5351 -142.716 -69.6431 -120.533C-44.7511 -98.3502 -14.3135 -80.8242 2.32354 -51.9106C7.02254 -43.6979 10.5362 -34.2999 9.2239 -24.9443C7.91156 -15.5886 0.545542 -6.61385 -8.89479 -6.02118C-20.6211 -5.30151 -29.1301 -16.5199 -35.3531 -26.4682C-59.7795 -65.4572 -84.2058 -104.446 -108.674 -143.435C-128.105 -174.466 -149.441 -207.189 -182.885 -222.133C-197.278 -228.568 -213.534 -231.446 -226.065 -241.056C-240.712 -252.316 -250.322 -272.594 -268.652 -274.88C-285.077 -276.955 -301.122 -262.857 -317.039 -267.345C-329.104 -270.774 -335.75 -283.432 -340.619 -294.989C-364.791 -352.139 -381.767 -415.385 -426.386 -458.522C-434.514 -466.396 -444.208 -473.762 -455.511 -474.651C-466.814 -475.54 -479.387 -467.328 -479.26 -456.025C-479.218 -450.183 -475.916 -444.849 -472.402 -440.192C-472.318 -440.065 -472.191 -439.938 -472.106 -439.811C-466.137 -432.022 -454.241 -440.404 -459.533 -448.659C-461.819 -452.257 -458.432 -456.744 -454.368 -455.559C-446.283 -453.231 -439.044 -445.949 -433.498 -439.006C-397.557 -393.921 -371.48 -340.963 -357.679 -284.998C-353.446 -267.853 -347.35 -247.11 -330.162 -243.046C-318.478 -240.252 -306.456 -246.898 -294.475 -246.178C-277.965 -245.162 -265.858 -231.065 -252.227 -221.667C-225.768 -203.464 -189.954 -202.024 -164.978 -181.831C-147.452 -167.65 -137.715 -146.272 -126.793 -126.587C-106.473 -90.0105 -80.1417 -57.1599 -53.9374 -24.5209C-37.9777 -4.62426 -14.3558 17.5161 9.26622 7.99109C24.2099 1.97976 31.9992 -15.8002 30.3059 -31.8022C29.9249 -34.9772 29.2899 -38.1522 28.3585 -41.2002Z" fill="#0C6538"/>
<path d="M121.369 202.131C119.21 188.669 112.648 175.715 104.181 164.878C91.9469 149.172 76.0295 136.811 61.1705 123.561C16.8475 83.9367 -18.5855 35.0417 -63.8398 -3.56629C-104.056 -37.8563 -151.808 -63.8489 -185.844 -104.277C-202.82 -124.47 -216.536 -148.304 -238.592 -162.782C-272.67 -185.092 -317.501 -179.377 -357.04 -169.555C-370.714 -166.169 -385.065 -162.401 -398.612 -166.211C-412.158 -170.063 -423.673 -184.838 -418.508 -197.919C-413.428 -210.788 -396.368 -214.005 -382.737 -211.55C-382.61 -211.508 -382.483 -211.508 -382.313 -211.465C-371.645 -209.476 -364.83 -222.514 -372.661 -230.05C-390.23 -246.941 -405.597 -266.075 -418.212 -286.903C-421.514 -292.322 -424.731 -297.995 -428.076 -303.667C-434.807 -315.055 -452.163 -306.588 -447.337 -294.312C-438.024 -270.393 -433.579 -245.586 -440.098 -221.033C-444.459 -204.692 -453.306 -186.489 -444.374 -172.138C-439.59 -164.475 -430.827 -160.327 -422.361 -157.152C-388.24 -144.282 -350.987 -139.753 -314.792 -144.071C-292.143 -146.78 -268.013 -152.664 -247.439 -142.801C-231.776 -135.308 -221.531 -120.068 -211.414 -105.971C-194.65 -82.6872 -175.854 -60.4622 -153.375 -42.4706C-142.58 -33.8346 -130.599 -25.0716 -117.603 -20.1609C-105.072 -15.4619 -97.9181 -9.19656 -87.9698 0.201439C-39.4981 45.9638 7.32251 93.4618 52.4498 142.568C67.3512 158.782 82.0408 175.123 96.5188 191.675C101.133 196.924 105.705 202.174 110.235 207.423C114.426 212.249 122.385 208.608 121.369 202.301C121.369 202.258 121.369 202.216 121.369 202.131Z" fill="#0C6538"/>
</g>
<defs>
<clipPath id="clip0_5996_86225">
<rect width="228" height="323" rx="16" fill="white"/>
</clipPath>
</defs>
</svg>
