<svg width="16" height="16" viewBox="0 0 16 16" fill="none" xmlns="http://www.w3.org/2000/svg">
<path d="M8.0026 1.3335C4.32927 1.3335 1.33594 4.32683 1.33594 8.00016C1.33594 11.6735 4.32927 14.6668 8.0026 14.6668C11.6759 14.6668 14.6693 11.6735 14.6693 8.00016C14.6693 4.32683 11.6759 1.3335 8.0026 1.3335ZM10.2426 9.5335C10.4359 9.72683 10.4359 10.0468 10.2426 10.2402C10.1426 10.3402 10.0159 10.3868 9.88927 10.3868C9.7626 10.3868 9.63594 10.3402 9.53594 10.2402L8.0026 8.70683L6.46927 10.2402C6.36927 10.3402 6.2426 10.3868 6.11594 10.3868C5.98927 10.3868 5.8626 10.3402 5.7626 10.2402C5.56927 10.0468 5.56927 9.72683 5.7626 9.5335L7.29594 8.00016L5.7626 6.46683C5.56927 6.2735 5.56927 5.9535 5.7626 5.76016C5.95594 5.56683 6.27594 5.56683 6.46927 5.76016L8.0026 7.2935L9.53594 5.76016C9.72927 5.56683 10.0493 5.56683 10.2426 5.76016C10.4359 5.9535 10.4359 6.2735 10.2426 6.46683L8.70927 8.00016L10.2426 9.5335Z" fill="#DA1E28"/>
</svg>
