<svg width="42" height="42" viewBox="0 0 42 42" fill="none" xmlns="http://www.w3.org/2000/svg">
<path d="M24.466 16.7729C25.9072 15.3248 27.5496 14.3359 29.6254 14.3359C31.4499 14.3359 33.1997 15.0607 34.4898 16.3508C35.78 17.641 36.5047 19.3907 36.5047 21.2152C36.5047 23.0398 35.78 24.7895 34.4898 26.0797C33.1997 27.3698 31.4499 28.0946 29.6254 28.0946C21.8862 28.0946 20.1664 14.3359 12.4272 14.3359C10.6027 14.3359 8.85288 15.0607 7.56275 16.3508C6.27263 17.641 5.54785 19.3907 5.54785 21.2152C5.54785 23.0398 6.27263 24.7895 7.56275 26.0797C8.85288 27.3698 10.6027 28.0946 12.4272 28.0946C14.503 28.0946 16.1454 27.1057 17.5866 25.6576" stroke="url(#paint0_linear_6008_95617)" stroke-width="2.57974" stroke-linecap="round" stroke-linejoin="round"/>
<defs>
<linearGradient id="paint0_linear_6008_95617" x1="15.1958" y1="9.79525" x2="16.7226" y2="28.8321" gradientUnits="userSpaceOnUse">
<stop stop-color="#B01116"/>
<stop offset="0.545" stop-color="#3C0103"/>
<stop offset="1" stop-color="#B01116"/>
</linearGradient>
</defs>
</svg>
