<svg width="17" height="24" viewBox="0 0 17 24" fill="none" xmlns="http://www.w3.org/2000/svg">
<g clip-path="url(#clip0_3727_180137)">
<path d="M4.61523 17.7793C5.3093 18.6639 5.94104 19.5957 6.50587 20.5679C6.9881 21.4822 7.18912 22.1023 7.54153 23.204C7.75766 23.8127 7.953 23.9943 8.37297 23.9943C8.8306 23.9943 9.03823 23.6853 9.19865 23.2073C9.53177 22.1669 9.79315 21.3728 10.2055 20.6226C11.0147 19.1741 12.0202 17.8869 13.0082 16.6498C13.2757 16.2997 15.005 14.2599 15.7835 12.6505C15.7835 12.6505 16.7404 10.8826 16.7404 8.41343C16.7404 6.10381 15.7968 4.50195 15.7968 4.50195L13.0799 5.22954L11.43 9.57511L11.0218 10.1743L10.9402 10.2829L10.8316 10.4188L10.6411 10.6358L10.3688 10.9081L8.89953 12.105L5.22629 14.2259L4.61523 17.7793Z" fill="#34A853"/>
<path d="M0.824219 12.3525C1.72072 14.4002 3.4495 16.2002 4.61916 17.7799L10.8318 10.4208C10.8318 10.4208 9.95651 11.5654 8.36885 11.5654C6.60037 11.5654 5.17168 10.1532 5.17168 8.37251C5.17168 7.15139 5.90633 6.3125 5.90633 6.3125L1.68907 7.44253L0.824219 12.3525Z" fill="#FBBC04"/>
<path d="M10.9026 0.378906C12.966 1.04417 14.732 2.44081 15.8002 4.5003L10.8351 10.4171C10.8351 10.4171 11.5698 9.56306 11.5698 8.34952C11.5698 6.52735 10.0354 5.16609 8.37784 5.16609C6.81039 5.16609 5.91016 6.30887 5.91016 6.30887V2.58135L10.9026 0.378906Z" fill="#4285F4"/>
<path d="M1.96289 2.99281C3.19526 1.51834 5.36376 0 8.35336 0C9.80383 0 10.8966 0.380796 10.8966 0.380796L5.90458 6.31167H2.36769L1.96289 2.99281Z" fill="#1A73E8"/>
<path d="M0.824763 12.352C0.824763 12.352 0 10.7369 0 8.39703C0 6.18556 0.859684 4.25248 1.96283 2.99219L5.90734 6.31158L0.824763 12.352Z" fill="#EA4335"/>
</g>
<defs>
<clipPath id="clip0_3727_180137">
<rect width="16.7411" height="24" fill="white"/>
</clipPath>
</defs>
</svg>
