<svg width="144" height="157" viewBox="0 0 144 157" fill="none" xmlns="http://www.w3.org/2000/svg">
<g filter="url(#filter0_d_6215_110290)">
<path d="M65.6532 12.6367C69.4329 10.4544 74.0897 10.4544 77.8694 12.6367L121.416 37.7785C125.196 39.9608 127.525 43.9937 127.525 48.3581V98.6419C127.525 103.006 125.196 107.039 121.416 109.221L77.8694 134.363C74.0897 136.546 69.4329 136.546 65.6532 134.363L22.1062 109.221C18.3265 107.039 15.998 103.006 15.998 98.6419V48.3581C15.998 43.9937 18.3265 39.9608 22.1062 37.7785L65.6532 12.6367Z" fill="#7B7B7B"/>
</g>
<path d="M116.631 40.7729L77.4773 18.1469C73.9241 16.0936 69.5463 16.0936 65.9931 18.1469L26.8394 40.7729C23.2863 42.8261 21.0977 46.6206 21.0977 50.7267V95.9786C21.0977 100.085 23.2863 103.879 26.8394 105.932L65.9931 128.558C69.5463 130.612 73.9241 130.612 77.4773 128.558L116.631 105.932C120.184 103.879 122.373 100.085 122.373 95.9786V50.7267C122.373 46.6206 120.184 42.8261 116.631 40.7729Z" fill="#7B7B7B" stroke="white"/>
<path fill-rule="evenodd" clip-rule="evenodd" d="M121.871 80.1624V95.9814C121.871 99.9091 119.778 103.538 116.379 105.502L77.2257 128.128C73.8273 130.092 69.6403 130.092 66.2419 128.128L38.1895 111.917C41.349 90.6154 64.8221 74.0693 93.31 74.0693C103.756 74.0693 113.528 76.2941 121.871 80.1624Z" fill="#585858" fill-opacity="0.58"/>
<path d="M37.498 53.6583C38.0054 53.6349 38.4346 53.4398 38.7858 53.073C39.1371 52.7061 39.3166 52.2691 39.3166 51.7617C39.3166 52.2691 39.4883 52.7061 39.8395 53.073C40.1907 53.4398 40.62 53.6349 41.1273 53.6583C40.62 53.6817 40.1907 53.8769 39.8395 54.2437C39.6697 54.4166 39.536 54.6216 39.4462 54.8467C39.3565 55.0718 39.3124 55.3126 39.3166 55.5549C39.3166 55.0476 39.1449 54.6105 38.7858 54.2437C38.4346 53.8769 38.0054 53.6817 37.498 53.6583ZM39.3166 48.0388C40.3 47.992 41.1351 47.6096 41.8219 46.8915C42.5087 46.1735 42.8522 45.3228 42.8522 44.3315C42.8522 45.3228 43.1956 46.1735 43.8824 46.8915C44.5692 47.6096 45.4043 47.9842 46.3956 48.0388C45.7478 48.0701 45.1546 48.2496 44.6082 48.593C44.0697 48.9286 43.6405 49.3813 43.3205 49.9432C43.0083 50.5052 42.8522 51.1061 42.8522 51.7617C42.8522 50.7705 42.5087 49.912 41.8219 49.194C41.1351 48.4681 40.3 48.0857 39.3166 48.0388ZM41.9078 56.4446C42.6492 56.4134 43.2814 56.1246 43.7965 55.5861C44.3117 55.0476 44.5692 54.4076 44.5692 53.6583C44.5692 54.4076 44.8268 55.0476 45.3419 55.5861C45.857 56.1246 46.4814 56.4134 47.2229 56.4446C46.4814 56.4759 45.857 56.7646 45.3419 57.3032C44.8268 57.8417 44.5692 58.4817 44.5692 59.231C44.5692 58.4817 44.3117 57.8417 43.7965 57.3032C43.3044 56.7797 42.6258 56.4713 41.9078 56.4446ZM47.2229 52.7452C47.9643 52.7139 48.5887 52.4252 49.1038 51.8866C49.619 51.3481 49.8687 50.7081 49.8687 49.951C49.8687 50.7003 50.1263 51.3403 50.6414 51.8788C51.1565 52.4173 51.7887 52.7061 52.5302 52.7373C51.7887 52.7686 51.1565 53.0573 50.6414 53.5959C50.1263 54.1344 49.8687 54.7744 49.8687 55.5237C49.8687 54.7744 49.6111 54.1344 49.1038 53.5959C48.5887 53.0652 47.9643 52.7764 47.2229 52.7452Z" fill="white" fill-opacity="0.4"/>
<path d="M86.875 101.508C87.3823 101.485 87.8116 101.289 88.1628 100.923C88.514 100.556 88.6935 100.119 88.6935 99.6114C88.6935 100.119 88.8652 100.556 89.2164 100.923C89.5677 101.289 89.9969 101.485 90.5042 101.508C89.9969 101.531 89.5677 101.726 89.2164 102.093C89.0466 102.266 88.913 102.471 88.8232 102.696C88.7334 102.921 88.6893 103.162 88.6935 103.405C88.6935 102.897 88.5218 102.46 88.1628 102.093C87.8116 101.726 87.3823 101.531 86.875 101.508ZM88.6935 95.8884C89.6769 95.8416 90.5121 95.4592 91.1989 94.7411C91.8857 94.0231 92.2291 93.1724 92.2291 92.1812C92.2291 93.1724 92.5725 94.0231 93.2594 94.7411C93.9462 95.4592 94.7813 95.8338 95.7725 95.8884C95.1247 95.9197 94.5315 96.0992 93.9852 96.4426C93.4467 96.7782 93.0174 97.2309 92.6974 97.7928C92.3852 98.3548 92.2291 98.9557 92.2291 99.6114C92.2291 98.6201 91.8857 97.7616 91.1989 97.0436C90.5121 96.3177 89.6769 95.9353 88.6935 95.8884ZM91.2847 104.294C92.0262 104.263 92.6584 103.974 93.1735 103.436C93.6886 102.897 93.9462 102.257 93.9462 101.508C93.9462 102.257 94.2037 102.897 94.7189 103.436C95.234 103.974 95.8584 104.263 96.5998 104.294C95.8584 104.325 95.234 104.614 94.7189 105.153C94.2037 105.691 93.9462 106.331 93.9462 107.081C93.9462 106.331 93.6886 105.691 93.1735 105.153C92.6813 104.629 92.0027 104.321 91.2847 104.294ZM96.5998 100.595C97.3413 100.564 97.9657 100.275 98.4808 99.7362C98.9959 99.1977 99.2457 98.5577 99.2457 97.8006C99.2457 98.5499 99.5032 99.1899 100.018 99.7284C100.533 100.267 101.166 100.556 101.907 100.587C101.166 100.618 100.533 100.907 100.018 101.445C99.5032 101.984 99.2457 102.624 99.2457 103.373C99.2457 102.624 98.9881 101.984 98.4808 101.445C97.9657 100.915 97.3413 100.626 96.5998 100.595Z" fill="white" fill-opacity="0.4"/>
<path d="M82.793 40.9347C83.3003 40.9113 83.7295 40.7162 84.0808 40.3493C84.432 39.9825 84.6115 39.5454 84.6115 39.0381C84.6115 39.5454 84.7832 39.9825 85.1344 40.3493C85.4856 40.7162 85.9149 40.9113 86.4222 40.9347C85.9149 40.9581 85.4856 41.1532 85.1344 41.52C84.9646 41.693 84.8309 41.898 84.7412 42.1231C84.6514 42.3482 84.6073 42.5889 84.6115 42.8313C84.6115 42.3239 84.4398 41.8869 84.0808 41.52C83.7295 41.1532 83.3003 40.9581 82.793 40.9347ZM84.6115 35.3152C85.5949 35.2684 86.43 34.8859 87.1168 34.1679C87.8037 33.4499 88.1471 32.5991 88.1471 31.6079C88.1471 32.5991 88.4905 33.4499 89.1773 34.1679C89.8641 34.8859 90.6993 35.2606 91.6905 35.3152C91.0427 35.3464 90.4495 35.5259 89.9032 35.8693C89.3646 36.205 88.9354 36.6576 88.6154 37.2196C88.3032 37.7815 88.1471 38.3825 88.1471 39.0381C88.1471 38.0469 87.8037 37.1884 87.1168 36.4703C86.43 35.7445 85.5949 35.362 84.6115 35.3152ZM87.2027 43.721C87.9442 43.6898 88.5763 43.401 89.0915 42.8625C89.6066 42.3239 89.8641 41.6839 89.8641 40.9347C89.8641 41.6839 90.1217 42.3239 90.6368 42.8625C91.1519 43.401 91.7763 43.6898 92.5178 43.721C91.7763 43.7522 91.1519 44.041 90.6368 44.5795C90.1217 45.1181 89.8641 45.7581 89.8641 46.5073C89.8641 45.7581 89.6066 45.1181 89.0915 44.5795C88.5993 44.0561 87.9207 43.7477 87.2027 43.721ZM92.5178 40.0215C93.2592 39.9903 93.8836 39.7015 94.3988 39.163C94.9139 38.6245 95.1636 37.9845 95.1636 37.2274C95.1636 37.9767 95.4212 38.6166 95.9363 39.1552C96.4514 39.6937 97.0836 39.9825 97.8251 40.0137C97.0836 40.0449 96.4514 40.3337 95.9363 40.8722C95.4212 41.4108 95.1636 42.0508 95.1636 42.8C95.1636 42.0508 94.9061 41.4108 94.3988 40.8722C93.8836 40.3415 93.2592 40.0527 92.5178 40.0215Z" fill="white" fill-opacity="0.4"/>
<path d="M33.4863 92.0444C34.2473 92.0092 34.8912 91.7166 35.418 91.1663C35.9449 90.6161 36.2141 89.9605 36.2141 89.1995C36.2141 89.9605 36.4717 90.6161 36.9985 91.1663C37.5253 91.7166 38.1692 92.0092 38.9302 92.0444C38.1692 92.0795 37.5253 92.3722 36.9985 92.9224C36.7438 93.1818 36.5433 93.4893 36.4086 93.827C36.2739 94.1646 36.2078 94.5257 36.2141 94.8892C36.2141 94.1283 35.9566 93.4726 35.418 92.9224C34.8912 92.3722 34.2473 92.0795 33.4863 92.0444ZM36.2141 83.6151C37.6892 83.5449 38.9419 82.9712 39.9721 81.8942C41.0024 80.8171 41.5175 79.541 41.5175 78.0542C41.5175 79.541 42.0326 80.8171 43.0629 81.8942C44.0931 82.9712 45.3458 83.5332 46.8326 83.6151C45.8609 83.662 44.9711 83.9312 44.1516 84.4464C43.3438 84.9498 42.6999 85.6288 42.2199 86.4717C41.7516 87.3146 41.5175 88.2161 41.5175 89.1995C41.5175 87.7127 41.0024 86.4249 39.9721 85.3478C38.9419 84.259 37.6892 83.6854 36.2141 83.6151ZM40.1009 96.2238C41.2131 96.177 42.1614 95.7439 42.9341 94.9361C43.7068 94.1283 44.0931 93.1683 44.0931 92.0444C44.0931 93.1683 44.4794 94.1283 45.2521 94.9361C46.0248 95.7439 46.9614 96.177 48.0736 96.2238C46.9614 96.2707 46.0248 96.7038 45.2521 97.5116C44.4794 98.3194 44.0931 99.2794 44.0931 100.403C44.0931 99.2794 43.7068 98.3194 42.9341 97.5116C42.1958 96.7265 41.1779 96.2638 40.1009 96.2238ZM48.0736 90.6746C49.1857 90.6278 50.1223 90.1946 50.895 89.3868C51.6677 88.579 52.0423 87.619 52.0423 86.4834C52.0423 87.6073 52.4287 88.5673 53.2013 89.3751C53.974 90.1829 54.9223 90.6161 56.0345 90.6629C54.9223 90.7097 53.974 91.1429 53.2013 91.9507C52.4287 92.7585 52.0423 93.7185 52.0423 94.8424C52.0423 93.7185 51.656 92.7585 50.895 91.9507C50.1223 91.1546 49.1857 90.7214 48.0736 90.6746Z" fill="white" fill-opacity="0.4"/>
<g filter="url(#filter1_i_6215_110290)">
<path d="M84.5049 81.2974C85.1747 81.2974 85.7178 81.8405 85.7178 82.5103V88.1744C85.7178 88.8442 85.1747 89.3872 84.5049 89.3872H59.7863C59.1165 89.3872 58.5735 88.8442 58.5735 88.1744V82.5103C58.5735 81.8405 59.1165 81.2974 59.7863 81.2974H66.8544C67.5243 81.2974 68.0673 80.7544 68.0673 80.0846V63.5598C68.0673 62.7524 66.8616 62.2551 66.1953 62.711V62.711C65.3484 63.2458 64.3901 63.7584 63.3204 64.2487C62.2507 64.739 61.1809 65.1401 60.1112 65.4521C59.5218 65.6241 58.9661 65.7486 58.4443 65.8258C57.7817 65.9238 57.2363 65.3771 57.2363 64.7073V58.7758C57.2363 58.1059 57.7848 57.5635 58.4365 57.4087C58.9489 57.287 59.5071 57.0933 60.1112 56.8275C61.2701 56.2926 62.4067 55.6686 63.521 54.9555C64.6798 54.2423 65.6604 53.5514 66.4627 52.8829C66.9641 52.4606 67.3561 52.0931 67.6388 51.7802C67.9341 51.4534 68.3405 51.2114 68.7809 51.2114H76.0139C76.6838 51.2114 77.2268 51.7544 77.2268 52.4243V80.0846C77.2268 80.7544 77.7698 81.2974 78.4397 81.2974H84.5049Z" fill="white" fill-opacity="0.85"/>
</g>
<path d="M66.1953 62.711L66.339 62.921C66.5786 62.7571 66.9483 62.7501 67.2792 62.8948C67.611 63.04 67.8128 63.2945 67.8128 63.5598V80.0846C67.8128 80.6139 67.3837 81.0429 66.8544 81.0429H59.7863C58.9759 81.0429 58.319 81.6999 58.319 82.5103V88.1744C58.319 88.9848 58.9759 89.6417 59.7863 89.6417H84.5049C85.3153 89.6417 85.9723 88.9848 85.9723 88.1744V82.5103C85.9723 81.6999 85.3153 81.0429 84.5049 81.0429H78.4397C77.9104 81.0429 77.4813 80.6139 77.4813 80.0846V52.4243C77.4813 51.6139 76.8244 50.9569 76.014 50.9569H68.7809C68.2464 50.9569 67.7763 51.2484 67.4499 51.6096C67.1781 51.9105 66.7959 52.2695 66.2994 52.6877C65.5088 53.3465 64.5388 54.0303 63.3876 54.7387L63.3876 54.7387L63.3838 54.7411C62.2796 55.4478 61.1539 56.0658 60.0066 56.5954C59.4141 56.8561 58.8713 57.0439 58.3777 57.1611C57.6432 57.3356 56.9818 57.9581 56.9818 58.7758V64.7073C56.9818 65.5073 57.6413 66.2019 58.4816 66.0776C59.0166 65.9984 59.5836 65.8711 60.1825 65.6965C61.2647 65.3808 62.3461 64.9752 63.4264 64.4801C64.5047 63.9858 65.4732 63.468 66.3312 62.9262L66.1953 62.711Z" stroke="white" stroke-width="0.509011"/>
<defs>
<filter id="filter0_d_6215_110290" x="0.230831" y="0.0842352" width="143.062" height="156.534" filterUnits="userSpaceOnUse" color-interpolation-filters="sRGB">
<feFlood flood-opacity="0" result="BackgroundImageFix"/>
<feColorMatrix in="SourceAlpha" type="matrix" values="0 0 0 0 0 0 0 0 0 0 0 0 0 0 0 0 0 0 127 0" result="hardAlpha"/>
<feOffset dy="4.85145"/>
<feGaussianBlur stdDeviation="7.88361"/>
<feComposite in2="hardAlpha" operator="out"/>
<feColorMatrix type="matrix" values="0 0 0 0 0.051416 0 0 0 0 0.051416 0 0 0 0 0.051416 0 0 0 0.32 0"/>
<feBlend mode="normal" in2="BackgroundImageFix" result="effect1_dropShadow_6215_110290"/>
<feBlend mode="normal" in="SourceGraphic" in2="effect1_dropShadow_6215_110290" result="shape"/>
</filter>
<filter id="filter1_i_6215_110290" x="56.7266" y="50.7026" width="29.5" height="39.1938" filterUnits="userSpaceOnUse" color-interpolation-filters="sRGB">
<feFlood flood-opacity="0" result="BackgroundImageFix"/>
<feBlend mode="normal" in="SourceGraphic" in2="BackgroundImageFix" result="shape"/>
<feColorMatrix in="SourceAlpha" type="matrix" values="0 0 0 0 0 0 0 0 0 0 0 0 0 0 0 0 0 0 127 0" result="hardAlpha"/>
<feOffset/>
<feGaussianBlur stdDeviation="2.54505"/>
<feComposite in2="hardAlpha" operator="arithmetic" k2="-1" k3="1"/>
<feColorMatrix type="matrix" values="0 0 0 0 0 0 0 0 0 0 0 0 0 0 0 0 0 0 0.2 0"/>
<feBlend mode="normal" in2="shape" result="effect1_innerShadow_6215_110290"/>
</filter>
</defs>
</svg>
