<svg width="86" height="86" viewBox="0 0 86 86" fill="none" xmlns="http://www.w3.org/2000/svg">
<rect width="86" height="86" rx="43" fill="white"/>
<mask id="mask0_6201_109666" style="mask-type:luminance" maskUnits="userSpaceOnUse" x="4" y="4" width="78" height="78">
<path d="M43.0209 78.8308C47.7274 78.8366 52.3887 77.9123 56.737 76.1112C61.0852 74.31 65.0348 71.6674 68.3586 68.3352C71.6908 65.0113 74.3334 61.0618 76.1346 56.7135C77.9358 52.3653 78.86 47.704 78.8542 42.9974C78.86 38.2909 77.9358 33.6296 76.1346 29.2813C74.3334 24.933 71.6908 20.9835 68.3586 17.6597C65.0348 14.3275 61.0852 11.6849 56.737 9.88369C52.3887 8.08252 47.7274 7.15829 43.0209 7.16409C38.3143 7.15829 33.653 8.08252 29.3047 9.88369C24.9565 11.6849 21.007 14.3275 17.6831 17.6597C14.3509 20.9835 11.7083 24.933 9.90713 29.2813C8.10596 33.6296 7.18172 38.2909 7.18753 42.9974C7.18172 47.704 8.10596 52.3653 9.90713 56.7135C11.7083 61.0618 14.3509 65.0113 17.6831 68.3352C21.007 71.6674 24.9565 74.31 29.3047 76.1112C33.653 77.9123 38.3143 78.8366 43.0209 78.8308Z" fill="white" stroke="white" stroke-width="6.175" stroke-linejoin="round"/>
<path d="M28.6875 43L39.4375 53.75L60.9375 32.25" stroke="black" stroke-width="6.175" stroke-linecap="round" stroke-linejoin="round"/>
</mask>
<g mask="url(#mask0_6201_109666)">
<path d="M0.0078125 0H86.0078V86H0.0078125V0Z" fill="url(#paint0_linear_6201_109666)"/>
</g>
<defs>
<linearGradient id="paint0_linear_6201_109666" x1="43.0078" y1="0" x2="43.0078" y2="86" gradientUnits="userSpaceOnUse">
<stop stop-color="#00CC25"/>
<stop offset="0.0001" stop-color="#57F936"/>
<stop offset="1" stop-color="#009B07"/>
</linearGradient>
</defs>
</svg>
