<svg width="36" height="36" viewBox="0 0 36 36" fill="none" xmlns="http://www.w3.org/2000/svg">
<path fill-rule="evenodd" clip-rule="evenodd" d="M19.2281 8.68799C18.877 8.41488 18.4449 8.2666 18.0001 8.2666C17.5553 8.2666 17.1232 8.41488 16.7721 8.68799L8.3881 15.208C7.6361 15.795 8.0501 17 9.0031 17H10.0951L10.9151 25.199C10.9645 25.6925 11.1954 26.1501 11.5631 26.4829C11.9309 26.8157 12.4091 27 12.9051 27H23.0951C23.5911 27 24.0693 26.8157 24.4371 26.4829C24.8048 26.1501 25.0358 25.6925 25.0851 25.199L25.9051 17H26.9971C27.9491 17 28.3651 15.795 27.6121 15.209L19.2281 8.68799ZM18.0001 22C18.7958 22 19.5588 21.6839 20.1214 21.1213C20.684 20.5587 21.0001 19.7956 21.0001 19C21.0001 18.2043 20.684 17.4413 20.1214 16.8787C19.5588 16.3161 18.7958 16 18.0001 16C17.2045 16 16.4414 16.3161 15.8788 16.8787C15.3162 17.4413 15.0001 18.2043 15.0001 19C15.0001 19.7956 15.3162 20.5587 15.8788 21.1213C16.4414 21.6839 17.2045 22 18.0001 22Z" fill="white"/>
</svg>
