<svg width="140" height="218" viewBox="0 0 140 218" fill="none" xmlns="http://www.w3.org/2000/svg">
<rect x="1" y="1" width="138" height="216" rx="69" fill="#FFEFE9" stroke="#B01116" stroke-width="2"/>
<ellipse cx="70.5" cy="155.523" rx="20.5" ry="1.52308" fill="#E4CACA"/>
<rect x="59.5" y="20.5" width="21" height="21" rx="10.5" fill="white" stroke="#B01116"/>
<path fill-rule="evenodd" clip-rule="evenodd" d="M111.86 87.4802C111.718 86.9157 111.295 86.4603 110.804 86.2127C111.084 85.1564 109.11 82.5158 106.855 83.1131C106.327 81.7035 104.564 81.423 103.683 82.6906C102.273 81.74 100.474 82.8326 100.616 84.4862C94.9415 88.959 97.9354 99.6672 97.6914 100.37C97.5858 100.581 97.4437 100.793 97.3381 101.004L94.1984 98.4325C95.3603 96.5312 95.5716 97.0922 93.459 95.1217C92.9272 94.6299 92.3991 95.5442 91.7289 96.32L82.7397 91.2827C82.9509 90.649 82.5649 90.19 81.8947 89.9095C81.9311 89.2066 81.403 88.9225 80.7328 88.9225C81.2609 87.5129 79.1447 87.5129 79.5709 85.3311C79.5709 85.2255 79.5709 85.1199 79.5017 85.0507C81.2281 82.4792 79.1156 81.2116 79.0792 79.8021C79.0099 77.4419 77.8808 78.7458 76.0816 77.3363C73.368 75.1508 73.4736 77.5839 71.5323 76.983C68.7132 76.1015 69.2777 78.815 67.7261 79.6236C65.7156 80.6799 67.198 81.8782 67.2344 82.0894C67.3036 82.4063 65.7557 83.499 67.3765 84.7665C66.1089 87.2324 67.6934 88.5364 66.5642 88.2194C65.508 87.9026 65.0855 88.4307 65.2967 89.487C63.5702 89.1701 63.3917 89.1701 63.7087 90.7545C63.6395 90.8237 62.8272 91.1406 63.1805 92.1641C56.5515 94.9468 50.7381 99.4195 46.3315 105.16V105.23C43.0898 104.913 39.1416 104.982 35.7903 100.44C38.0449 99.0667 40.9369 98.1161 41.3595 94.0294C42.0661 87.1965 33.6742 84.8727 34.7669 91.0355C31.314 89.6988 28.8809 93.3957 29.9736 95.6139C27.4714 97.4096 27.2237 101.001 30.0101 102.483C29.3763 109.247 38.3983 126.891 52.7493 119.741L54.3701 118.685C54.2645 125.412 54.1953 132.35 53.984 139.041C53.9148 141.755 55.9582 143.973 58.6717 144.111C66.5318 144.534 81.1629 144.957 88.7426 144.075C91.0336 143.827 92.6544 141.89 92.5853 139.566C96.2859 140.553 100.307 140.833 104.008 139.424C104.572 139.213 105.169 134.175 105.242 133.403C106.936 133.651 108.874 134.248 109.085 133.545C110.458 128.581 113.208 114.598 109.191 110.231C107.956 108.894 106.124 108.118 103.764 107.907C103.447 106.956 100.871 104.279 99.9209 103.434C100.096 103.048 100.307 102.695 100.485 102.309C101.684 101.886 108.488 99.1398 111.623 91.4616C111.94 90.7223 111.871 89.8408 111.448 89.207C111.835 88.7481 112.049 88.0816 111.871 87.4805L111.86 87.4802ZM99.5565 102.061L94.9017 110.726C94.5848 110.515 94.0894 110.267 93.4229 109.881C95.0109 106.992 96.5953 104.035 98.2526 101.183L99.5565 102.061ZM84.5761 114.565C84.0844 113.261 84.3648 111.745 85.2463 110.726C89.0197 112.732 90.0395 112.31 92.5418 113.122C93.3868 113.37 94.4468 113.581 95.0441 113.37C95.361 114.568 95.6086 115.836 95.6778 117.103C91.8717 117.034 88.029 116.153 84.5726 114.568L84.5761 114.565ZM85.7052 109.917C86.2697 109.564 86.7979 109.214 87.3624 108.861C87.9962 109.494 89.3365 110.762 90.5348 111.749C88.8776 111.363 87.2568 110.729 85.7052 109.917ZM96.8757 101.776C95.397 104.384 93.951 106.988 92.5414 109.56C91.2738 108.398 89.755 106.989 89.5438 106.46C90.6729 104.348 92.3302 101.529 93.7398 99.205L96.8757 101.776ZM93.1387 96.1053L94.0201 96.9503C92.4685 99.4161 90.1083 103.43 88.6623 106.144C88.0613 107.236 91.4814 109.666 94.4791 112.518C91.0262 112.518 88.1706 107.305 87.2163 107.87C84.2915 109.596 81.7528 111.64 78.5439 114.208L77.983 113.647C82.9184 107.87 87.9591 101.919 93.1425 96.1086L93.1387 96.1053ZM78.1909 112.026C76.6029 113.891 76.5337 113.541 77.5899 114.597C76.5664 116.568 75.4409 117.944 72.0536 117.944C66.2733 117.944 65.2862 113.508 65.1805 108.576L78.049 108.434C78.4715 109.527 78.3293 110.831 78.1909 112.026ZM82.5981 106.814C82.1756 104.384 81.0101 96.5316 82.3869 92.1641L91.1284 96.9902C88.24 100.265 85.4209 103.539 82.6018 106.813L82.5981 106.814ZM79.7462 88.2889C79.7826 88.3581 79.8882 88.431 79.8882 88.431C79.8882 89.1704 79.1124 89.6293 80.9445 89.8405C80.3799 89.9461 80.4856 90.7547 81.0501 90.7547C82.3177 90.7912 81.6511 90.6127 81.4362 92.4812C81.3306 93.2206 81.2249 92.1644 79.5312 92.7981C77.1346 93.6795 75.7942 91.1081 76.1475 90.3323C77.1346 89.1339 77.7684 87.4804 78.2637 86.14C78.3693 86.1036 78.4749 86.0344 78.5806 85.9652C78.6498 86.8102 79.0395 87.6916 79.7425 88.289L79.7462 88.2889ZM78.3002 101.671C78.0197 103.044 77.63 103.219 76.3952 103.219L67.4752 103.288C65.7487 103.288 65.359 102.972 65.2898 101.456C65.1149 98.8484 65.1841 96.175 65.4646 93.5672V93.5307C65.745 93.4943 65.9927 93.4251 66.204 93.2831C66.6629 93.6691 67.3331 93.6364 67.7556 93.1774C68.0361 93.2831 68.3202 93.2831 68.6007 93.1774C69.3073 94.5506 73.8165 96.4883 76.9889 93.4579L78.8209 93.844C78.8209 97.0857 79.1378 97.9306 78.2928 101.664L78.3002 101.671ZM73.19 90.8242C70.3672 90.7186 69.453 85.0147 69.4165 84.9783C70.5092 80.6112 74.3154 79.941 76.3624 82.3012C77.1018 83.1462 77.7028 85.0148 77.4186 85.7869C76.6064 87.9724 75.5138 90.9298 73.19 90.8242ZM73.1535 91.7748L75.2697 91.141C75.4118 91.8112 75.7286 92.4086 76.2203 92.9003C74.2098 94.6595 71.2486 94.5538 69.3801 92.689L70.6476 90.3652C71.3178 91.1738 72.1628 91.7019 73.1499 91.7748L73.1535 91.7748ZM68.149 81.8789C67.9742 80.9975 67.0199 81.1031 68.149 80.4365C70.1923 79.2746 69.2417 77.2313 71.2522 77.8651C73.8273 78.6409 73.332 76.2442 75.481 78.0399C77.63 79.7991 78.0889 78.2147 78.1253 79.7991C78.1617 81.42 80.4527 83.11 78.373 84.9749C77.9104 79.2018 70.4035 77.8651 68.5712 84.4868C66.4551 83.4305 68.3927 83.0408 68.1451 81.8789L68.149 81.8789ZM64.0259 91.6331C64.7325 91.1741 64.7653 91.0685 64.4848 90.1907C66.2113 90.5768 66.142 90.402 66.142 89.0288C69.1396 89.5205 67.1291 87.3752 68.1525 85.259L68.6115 85.5759C68.7535 86.6686 69.2124 88.1473 69.9518 89.4149C70.0939 90.0486 68.4731 93.079 68.0141 92.234C67.4496 91.2469 66.8522 93.2902 66.7466 92.4817C66.641 91.3562 65.6539 92.7293 65.0529 92.6565C64.2771 92.5144 63.9238 91.7059 64.0294 91.6366L64.0259 91.6331ZM62.6855 93.3923C61.8041 115.476 57.6446 115.967 57.3968 116.142C55.776 116.776 54.2608 117.584 52.6728 118.677C49.9228 114.769 48.0543 110.223 47.2093 105.575C51.2996 100.294 56.6212 96.1018 62.6858 93.3884L62.6855 93.3923ZM31.697 92.1977C33.2487 91.0358 34.9059 92.1285 34.9059 92.1285C34.9059 95.7198 30.7828 95.2281 30.7464 95.2281C30.4296 94.1353 30.8156 92.8679 31.697 92.1977ZM28.9471 99.5952C28.6667 97.6575 30.568 96.1423 30.8156 96.1787C35.292 97.2714 31.0961 102.236 30.71 99.1363C30.5352 97.6211 31.2746 98.5717 31.4858 98.5717C33.0375 98.5717 30.5352 95.9311 29.8286 98.2548C29.3005 100.014 30.9213 102.199 32.7898 100.509C34.0245 99.384 34.163 97.3042 32.7534 96.0367C35.1865 95.4393 36.1407 93.5016 35.6818 91.0358C34.7275 86.0021 40.9668 88.7811 40.4387 93.9605C39.9797 98.1164 36.5268 98.5025 33.9153 100.688C30.6372 103.471 29.0856 100.793 28.9436 99.5951L28.9471 99.5952ZM39.3092 118.225C33.8094 114.386 30.7061 106.602 30.8845 102.8C32.753 103.153 33.7766 101.886 35.044 100.968C38.7118 106.005 43.1153 105.794 46.3936 106.144C47.275 110.758 49.18 115.231 51.8571 119.14C47.3807 121.216 43.1483 120.936 39.3056 118.226L39.3092 118.225ZM90.9539 141.82C90.3893 142.56 89.5443 143.052 88.6264 143.157C81.6805 143.966 68.1455 143.685 58.6972 143.194C56.5118 143.088 54.8181 141.256 54.891 139.074C55.1023 132.172 55.2079 125.022 55.2771 118.12L57.7794 116.994C58.6973 116.783 62.8203 114.67 63.5962 92.9728C63.6326 92.9728 63.6654 92.9363 63.6654 92.9363C63.9131 93.184 64.1935 93.3589 64.5468 93.4645C64.5468 99.4852 62.6419 104.206 67.4716 104.206C69.4457 104.206 77.1306 104.487 78.1871 103.747C80.092 102.41 79.9136 94.1319 79.6658 93.676L81.039 93.6068C80.5109 99.1358 81.3923 105.44 81.8148 107.728C80.9698 108.748 80.0883 109.772 79.2069 110.759C79.2761 109.877 79.2069 107.517 78.3947 107.484L64.4007 107.765C64.1203 108.045 63.2024 118.859 72.0496 118.859C75.7866 118.859 77.1598 117.238 78.2889 115.231L79.1011 114.914C80.7948 113.541 82.3428 112.343 83.8252 111.217C83.1914 112.696 83.3662 114.987 84 115.304C84.601 115.585 85.1984 115.832 85.7993 116.044C84.9543 122.487 84.3533 128.897 84 135.697C83.9308 136.506 89.427 138.622 91.6161 139.289C91.7217 140.203 91.5105 141.084 90.9459 141.824L90.9539 141.82ZM104.314 133.367C104.033 135.162 103.786 136.852 103.432 138.648C96.4865 141.114 88.3782 137.344 84.9254 135.443C85.3115 128.89 85.876 122.658 86.6883 116.389C89.5803 117.409 92.6471 117.974 95.7467 117.974C95.9579 123.783 94.3006 125.757 94.1586 128.223C93.9838 131.075 95.6738 132.026 98.0013 132.343L104.31 133.257L104.314 133.367ZM110.273 117.377C110.309 122.626 109.639 127.838 108.262 132.908C106.007 132.591 97.0514 131.604 95.9586 130.759C92.8917 128.329 98.989 123.012 95.7474 112.34C94.6183 108.57 105.228 107.27 108.51 110.861C110.026 112.551 110.273 115.086 110.273 117.377ZM102.587 107.835C101.353 107.798 99.0251 107.94 97.1238 108.749C97.936 107.307 98.6754 105.824 99.4512 104.313C100.65 105.333 101.706 106.531 102.587 107.835ZM110.447 89.4845C110.87 89.8706 110.976 90.5772 110.764 91.1381C107.909 98.0767 101.706 100.823 100.296 101.387L98.6058 100.298C98.6058 97.7268 96.2092 88.7809 101.392 85.0483C101.851 84.7315 101.145 83.7808 102.132 83.3218C103.119 82.8993 104.106 84.695 104.317 83.5331C104.492 82.4404 106.08 82.6517 106.011 83.7079C105.941 84.9755 107.562 82.9321 109.252 84.8698C110.593 86.385 109.394 85.9953 109.711 86.7019C109.923 87.1608 110.735 86.7711 110.979 87.6889C111.227 88.6396 109.817 88.8509 110.451 89.4846L110.447 89.4845Z" fill="#200506"/>
</svg>
