<svg width="36" height="36" viewBox="0 0 36 36" fill="none" xmlns="http://www.w3.org/2000/svg">
<path d="M14.85 18L16.3 16.55C16.5 16.35 16.596 16.1167 16.588 15.85C16.58 15.5833 16.484 15.35 16.3 15.15C16.1 14.95 15.8627 14.846 15.588 14.838C15.3133 14.83 15.0757 14.9257 14.875 15.125L12.7 17.3C12.5 17.5 12.4 17.7333 12.4 18C12.4 18.2667 12.5 18.5 12.7 18.7L14.875 20.875C15.075 21.075 15.3127 21.171 15.588 21.163C15.8633 21.155 16.1007 21.0507 16.3 20.85C16.4833 20.65 16.5793 20.4167 16.588 20.15C16.5967 19.8833 16.5007 19.65 16.3 19.45L14.85 18ZM21.15 18L19.7 19.45C19.5 19.65 19.404 19.8833 19.412 20.15C19.42 20.4167 19.516 20.65 19.7 20.85C19.9 21.05 20.1377 21.154 20.413 21.162C20.6883 21.17 20.9257 21.0743 21.125 20.875L23.3 18.7C23.5 18.5 23.6 18.2667 23.6 18C23.6 17.7333 23.5 17.5 23.3 17.3L21.125 15.125C20.925 14.925 20.6877 14.829 20.413 14.837C20.1383 14.845 19.9007 14.9493 19.7 15.15C19.5167 15.35 19.421 15.5833 19.413 15.85C19.405 16.1167 19.5007 16.35 19.7 16.55L21.15 18ZM11 27C10.45 27 9.97933 26.8043 9.588 26.413C9.19667 26.0217 9.00067 25.5507 9 25V11C9 10.45 9.196 9.97933 9.588 9.588C9.98 9.19667 10.4507 9.00067 11 9H15.2C15.4167 8.4 15.7793 7.91667 16.288 7.55C16.7967 7.18333 17.3673 7 18 7C18.6327 7 19.2037 7.18333 19.713 7.55C20.2223 7.91667 20.5847 8.4 20.8 9H25C25.55 9 26.021 9.196 26.413 9.588C26.805 9.98 27.0007 10.4507 27 11V25C27 25.55 26.8043 26.021 26.413 26.413C26.0217 26.805 25.5507 27.0007 25 27H11ZM18 10.25C18.2167 10.25 18.396 10.179 18.538 10.037C18.68 9.895 18.7507 9.716 18.75 9.5C18.7493 9.284 18.6783 9.105 18.537 8.963C18.3957 8.821 18.2167 8.75 18 8.75C17.7833 8.75 17.6043 8.821 17.463 8.963C17.3217 9.105 17.2507 9.284 17.25 9.5C17.2493 9.716 17.3203 9.89533 17.463 10.038C17.6057 10.1807 17.7847 10.2513 18 10.25Z" fill="#F89295"/>
</svg>
