<svg width="24" height="24" viewBox="0 0 24 24" fill="none" xmlns="http://www.w3.org/2000/svg">
<path d="M19.6504 19.405C20.2024 19.29 20.5324 18.712 20.2574 18.218C19.6514 17.131 18.6974 16.175 17.4774 15.447C15.9054 14.509 13.9784 14 11.9984 14C10.0184 14 8.09144 14.508 6.51944 15.447C5.29944 16.175 4.34544 17.131 3.73944 18.218C3.46444 18.712 3.79444 19.29 4.34644 19.405C9.39321 20.4569 14.6027 20.4569 19.6494 19.405" fill="#B01116"/>
<path d="M12 13C14.7614 13 17 10.7614 17 8C17 5.23858 14.7614 3 12 3C9.23858 3 7 5.23858 7 8C7 10.7614 9.23858 13 12 13Z" fill="#B01116"/>
</svg>
