<svg width="32" height="32" viewBox="0 0 32 32" fill="none" xmlns="http://www.w3.org/2000/svg">
<rect width="32" height="32" rx="16" fill="#F5BEC0"/>
<path fill-rule="evenodd" clip-rule="evenodd" d="M12.1607 11.1415C12.4227 11.0541 12.5643 10.771 12.4769 10.509C12.3896 10.247 12.1065 10.1055 11.8445 10.1928L11.4746 10.3161C11.094 10.4429 10.7714 10.5505 10.5153 10.6675C10.2428 10.7921 10.0042 10.9449 9.81434 11.1847C9.62444 11.4245 9.5303 11.6917 9.47146 11.9855C9.41617 12.2616 9.38539 12.6003 9.34909 12.9998L8.88424 18.113C8.85279 18.2913 8.83625 18.4746 8.83594 18.6618C8.83956 20.4076 10.2559 21.8338 12.0026 21.8338C13.5781 21.8338 14.8849 20.6832 15.1285 19.1765L15.2745 19.1244C15.7454 18.9564 16.2598 18.9564 16.7307 19.1244L16.8767 19.1765C17.1203 20.6832 18.4271 21.8338 20.0026 21.8338C21.7493 21.8338 23.1656 20.4076 23.1693 18.6618C23.169 18.4746 23.1524 18.2913 23.121 18.113L22.6561 12.9998C22.6198 12.6003 22.589 12.2616 22.5337 11.9855C22.4749 11.6917 22.3808 11.4245 22.1909 11.1847C22.001 10.9449 21.7624 10.7921 21.4899 10.6675C21.2338 10.5505 20.9112 10.4429 20.5306 10.3161L20.1607 10.1928C19.8987 10.1055 19.6156 10.247 19.5283 10.509C19.4409 10.771 19.5825 11.0541 19.8445 11.1415L20.1899 11.2566C20.6015 11.3938 20.8727 11.4849 21.0742 11.577C21.2647 11.6641 21.3502 11.7339 21.407 11.8056C21.4637 11.8772 21.5121 11.9764 21.5532 12.1818C21.5967 12.3991 21.6233 12.6839 21.6625 13.1159L21.9394 16.1616C21.404 15.7471 20.7321 15.5005 20.0026 15.5005C18.4392 15.5005 17.1404 16.6334 16.8825 18.1231C16.3077 17.9569 15.6975 17.9569 15.1227 18.1231C14.8648 16.6334 13.566 15.5005 12.0026 15.5005C11.2731 15.5005 10.6012 15.7471 10.0658 16.1616L10.098 15.8071L10.3426 13.1159C10.3819 12.6839 10.4085 12.3991 10.452 12.1818C10.4931 11.9764 10.5415 11.8772 10.5982 11.8056C10.655 11.7339 10.7405 11.6641 10.931 11.577C11.1325 11.4849 11.4037 11.3938 11.8153 11.2566L12.1607 11.1415Z" fill="#B01116"/>
<rect x="7.29334" y="9.75568" width="2" height="22" rx="1" transform="rotate(-47.0431 7.29334 9.75568)" fill="#B01116" stroke="#F5BEC0"/>
</svg>
