<svg width="121" height="180" viewBox="0 0 121 180" fill="none" xmlns="http://www.w3.org/2000/svg">
<rect x="0.5" width="120" height="180" rx="60" fill="#FFEFE9"/>
<ellipse cx="60.5" cy="155.523" rx="20.5" ry="1.52308" fill="#E4CACA"/>
<rect x="50.5" y="20.5" width="21" height="21" rx="10.5" fill="white" stroke="black"/>
<path fill-rule="evenodd" clip-rule="evenodd" d="M101.856 85.4801C101.714 84.9155 101.292 84.4602 100.8 84.2125C101.08 83.1563 99.1062 80.5156 96.8515 81.113C96.3234 79.7034 94.5605 79.4229 93.6791 80.6904C92.2696 79.7398 90.4702 80.8325 90.6123 82.4861C84.9376 86.9589 87.9315 97.6671 87.6875 98.3701C87.5819 98.5814 87.4398 98.7926 87.3342 99.0039L84.1945 96.4324C85.3564 94.5311 85.5677 95.092 83.4551 93.1215C82.9233 92.6298 82.3952 93.544 81.725 94.3199L72.7358 89.2826C72.947 88.6489 72.5609 88.1899 71.8908 87.9094C71.9272 87.2065 71.3991 86.9224 70.7289 86.9224C71.257 85.5128 69.1408 85.5128 69.567 83.331C69.567 83.2254 69.567 83.1197 69.4977 83.0505C71.2242 80.4791 69.1117 79.2115 69.0752 77.802C69.006 75.4418 67.8769 76.7457 66.0777 75.3362C63.3641 73.1507 63.4697 75.5838 61.5284 74.9828C58.7093 74.1014 59.2738 76.8149 57.7222 77.6235C55.7117 78.6798 57.1941 79.8781 57.2305 80.0893C57.2997 80.4062 55.7518 81.4989 57.3726 82.7664C56.105 85.2322 57.6894 86.5362 56.5603 86.2193C55.5041 85.9024 55.0816 86.4306 55.2928 87.4869C53.5663 87.17 53.3878 87.17 53.7048 88.7544C53.6356 88.8236 52.8233 89.1405 53.1766 90.164C46.5476 92.9467 40.7342 97.4194 36.3276 103.16V103.229C33.0859 102.913 29.1377 102.982 25.7864 98.4398C28.041 97.0666 30.933 96.116 31.3556 92.0293C32.0622 85.1964 23.6703 82.8725 24.763 89.0354C21.3101 87.6986 18.877 91.3955 19.9697 93.6138C17.4674 95.4095 17.2198 99.0007 20.0061 100.483C19.3724 107.247 28.3944 124.891 42.7454 117.741L44.3662 116.684C44.2606 123.412 44.1914 130.35 43.9801 137.041C43.9109 139.755 45.9543 141.973 48.6678 142.111C56.5279 142.534 71.159 142.956 78.7387 142.075C81.0297 141.827 82.6505 139.89 82.5813 137.566C86.282 138.553 90.303 138.833 94.0036 137.424C94.5682 137.212 95.1655 132.175 95.2384 131.403C96.932 131.651 98.8697 132.248 99.081 131.545C100.454 126.581 103.204 112.598 99.1866 108.231C97.9519 106.894 96.1198 106.118 93.7596 105.907C93.4427 104.956 90.8676 102.279 89.917 101.434C90.0918 101.048 90.303 100.695 90.4815 100.309C91.6799 99.886 98.4837 97.1397 101.619 89.4615C101.936 88.7221 101.867 87.8407 101.445 87.2069C101.831 86.748 102.046 86.0815 101.867 85.4804L101.856 85.4801ZM89.5526 100.061L84.8978 108.726C84.5809 108.514 84.0855 108.267 83.419 107.881C85.007 104.992 86.5914 102.035 88.2487 99.1828L89.5526 100.061ZM74.5722 112.564C74.0805 111.261 74.3609 109.745 75.2424 108.725C79.0158 110.732 80.0356 110.31 82.5379 111.122C83.3829 111.37 84.4429 111.581 85.0402 111.37C85.3571 112.568 85.6047 113.836 85.6739 115.103C81.8678 115.034 78.0251 114.153 74.5687 112.568L74.5722 112.564ZM75.7013 107.917C76.2658 107.564 76.794 107.214 77.3585 106.861C77.9922 107.494 79.3326 108.762 80.5309 109.749C78.8737 109.363 77.2529 108.729 75.7013 107.917ZM86.8718 99.7762C85.3931 102.384 83.947 104.988 82.5375 107.56C81.2699 106.398 79.7511 104.988 79.5399 104.46C80.669 102.348 82.3263 99.5286 83.7358 97.2049L86.8718 99.7762ZM83.1348 94.1052L84.0162 94.9502C82.4646 97.416 80.1044 101.43 78.6584 104.143C78.0574 105.236 81.4775 107.666 84.4752 110.517C81.0223 110.517 78.1667 105.305 77.2124 105.87C74.2876 107.596 71.7489 109.64 68.54 112.207L67.9791 111.647C72.9145 105.87 77.9552 99.9184 83.1386 94.1084L83.1348 94.1052ZM68.187 110.026C66.599 111.89 66.5298 111.541 67.586 112.597C66.5625 114.568 65.437 115.944 62.0497 115.944C56.2693 115.944 55.2823 111.508 55.1766 106.576L68.0451 106.434C68.4676 107.527 68.3254 108.831 68.187 110.026ZM72.5942 104.813C72.1717 102.384 71.0062 94.5315 72.383 90.164L81.1245 94.9901C78.2361 98.2645 75.417 101.539 72.5979 104.813L72.5942 104.813ZM69.7423 86.2888C69.7787 86.358 69.8843 86.4308 69.8843 86.4308C69.8843 87.1702 69.1085 87.6292 70.9406 87.8404C70.376 87.946 70.4817 88.7546 71.0462 88.7546C72.3138 88.791 71.6472 88.6126 71.4323 90.4811C71.3267 91.2205 71.221 90.1642 69.5273 90.798C67.1307 91.6794 65.7903 89.108 66.1436 88.3322C67.1307 87.1338 67.7645 85.4802 68.2598 84.1399C68.3654 84.1034 68.471 84.0342 68.5767 83.965C68.6459 84.81 69.0356 85.6915 69.7386 86.2888L69.7423 86.2888ZM68.2963 99.6711C68.0158 101.044 67.6261 101.219 66.3913 101.219L57.4713 101.288C55.7448 101.288 55.3551 100.971 55.2858 99.4562C55.111 96.8483 55.1802 94.1749 55.4607 91.567V91.5306C55.7411 91.4942 55.9888 91.425 56.2001 91.2829C56.659 91.669 57.3292 91.6362 57.7517 91.1773C58.0322 91.2829 58.3163 91.2829 58.5967 91.1773C59.3034 92.5505 63.8126 94.4882 66.985 91.4578L68.817 91.8438C68.817 95.0855 69.1339 95.9305 68.2889 99.6639L68.2963 99.6711ZM63.1861 88.8241C60.3633 88.7184 59.4491 83.0146 59.4126 82.9782C60.5053 78.611 64.3115 77.9409 66.3585 80.3011C67.0979 81.1461 67.6989 83.0146 67.4147 83.7868C66.6025 85.9722 65.5099 88.9297 63.1861 88.8241ZM63.1496 89.7747L65.2658 89.1409C65.4078 89.8111 65.7247 90.4085 66.2164 90.9001C64.2059 92.6594 61.2447 92.5537 59.3762 90.6889L60.6437 88.3651C61.3139 89.1737 62.1589 89.7018 63.146 89.7746L63.1496 89.7747ZM58.1451 79.8788C57.9703 78.9973 57.016 79.103 58.1451 78.4364C60.1884 77.2745 59.2378 75.2312 61.2483 75.8649C63.8234 76.6408 63.3281 74.2441 65.4771 76.0398C67.6261 77.799 68.085 76.2146 68.1214 77.799C68.1578 79.4198 70.4488 81.1099 68.369 82.9747C67.9065 77.2017 60.3996 75.8649 58.5673 82.4867C56.4512 81.4304 58.3888 81.0407 58.1412 79.8787L58.1451 79.8788ZM54.022 89.633C54.7286 89.174 54.7614 89.0684 54.4809 88.1906C56.2074 88.5767 56.1381 88.4018 56.1381 87.0287C59.1357 87.5204 57.1252 85.3751 58.1486 83.2589L58.6076 83.5757C58.7496 84.6684 59.2085 86.1472 59.9479 87.4147C60.09 88.0485 58.4692 91.0789 58.0102 90.2339C57.4457 89.2468 56.8483 91.2901 56.7427 90.4815C56.6371 89.3561 55.65 90.7292 55.049 90.6564C54.2732 90.5143 53.9199 89.7057 54.0255 89.6365L54.022 89.633ZM52.6816 91.3922C51.8002 113.476 47.6407 113.967 47.3929 114.142C45.7721 114.775 44.2569 115.584 42.6689 116.677C39.9189 112.769 38.0504 108.223 37.2054 103.575C41.2957 98.2938 46.6173 94.1016 52.6819 91.3883L52.6816 91.3922ZM21.6931 90.1975C23.2448 89.0356 24.902 90.1283 24.902 90.1283C24.902 93.7197 20.7789 93.2279 20.7425 93.2279C20.4256 92.1352 20.8117 90.8678 21.6931 90.1975ZM18.9432 97.5951C18.6628 95.6574 20.5641 94.1422 20.8117 94.1786C25.2881 95.2713 21.0922 100.236 20.7061 97.1361C20.5313 95.6209 21.2706 96.5716 21.4819 96.5716C23.0336 96.5716 20.5313 93.9309 19.8247 96.2547C19.2965 98.0139 20.9174 100.199 22.7859 98.5093C24.0206 97.3839 24.1591 95.3041 22.7495 94.0366C25.1826 93.4392 26.1368 91.5015 25.6779 89.0356C24.7236 84.002 30.9629 86.781 30.4348 91.9604C29.9758 96.1162 26.5229 96.5024 23.9114 98.6877C20.6333 101.47 19.0817 98.7933 18.9397 97.595L18.9432 97.5951ZM29.3053 116.225C23.8055 112.386 20.7022 104.602 20.8806 100.8C22.7491 101.153 23.7727 99.8856 25.0401 98.9678C28.7079 104.005 33.1114 103.794 36.3897 104.144C37.2711 108.758 39.1761 113.231 41.8532 117.14C37.3767 119.216 33.1444 118.935 29.3017 116.226L29.3053 116.225ZM80.95 139.82C80.3854 140.56 79.5404 141.051 78.6225 141.157C71.6766 141.966 58.1416 141.685 48.6933 141.193C46.5079 141.088 44.8142 139.256 44.8871 137.074C45.0984 130.172 45.204 123.022 45.2732 116.119L47.7755 114.994C48.6933 114.783 52.8164 112.67 53.5923 90.9726C53.6287 90.9726 53.6615 90.9362 53.6615 90.9362C53.9091 91.1839 54.1896 91.3587 54.5429 91.4644C54.5429 97.4851 52.638 102.206 57.4677 102.206C59.4418 102.206 67.1267 102.486 68.1832 101.747C70.0881 100.41 69.9097 92.1318 69.6619 91.6758L71.0351 91.6066C70.507 97.1357 71.3884 103.44 71.8109 105.728C70.9659 106.748 70.0844 107.772 69.203 108.759C69.2722 107.877 69.203 105.517 68.3908 105.484L54.3968 105.765C54.1164 106.045 53.1985 116.859 62.0457 116.859C65.7827 116.859 67.1559 115.238 68.2849 113.231L69.0972 112.914C70.7908 111.541 72.3389 110.343 73.8213 109.217C73.1875 110.696 73.3623 112.987 73.9961 113.304C74.5971 113.584 75.1945 113.832 75.7954 114.043C74.9504 120.487 74.3494 126.897 73.9961 133.697C73.9269 134.506 79.4231 136.622 81.6122 137.289C81.7178 138.203 81.5066 139.084 80.942 139.824L80.95 139.82ZM94.3098 131.366C94.0294 133.162 93.7817 134.852 93.4284 136.648C86.4825 139.114 78.3743 135.344 74.9215 133.443C75.3076 126.89 75.8721 120.658 76.6844 114.389C79.5764 115.409 82.6432 115.974 85.7428 115.974C85.954 121.783 84.2967 123.757 84.1547 126.223C83.9799 129.075 85.6699 130.026 87.9974 130.342L94.3058 131.257L94.3098 131.366ZM100.269 115.377C100.305 120.626 99.6349 125.838 98.2581 130.908C96.0035 130.591 87.0475 129.604 85.9547 128.759C82.8878 126.329 88.9851 121.012 85.7434 110.339C84.6144 106.57 95.2244 105.269 98.5066 108.861C100.022 110.551 100.269 113.086 100.269 115.377ZM92.5834 105.835C91.3486 105.798 89.0212 105.94 87.1199 106.749C87.9321 105.306 88.6715 103.824 89.4473 102.313C90.6457 103.332 91.7019 104.531 92.5834 105.835ZM100.443 87.4844C100.866 87.8704 100.972 88.5771 100.76 89.1379C97.9048 96.0765 91.702 98.8231 90.2919 99.3872L88.6019 98.2981C88.6019 95.7267 86.2053 86.7807 91.3883 83.0482C91.8472 82.7313 91.1406 81.7807 92.1277 81.3217C93.1148 80.8992 94.1018 82.6949 94.3131 81.533C94.488 80.4403 96.076 80.6515 96.0068 81.7078C95.9376 82.9754 97.5584 80.932 99.2485 82.8697C100.589 84.3849 99.3905 83.9952 99.7074 84.7018C99.9187 85.1607 100.731 84.771 100.975 85.6888C101.223 86.6394 99.8131 86.8507 100.447 87.4845L100.443 87.4844Z" fill="#200506"/>
</svg>
