<svg width="40" height="40" viewBox="0 0 40 40" fill="none" xmlns="http://www.w3.org/2000/svg">
<circle cx="20" cy="20" r="20" fill="#FE7655"/>
<g filter="url(#filter0_d_5991_76528)">
<path d="M20.3097 11.1561C20.242 11.0882 20.1615 11.0343 20.0729 10.9976C19.9843 10.9608 19.8893 10.9419 19.7934 10.9419C19.6975 10.9419 19.6025 10.9608 19.5139 10.9976C19.4254 11.0343 19.3449 11.0882 19.2771 11.1561C17.4644 12.966 15.4605 13.8585 13.2292 13.8585C13.0358 13.8585 12.8503 13.9354 12.7136 14.0721C12.5768 14.2089 12.5 14.3943 12.5 14.5877V18.9644C12.5 23.6589 14.8932 26.8499 19.5615 28.4045C19.7111 28.4544 19.8728 28.4544 20.0224 28.4045C24.6892 26.8499 27.0839 23.6589 27.0839 18.9644V14.5877C27.0839 14.3943 27.0071 14.2089 26.8703 14.0721C26.7336 13.9354 26.5481 13.8585 26.3547 13.8585C24.1219 13.8585 22.1181 12.9689 20.3097 11.1561ZM23.9542 16.9897C24.0909 17.1264 24.1677 17.3119 24.1677 17.5052C24.1677 17.6986 24.0909 17.884 23.9542 18.0208L19.579 22.396C19.5113 22.4639 19.4308 22.5177 19.3422 22.5545C19.2537 22.5913 19.1587 22.6102 19.0628 22.6102C18.9669 22.6102 18.8719 22.5913 18.7833 22.5545C18.6947 22.5177 18.6142 22.4639 18.5465 22.396L16.3589 20.2084C16.222 20.0714 16.1451 19.8857 16.1451 19.6921C16.1451 19.4985 16.222 19.3127 16.3589 19.1758C16.4958 19.0389 16.6815 18.962 16.8752 18.962C17.0688 18.962 17.2545 19.0389 17.3914 19.1758L19.0628 20.8486L22.9217 16.9897C22.9894 16.9218 23.0699 16.8679 23.1585 16.8311C23.2471 16.7944 23.342 16.7755 23.4379 16.7755C23.5339 16.7755 23.6288 16.7944 23.7174 16.8311C23.806 16.8679 23.8865 16.9218 23.9542 16.9897Z" fill="white"/>
</g>
<defs>
<filter id="filter0_d_5991_76528" x="9.96143" y="10.9419" width="19.6631" height="22.5771" filterUnits="userSpaceOnUse" color-interpolation-filters="sRGB">
<feFlood flood-opacity="0" result="BackgroundImageFix"/>
<feColorMatrix in="SourceAlpha" type="matrix" values="0 0 0 0 0 0 0 0 0 0 0 0 0 0 0 0 0 0 127 0" result="hardAlpha"/>
<feOffset dy="2.53857"/>
<feGaussianBlur stdDeviation="1.26929"/>
<feComposite in2="hardAlpha" operator="out"/>
<feColorMatrix type="matrix" values="0 0 0 0 0 0 0 0 0 0 0 0 0 0 0 0 0 0 0.25 0"/>
<feBlend mode="normal" in2="BackgroundImageFix" result="effect1_dropShadow_5991_76528"/>
<feBlend mode="normal" in="SourceGraphic" in2="effect1_dropShadow_5991_76528" result="shape"/>
</filter>
</defs>
</svg>
