<svg width="40" height="40" viewBox="0 0 40 40" fill="none" xmlns="http://www.w3.org/2000/svg">
<rect width="39.926" height="39.926" rx="4.98149" fill="#13AD2D"/>
<path d="M12.2173 28.0188H26.9627V25.9123H12.2173V28.0188ZM24.8562 19.5928H22.6655C22.1303 19.5928 21.6965 19.159 21.6965 18.6238V18.3125C21.6965 17.4116 21.9887 16.5545 22.4028 15.7544C22.7026 15.1748 22.8274 14.4908 22.7007 13.7657C22.4778 12.4893 21.4345 11.4387 20.1578 11.2165C18.1622 10.8693 16.4303 12.3955 16.4303 14.3266C16.4303 14.7926 16.533 15.233 16.7163 15.6293C17.155 16.5789 17.4835 17.5752 17.4835 18.6215V18.6238C17.4835 19.159 17.0497 19.5928 16.5145 19.5928H14.3238C12.5787 19.5928 11.1641 21.0075 11.1641 22.7526V23.8058C11.1641 24.3874 11.6357 24.8591 12.2173 24.8591H26.9627C27.5443 24.8591 28.0159 24.3874 28.0159 23.8058V22.7526C28.0159 21.0075 26.6013 19.5928 24.8562 19.5928Z" fill="white"/>
</svg>
