<svg width="40" height="41" viewBox="0 0 40 41" fill="none" xmlns="http://www.w3.org/2000/svg">
<rect y="0.925781" width="39.926" height="39.926" rx="4.98149" fill="#FE7655"/>
<path d="M20.2706 12.3539C20.2029 12.286 20.1224 12.2321 20.0338 12.1953C19.9452 12.1586 19.8503 12.1396 19.7544 12.1396C19.6584 12.1396 19.5635 12.1586 19.4749 12.1953C19.3863 12.2321 19.3058 12.286 19.2381 12.3539C17.4253 14.1637 15.4215 15.0563 13.1901 15.0563C12.9967 15.0563 12.8113 15.1331 12.6745 15.2699C12.5378 15.4066 12.4609 15.5921 12.4609 15.7855V20.1621C12.4609 24.8567 14.8542 28.0476 19.5225 29.6023C19.6721 29.6521 19.8337 29.6521 19.9833 29.6023C24.6502 28.0476 27.0449 24.8567 27.0449 20.1621V15.7855C27.0449 15.5921 26.968 15.4066 26.8313 15.2699C26.6945 15.1331 26.5091 15.0563 26.3157 15.0563C24.0829 15.0563 22.079 14.1667 20.2706 12.3539ZM23.9152 18.1874C24.0519 18.3242 24.1286 18.5096 24.1286 18.703C24.1286 18.8963 24.0519 19.0818 23.9152 19.2185L19.54 23.5937C19.4722 23.6616 19.3918 23.7155 19.3032 23.7523C19.2146 23.789 19.1196 23.8079 19.0237 23.8079C18.9278 23.8079 18.8328 23.789 18.7442 23.7523C18.6556 23.7155 18.5752 23.6616 18.5074 23.5937L16.3198 21.4061C16.1829 21.2692 16.106 21.0835 16.106 20.8898C16.106 20.6962 16.1829 20.5105 16.3198 20.3736C16.4568 20.2367 16.6425 20.1597 16.8361 20.1597C17.0298 20.1597 17.2155 20.2367 17.3524 20.3736L19.0237 22.0464L22.8826 18.1874C22.9503 18.1195 23.0308 18.0657 23.1194 18.0289C23.208 17.9921 23.303 17.9732 23.3989 17.9732C23.4948 17.9732 23.5898 17.9921 23.6784 18.0289C23.7669 18.0657 23.8474 18.1195 23.9152 18.1874Z" fill="white"/>
</svg>
