<svg width="44" height="45" viewBox="0 0 44 45" fill="none" xmlns="http://www.w3.org/2000/svg">
<rect y="0.851562" width="43.926" height="43.926" rx="4.98149" fill="#ED1651"/>
<path d="M21.9609 12.8145C27.4839 12.8145 31.9609 17.2915 31.9609 22.8145C31.9609 28.3375 27.4839 32.8145 21.9609 32.8145C16.4379 32.8145 11.9609 28.3375 11.9609 22.8145C11.9609 17.2915 16.4379 12.8145 21.9609 12.8145ZM21.9609 25.8145C21.6957 25.8145 21.4414 25.9198 21.2538 26.1073C21.0663 26.2949 20.9609 26.5492 20.9609 26.8145C20.9609 27.0797 21.0663 27.334 21.2538 27.5216C21.4414 27.7091 21.6957 27.8145 21.9609 27.8145C22.2262 27.8145 22.4805 27.7091 22.668 27.5216C22.8556 27.334 22.9609 27.0797 22.9609 26.8145C22.9609 26.5492 22.8556 26.2949 22.668 26.1073C22.4805 25.9198 22.2262 25.8145 21.9609 25.8145ZM21.9609 16.8145C21.716 16.8145 21.4796 16.9044 21.2966 17.0672C21.1135 17.2299 20.9966 17.4542 20.9679 17.6975L20.9609 17.8145V23.8145C20.9612 24.0693 21.0588 24.3145 21.2338 24.4998C21.4088 24.6852 21.6479 24.7967 21.9023 24.8116C22.1568 24.8266 22.4073 24.7438 22.6028 24.5802C22.7982 24.4166 22.9238 24.1845 22.9539 23.9315L22.9609 23.8145V17.8145C22.9609 17.5492 22.8556 17.2949 22.668 17.1073C22.4805 16.9198 22.2262 16.8145 21.9609 16.8145Z" fill="white"/>
</svg>
