<svg width="40" height="40" viewBox="0 0 40 40" fill="none" xmlns="http://www.w3.org/2000/svg">
<circle cx="20" cy="20" r="20" fill="#A153F3"/>
<path d="M11.2493 15.3125C11.2493 14.5666 11.5456 13.8512 12.073 13.3238C12.6005 12.7963 13.3159 12.5 14.0618 12.5H25.9368C26.6827 12.5 27.3981 12.7963 27.9255 13.3238C28.453 13.8512 28.7493 14.5666 28.7493 15.3125V24.6875C28.7493 25.4334 28.453 26.1488 27.9255 26.6762C27.3981 27.2037 26.6827 27.5 25.9368 27.5H20.3118C20.2668 27.4414 20.2184 27.3854 20.1668 27.3325L18.6043 25.7706C18.898 25.1581 19.0618 24.4725 19.0618 23.75H21.8743C22.04 23.75 22.199 23.6842 22.3162 23.5669C22.4334 23.4497 22.4993 23.2908 22.4993 23.125C22.4993 22.9592 22.4334 22.8003 22.3162 22.6831C22.199 22.5658 22.04 22.5 21.8743 22.5H18.893C18.7003 21.8044 18.3495 21.1627 17.868 20.625H23.7493C23.915 20.625 24.074 20.5592 24.1912 20.4419C24.3084 20.3247 24.3743 20.1658 24.3743 20C24.3743 19.8342 24.3084 19.6753 24.1912 19.5581C24.074 19.4408 23.915 19.375 23.7493 19.375H16.0605C15.5224 19.168 14.9508 19.0621 14.3743 19.0625C13.1743 19.0625 12.0786 19.5138 11.2493 20.2562V15.3125ZM14.9993 16.875C14.9993 17.0408 15.0651 17.1997 15.1823 17.3169C15.2995 17.4342 15.4585 17.5 15.6243 17.5H19.9993C20.165 17.5 20.324 17.4342 20.4412 17.3169C20.5584 17.1997 20.6243 17.0408 20.6243 16.875C20.6243 16.7092 20.5584 16.5503 20.4412 16.4331C20.324 16.3158 20.165 16.25 19.9993 16.25H15.6243C15.4585 16.25 15.2995 16.3158 15.1823 16.4331C15.0651 16.5503 14.9993 16.7092 14.9993 16.875ZM14.3743 27.5C15.1843 27.5 15.9343 27.2437 16.5468 26.8062L18.6199 28.8794C18.7378 28.9932 18.8957 29.0562 19.0595 29.0548C19.2234 29.0534 19.3802 28.9876 19.496 28.8718C19.6119 28.7559 19.6776 28.5991 19.6791 28.4353C19.6805 28.2714 19.6175 28.1135 19.5036 27.9956L17.4311 25.9231C17.9183 25.238 18.1611 24.4091 18.1207 23.5694C18.0802 22.7297 17.7587 21.928 17.2079 21.293C16.6571 20.6579 15.9089 20.2263 15.0834 20.0675C14.2579 19.9087 13.4029 20.0319 12.6558 20.4173C11.9087 20.8027 11.3128 21.4279 10.9637 22.1927C10.6146 22.9574 10.5325 23.8172 10.7307 24.6342C10.9289 25.4511 11.3959 26.1778 12.0567 26.6975C12.7174 27.2172 13.5336 27.4998 14.3743 27.5ZM14.3743 26.25C13.7112 26.25 13.0753 25.9866 12.6065 25.5178C12.1377 25.0489 11.8743 24.413 11.8743 23.75C11.8743 23.087 12.1377 22.4511 12.6065 21.9822C13.0753 21.5134 13.7112 21.25 14.3743 21.25C15.0373 21.25 15.6732 21.5134 16.142 21.9822C16.6109 22.4511 16.8743 23.087 16.8743 23.75C16.8743 24.413 16.6109 25.0489 16.142 25.5178C15.6732 25.9866 15.0373 26.25 14.3743 26.25Z" fill="white"/>
</svg>
