<svg width="140" height="218" viewBox="0 0 140 218" fill="none" xmlns="http://www.w3.org/2000/svg">
<rect x="1" y="1" width="138" height="216" rx="69" fill="#FFEFE9" stroke="#B01116" stroke-width="2"/>
<ellipse cx="70.5" cy="157.5" rx="20.5" ry="1.5" fill="#E4CACA"/>
<g clip-path="url(#clip0_5637_297882)">
<path fill-rule="evenodd" clip-rule="evenodd" d="M98.1911 104.819C93.728 97.783 85.8565 92.893 77.5408 91.9637C77.9257 91.3884 78.1845 90.7801 78.3438 90.2378C78.5993 90.3668 79.7243 89.9171 80.0793 88.5749C80.4012 87.4243 80.4974 86.2407 80.368 85.0571C81.7185 84.5447 80.5605 82.8519 79.9499 82.8519C80.3017 81.255 79.7243 79.3671 78.377 77.767C77.2222 76.3618 73.7214 75.4658 73.6251 75.3997L73.0776 74.5037C71.6009 74.2161 71.4715 74.9501 71.3421 75.3336C71.0534 76.1634 66.5571 74.9501 65.4952 82.1741C65.3359 83.3874 63.8261 82.4948 64.4366 84.733L65.0804 85.0835C65.0173 86.7134 64.9211 89.6857 67.1046 89.7816L68.5513 92.2116C33.2473 100.659 31.0641 133.525 49.5006 141.616C55.9548 144.463 60.6468 141.87 60.7428 141.87C61.9639 142.446 63.2813 142.733 64.5954 142.733C65.7502 142.733 68.74 142.413 69.1548 141.103L83.3507 136.627C85.2455 136.372 85.8892 135.189 85.8892 133.463C86.8847 134.326 88.1059 134.455 89.5194 134.134L92.7647 134.838C96.1693 134.838 99.6071 132.696 100.762 129.561C103.782 121.537 102.786 112.042 98.1936 104.818L98.1911 104.819ZM85.6645 95.0987C87.8147 98.5834 88.4253 102.994 87.3336 106.896C84.6988 107.279 82.6116 108.688 83.4809 110.284L83.7066 123.969C82.8073 122.977 80.9458 117.799 77.0898 119.3C79.5321 110.86 80.5276 102.036 79.98 93.2115C81.9379 93.6281 83.8328 94.2655 85.6645 95.0987ZM93.8873 113.001C94.1428 114.535 95.2677 116.486 97.2289 116.294L91.7669 123.231C91.382 122.626 90.9639 122.05 90.5458 121.571L90.8344 116.744L93.8209 111.021C93.7877 111.725 93.7877 112.492 93.884 113.005L93.8873 113.001ZM98.0618 115.111C96.6814 116.165 95.0421 114.856 94.7202 112.839C94.5908 112.01 94.6871 110.376 94.7833 109.546C97.7366 110.793 99.4721 114.053 98.0585 115.111H98.0618ZM87.1747 122.047C88.2665 122.973 88.7177 124.414 88.2333 125.373C87.0121 125.532 85.6317 125.373 84.5399 124.702L84.2844 110.955C85.7611 111.372 88.3328 110.826 90.2906 109.9L89.7431 120.834C87.752 119.396 86.6603 121.601 87.1747 122.047ZM90.3868 108.524C90.3238 108.716 90.2574 108.908 90.1943 109.004C89.4245 109.675 83.5145 111.305 84.1882 109.354C84.6693 108.045 90.3868 106.604 90.3868 108.524ZM82.6153 125.502C81.8123 129.179 74.6812 129.562 75.8393 122.722C76.8978 116.456 83.3884 121.921 82.6153 125.502ZM64.4379 134.039C64.4047 134.039 64.4047 134.072 64.3748 134.072C62.5432 133.176 61.0665 135.285 59.8154 135.735C59.7192 135.768 59.6562 135.831 59.623 135.927C57.7614 135.672 56.0259 134.905 54.5161 133.784L75.3618 121.317C74.4293 123.651 74.655 128.128 78.1558 128.862L64.4379 134.039ZM51.6224 118.374C52.4885 119.845 54.8014 121.22 57.6618 120.387C59.9415 119.746 61.4812 117.061 60.9669 114.568C59.7457 108.366 59.5234 102.034 60.3563 95.7364C61.8031 95.128 63.3428 94.5858 64.9157 94.0734C67.5173 102.131 71.6917 112.04 75.9659 119.65C75.9991 119.713 76.0289 119.746 76.0953 119.779V119.875L72.5314 121.922C65.1746 123.872 57.3697 123.872 50.0462 121.826C50.3681 120.609 50.9156 119.429 51.6224 118.374ZM67.2616 93.5646C67.9684 94.8441 69.7669 102.644 70.6994 102.644L71.8243 101.556L73.0454 102.323L72.4681 110.86C69.8997 105.328 67.6167 99.6383 65.7219 93.8524C66.2362 93.6937 66.7174 93.5648 67.2317 93.4061C67.2317 93.4689 67.2317 93.502 67.2649 93.5648L67.2616 93.5646ZM77.701 113.323C77.2497 110.03 76.6425 106.003 75.6768 102.039L76.2542 101.367C77.4754 102.359 77.5716 103.189 78.7595 96.8612C78.889 96.1569 79.0482 95.456 79.1777 94.7518C79.4332 101.017 78.952 107.253 77.701 113.326L77.701 113.323ZM76.3836 118.629C75.3251 116.645 74.2964 114.665 73.3009 112.618L73.8783 102.164C73.8783 101.717 73.0752 101.301 72.4016 100.917L73.7521 99.4164L75.5838 100.855L74.814 102.038L77.1269 115.722C76.9012 116.714 76.6756 117.673 76.3869 118.632L76.3836 118.629ZM77.9266 96.6992C77.6711 98.0746 77.3791 99.5128 76.9643 100.888L74.167 98.6466C75.773 97.4001 77.2165 95.9289 78.4376 94.299C78.2451 95.0991 78.0859 95.8958 77.9233 96.6959L77.9266 96.6992ZM70.8287 101.397C70.1849 99.6054 69.5445 97.7837 68.9671 95.9289C70.092 97.2084 71.4724 98.2301 73.0454 98.9343L70.8287 101.397ZM49.8564 122.656C56.5694 124.511 63.6344 124.703 70.443 123.264L65.7543 126.015C60.2956 126.974 54.9003 126.719 49.6972 125.248C49.6341 124.385 49.6972 123.522 49.8564 122.659V122.656ZM59.2671 127.42C60.84 127.42 62.4162 127.324 64.019 127.133L53.8056 133.239C51.6851 131.417 50.2085 128.891 49.7903 126.141C52.8731 127.004 56.052 127.42 59.2639 127.42L59.2671 127.42ZM79.2735 88.3545C79.2105 88.609 78.9848 89.2802 78.5667 89.2802V85.412C78.9516 85.3789 79.2735 85.3161 79.529 85.2831C79.6252 86.3047 79.5622 87.3626 79.2735 88.3512L79.2735 88.3545ZM72.1424 75.6621C72.2387 75.3744 72.1093 75.2455 72.6568 75.3116C73.0085 76.1117 72.7862 76.0158 73.7817 76.3332C74.0372 77.9962 74.0073 79.7551 73.7485 81.5768C70.5695 81.5438 72.2387 81.8314 71.1801 76.4291C71.5651 76.3002 71.95 76.0787 72.1424 75.6621ZM65.3 83.6233C65.9737 83.3688 66.1993 83.3026 66.3586 82.2811C66.6805 79.7221 67.4504 77.421 70.3406 76.6209C71.3692 81.8017 69.5707 82.4067 73.9377 82.4067L74.5482 81.8942C74.8369 80.0725 74.8701 78.3136 74.6777 76.6506C81.3575 79.0476 77.8898 82.7571 79.7215 83.6829C80.0102 83.8416 80.1728 83.9077 80.1064 84.2912C79.0147 84.7706 71.3694 85.1541 65.1707 84.2581C65.1375 83.9705 65.1375 83.7159 65.3001 83.62L65.3 83.6233ZM66.3586 88.5462C65.8774 87.9379 65.9073 85.8914 65.9405 85.1905C66.2922 85.2236 66.6805 85.2864 67.0654 85.3194C66.7435 86.503 66.6805 87.7495 66.9061 88.867C66.6805 88.8339 66.488 88.7083 66.3586 88.5462ZM68.1571 90.1134C67.0986 87.7793 67.9016 85.9575 67.9016 85.4153L77.5383 85.5112L77.7938 85.9278C78.63 95.486 70.2147 94.7192 68.1571 90.1167V90.1134ZM71.3361 93.9816C73.264 94.5569 75.4475 94.1403 76.891 92.7352C77.3722 92.7682 77.8533 92.8311 78.3677 92.8939C77.0172 94.9404 75.348 96.6993 73.3902 98.1706C71.4954 97.3077 68.6682 95.0065 68.124 93.1849C68.5089 93.089 68.8939 92.9931 69.2788 92.8972C69.8894 93.3766 70.5962 93.7601 71.3329 93.985L71.3361 93.9816ZM49.8533 140.847C33.8922 133.848 34.0213 107.408 59.4568 96.1535C58.6869 102.356 58.9425 108.591 60.1337 114.727C60.5485 116.807 59.2644 119.075 57.4028 119.587C53.7095 120.642 52.1997 117.637 52.1366 117.604C55.5081 113.226 58.6239 114.056 58.3021 113.002C57.8209 111.339 48.2177 116.549 48.8583 125.631C49.3394 131.1 53.9021 135.894 59.3605 136.757L60.1005 141.234C56.9515 142.51 53.3238 142.384 49.8533 140.847ZM68.0978 141.134C65.848 142.189 63.1502 142.156 60.9369 141.039L60.1969 136.499C61.0629 136.149 63.6977 133.59 64.4045 135.19C64.8226 136.149 63.2796 135.606 62.7354 136.532C61.8362 138.099 63.2166 139.442 65.7849 139.379C69.0601 139.25 68.4197 140.976 68.0978 141.138L68.0978 141.134ZM68.3533 138.995C66.8103 138.003 64.4344 139.124 63.4721 137.941C63.1502 137.524 63.409 136.694 63.857 136.757C64.6932 136.886 65.6887 135.894 65.0781 134.711L80.4285 128.925C79.3367 131.355 78.8224 134.902 81.6164 136.341L69.156 140.209C69.03 139.696 68.7416 139.25 68.3533 138.995ZM84.9252 134.489C84.3777 137.048 77.7311 136.248 81.65 128.349C82.4862 128.349 85.632 131.034 84.9252 134.489ZM85.6951 131.93C85.2139 130.108 83.9596 128.508 82.2573 127.711C83.0603 126.944 83.5083 126.048 83.5083 124.931C85.3069 126.498 88.519 126.561 88.8708 125.986C89.6738 124.739 89.2557 122.917 87.9383 121.605C88.9968 119.687 92.1128 124.961 92.4977 127.007C92.9158 129.341 91.7908 131.867 89.7998 133.176C87.3908 133.91 86.362 133.018 85.6885 131.93L85.6951 131.93ZM99.9869 129.245C98.6364 132.763 94.2363 134.81 90.6391 133.656C93.7551 131.322 94.1732 127.645 92.2452 124.032L98.9316 115.432C101.278 112.49 94.5647 107.154 93.9541 108.909L90.9046 114.791L91.1601 107.917C90.9046 107.055 89.9091 106.704 88.2367 106.8C89.1692 103.123 88.7178 99.1263 86.9856 95.7377C91.2563 97.9429 94.9197 101.236 97.4879 105.266C101.921 112.299 102.884 121.476 99.9932 129.243L99.9869 129.245Z" fill="#200506"/>
</g>
<rect x="59.5" y="13.5" width="21" height="21" rx="10.5" fill="white" stroke="#B01116"/>
<defs>
<clipPath id="clip0_5637_297882">
<rect width="64.5614" height="69.4035" fill="white" transform="translate(38 74)"/>
</clipPath>
</defs>
</svg>
