<svg width="24" height="24" viewBox="0 0 24 24" fill="none" xmlns="http://www.w3.org/2000/svg">
<path d="M10.835 3.25C10.986 3.25 11.105 3.25 11.219 3.26C11.6584 3.29628 12.0827 3.43768 12.456 3.67228C12.8293 3.90689 13.1407 4.22781 13.364 4.608C13.422 4.707 13.474 4.814 13.539 4.951L13.551 4.975C13.634 5.148 13.657 5.195 13.68 5.233C13.885 5.583 14.25 5.813 14.655 5.846C14.699 5.849 14.751 5.85 14.942 5.85H17.83C18.365 5.85 18.81 5.85 19.175 5.88C19.555 5.91 19.911 5.978 20.248 6.15C20.7656 6.41367 21.1863 6.83445 21.45 7.352C21.622 7.689 21.69 8.045 21.72 8.425C21.75 8.79 21.75 9.235 21.75 9.77V13.83C21.75 14.365 21.75 14.81 21.72 15.175C21.69 15.555 21.622 15.911 21.45 16.248C21.1866 16.7654 20.7662 17.1862 20.249 17.45C19.911 17.622 19.555 17.69 19.175 17.72C18.81 17.75 18.365 17.75 17.831 17.75H9.17C8.635 17.75 8.19 17.75 7.825 17.72C7.445 17.69 7.089 17.622 6.752 17.45C6.23475 17.1869 5.81401 16.7668 5.55 16.25C5.378 15.912 5.31 15.556 5.28 15.176C5.25 14.811 5.25 14.366 5.25 13.831V7.17C5.25 6.635 5.25 6.19 5.28 5.825C5.31 5.445 5.378 5.089 5.55 4.752C5.81367 4.23445 6.23445 3.81367 6.752 3.55C7.089 3.378 7.445 3.31 7.825 3.28C8.19 3.25 8.635 3.25 9.17 3.25H10.835Z" fill="#B01116"/>
<path d="M4.25 7.5C4.25 7.40151 4.2306 7.30398 4.19291 7.21299C4.15522 7.12199 4.09997 7.03931 4.03033 6.96967C3.96069 6.90003 3.87801 6.84478 3.78701 6.80709C3.69602 6.7694 3.59849 6.75 3.5 6.75C3.40151 6.75 3.30398 6.7694 3.21299 6.80709C3.12199 6.84478 3.03931 6.90003 2.96967 6.96967C2.90003 7.03931 2.84478 7.12199 2.80709 7.21299C2.7694 7.30398 2.75 7.40151 2.75 7.5V13.133C2.75 14.225 2.75 15.091 2.807 15.788C2.865 16.502 2.987 17.105 3.267 17.657C3.72284 18.5506 4.44992 19.277 5.344 19.732C5.894 20.013 6.498 20.135 7.212 20.193C7.909 20.25 8.775 20.25 9.867 20.25H17.5C17.6989 20.25 17.8897 20.171 18.0303 20.0303C18.171 19.8897 18.25 19.6989 18.25 19.5C18.25 19.3011 18.171 19.1103 18.0303 18.9697C17.8897 18.829 17.6989 18.75 17.5 18.75H9.9C8.768 18.75 7.963 18.75 7.334 18.698C6.714 18.648 6.329 18.551 6.024 18.396C5.41263 18.0844 4.91556 17.5874 4.604 16.976C4.449 16.671 4.353 16.286 4.302 15.666C4.251 15.036 4.25 14.232 4.25 13.1V7.5Z" fill="#B01116"/>
</svg>
