<svg width="36" height="36" viewBox="0 0 36 36" fill="none" xmlns="http://www.w3.org/2000/svg">
<path d="M7.5 12.75C7.5 11.7554 7.89509 10.8016 8.59835 10.0983C9.30161 9.39509 10.2554 9 11.25 9H14.379C14.9755 9.00053 15.5474 9.23792 15.969 9.66L18 11.688L14.91 14.778C14.8403 14.8483 14.7573 14.9041 14.6659 14.9423C14.5746 14.9804 14.4765 15 14.3775 15H7.5V12.75ZM7.5 16.5V23.25C7.5 24.2446 7.89509 25.1984 8.59835 25.9016C9.30161 26.6049 10.2554 27 11.25 27H18.1275C18.2257 26.7233 18.377 26.4685 18.573 26.25C18.204 25.8375 18 25.3035 18 24.75C18 24.174 18.216 23.6475 18.573 23.25C18.2834 22.9263 18.0938 22.5256 18.0269 22.0965C17.96 21.6673 18.0188 21.228 18.1961 20.8315C18.3734 20.435 18.6617 20.0983 19.0261 19.862C19.3906 19.6257 19.8157 19.5 20.25 19.5H27.75C28.014 19.501 28.264 19.5435 28.5 19.6275V15.75C28.5 14.7554 28.1049 13.8016 27.4016 13.0983C26.6984 12.3951 25.7446 12 24.75 12H19.8105L15.9705 15.84C15.7614 16.0493 15.5131 16.2154 15.2397 16.3287C14.9664 16.4419 14.6734 16.5001 14.3775 16.5H7.5ZM20.25 21C20.0511 21 19.8603 21.079 19.7197 21.2197C19.579 21.3603 19.5 21.5511 19.5 21.75C19.5 21.9489 19.579 22.1397 19.7197 22.2803C19.8603 22.421 20.0511 22.5 20.25 22.5H27.75C27.9489 22.5 28.1397 22.421 28.2803 22.2803C28.421 22.1397 28.5 21.9489 28.5 21.75C28.5 21.5511 28.421 21.3603 28.2803 21.2197C28.1397 21.079 27.9489 21 27.75 21H20.25ZM20.25 24C20.0511 24 19.8603 24.079 19.7197 24.2197C19.579 24.3603 19.5 24.5511 19.5 24.75C19.5 24.9489 19.579 25.1397 19.7197 25.2803C19.8603 25.421 20.0511 25.5 20.25 25.5H27.75C27.9489 25.5 28.1397 25.421 28.2803 25.2803C28.421 25.1397 28.5 24.9489 28.5 24.75C28.5 24.5511 28.421 24.3603 28.2803 24.2197C28.1397 24.079 27.9489 24 27.75 24H20.25ZM19.5 27.75C19.5 27.5511 19.579 27.3603 19.7197 27.2197C19.8603 27.079 20.0511 27 20.25 27H27.75C27.9489 27 28.1397 27.079 28.2803 27.2197C28.421 27.3603 28.5 27.5511 28.5 27.75C28.5 27.9489 28.421 28.1397 28.2803 28.2803C28.1397 28.421 27.9489 28.5 27.75 28.5H20.25C20.0511 28.5 19.8603 28.421 19.7197 28.2803C19.579 28.1397 19.5 27.9489 19.5 27.75Z" fill="#F89295"/>
</svg>
