<svg width="173" height="171" viewBox="0 0 173 171" fill="none" xmlns="http://www.w3.org/2000/svg">
<path d="M134.211 135.617C138.413 134.126 146.005 130.331 157.799 151.072C159.974 154.897 165.364 157.58 171.221 152.699" stroke="url(#paint0_linear_6705_97942)" stroke-width="3.25359" stroke-linecap="round"/>
<path d="M15.457 157.171C17.9224 156.908 21.0359 154.798 22.4182 149.263C23.9977 142.938 28.8844 141.588 32.9451 141.72" stroke="url(#paint1_linear_6705_97942)" stroke-width="3.25359" stroke-linecap="round"/>
<circle cx="68.7276" cy="166.526" r="4.47368" fill="#41C923"/>
<circle cx="160.646" cy="106.335" r="4.47368" fill="#41C923"/>
<circle cx="145.194" cy="28.2489" r="6.10048" fill="#41C923"/>
<circle cx="146.817" cy="46.1436" r="4.47368" fill="#41C923"/>
<circle cx="77.6807" cy="12.794" r="4.47368" fill="#41C923"/>
<circle cx="4.46978" cy="89.254" r="4.47368" fill="#41C923"/>
<circle cx="11.3855" cy="110.808" r="2.44019" fill="#41C923"/>
<circle cx="88.6628" cy="3.44019" r="2.44019" fill="#41C923"/>
<path d="M15.8654 2.21973C17.8989 14.014 20.7458 35.8944 15.8654 29.0618C9.76493 20.5212 13.0185 15.6408 22.3726 21.3346C29.8558 25.8896 33.8956 32.9933 34.9801 35.9757" stroke="url(#paint2_linear_6705_97942)" stroke-width="3.25359" stroke-linecap="round"/>
<path d="M78.5085 25.2404C82.5837 22.2011 88.1717 22.2011 92.2469 25.2404L95.3679 27.5681C97.8519 29.4206 100.979 30.1913 104.039 29.7053L107.884 29.0947C112.905 28.2974 117.853 30.8943 120.049 35.4793L121.731 38.9907C123.069 41.7854 125.48 43.921 128.416 44.9129L132.104 46.1592C136.921 47.7864 140.095 52.3853 139.909 57.4657L139.766 61.3564C139.652 64.4531 140.794 67.4643 142.933 69.7069L145.62 72.5245C149.128 76.2037 149.802 81.7509 147.276 86.1628L145.341 89.5415C143.801 92.2307 143.413 95.4278 144.265 98.4072L145.334 102.151C146.731 107.039 144.75 112.264 140.463 114.996L137.18 117.089C134.567 118.755 132.737 121.405 132.106 124.439L131.314 128.251C130.279 133.228 126.096 136.934 121.03 137.361L117.151 137.689C114.063 137.949 111.211 139.446 109.243 141.839L106.77 144.846C103.54 148.772 98.1146 150.109 93.4304 148.134L89.8431 146.621C86.988 145.416 83.7674 145.416 80.9123 146.621L77.325 148.134C72.6409 150.109 67.2152 148.772 63.9858 144.846L61.5125 141.839C59.5441 139.446 56.6924 137.949 53.6047 137.689L49.7251 137.361C44.6593 136.934 40.4766 133.228 39.4417 128.251L38.6492 124.439C38.0184 121.405 36.1889 118.755 33.5759 117.089L30.2928 114.996C26.0059 112.264 24.0244 107.039 25.4211 102.151L26.4908 98.4072C27.3421 95.4278 26.9539 92.2307 25.4143 89.5415L23.4798 86.1628C20.9539 81.7509 21.6274 76.2036 25.1358 72.5245L27.8226 69.7069C29.9611 67.4643 31.1031 64.4531 30.9895 61.3564L30.8468 57.4657C30.6605 52.3853 33.8349 47.7864 38.6512 46.1592L42.3397 44.9129C45.2754 43.921 47.686 41.7854 49.0245 38.9907L50.7063 35.4793C52.9022 30.8943 57.8502 28.2974 62.871 29.0947L66.7162 29.7053C69.7766 30.1913 72.9036 29.4206 75.3875 27.5681L78.5085 25.2404Z" fill="url(#paint3_linear_6705_97942)"/>
<path fill-rule="evenodd" clip-rule="evenodd" d="M104.796 71.7603C105.372 72.3366 105.696 73.1183 105.696 73.9332C105.696 74.7482 105.372 75.5298 104.796 76.1062L81.7591 99.143C81.4547 99.4475 81.0932 99.6891 80.6954 99.8539C80.2976 100.019 79.8713 100.103 79.4407 100.103C79.0101 100.103 78.5837 100.019 78.1859 99.8539C77.7881 99.6891 77.4267 99.4475 77.1222 99.143L65.6766 87.6994C65.383 87.4159 65.1489 87.0767 64.9878 86.7017C64.8267 86.3268 64.7419 85.9235 64.7384 85.5154C64.7349 85.1073 64.8126 84.7026 64.9672 84.3248C65.1217 83.9471 65.3499 83.604 65.6385 83.3154C65.9271 83.0268 66.2702 82.7986 66.6479 82.644C67.0257 82.4895 67.4304 82.4117 67.8385 82.4153C68.2466 82.4188 68.6499 82.5036 69.0249 82.6647C69.3998 82.8258 69.739 83.0599 70.0225 83.3535L79.4397 92.7706L100.448 71.7603C100.733 71.4747 101.072 71.2481 101.445 71.0935C101.818 70.9389 102.218 70.8594 102.622 70.8594C103.026 70.8594 103.426 70.9389 103.799 71.0935C104.172 71.2481 104.511 71.4747 104.796 71.7603Z" fill="white"/>
<defs>
<linearGradient id="paint0_linear_6705_97942" x1="152.716" y1="134.352" x2="152.716" y2="155.339" gradientUnits="userSpaceOnUse">
<stop stop-color="#99FFA3"/>
<stop offset="1" stop-color="#68EE76"/>
</linearGradient>
<linearGradient id="paint1_linear_6705_97942" x1="24.2011" y1="141.711" x2="24.2011" y2="157.171" gradientUnits="userSpaceOnUse">
<stop stop-color="#99FFA3"/>
<stop offset="1" stop-color="#68EE76"/>
</linearGradient>
<linearGradient id="paint2_linear_6705_97942" x1="23.8689" y1="2.21973" x2="23.8689" y2="35.9757" gradientUnits="userSpaceOnUse">
<stop stop-color="#99FFA3"/>
<stop offset="1" stop-color="#68EE76"/>
</linearGradient>
<linearGradient id="paint3_linear_6705_97942" x1="85.3777" y1="22.9609" x2="85.3777" y2="149.037" gradientUnits="userSpaceOnUse">
<stop stop-color="#00CC25"/>
<stop offset="0.0001" stop-color="#57F936"/>
<stop offset="1" stop-color="#009B07"/>
</linearGradient>
</defs>
</svg>
