<svg width="24" height="24" viewBox="0 0 24 24" fill="none" xmlns="http://www.w3.org/2000/svg">
<rect width="24" height="24" rx="5.55556" fill="white"/>
<path d="M12.2478 5.17138C12.1936 5.11706 12.1292 5.07396 12.0583 5.04455C11.9874 5.01514 11.9115 5 11.8347 5C11.758 5 11.682 5.01514 11.6112 5.04455C11.5403 5.07396 11.4759 5.11706 11.4217 5.17138C9.97149 6.61928 8.36843 7.3333 6.58336 7.3333C6.42864 7.3333 6.28026 7.39476 6.17086 7.50417C6.06146 7.61357 6 7.76195 6 7.91666V11.418C6 15.1736 7.91458 17.7264 11.6492 18.9701C11.7689 19.01 11.8982 19.01 12.0179 18.9701C15.7514 17.7264 17.6671 15.1736 17.6671 11.418V7.91666C17.6671 7.76195 17.6057 7.61357 17.4963 7.50417C17.3869 7.39476 17.2385 7.3333 17.0838 7.3333C15.2975 7.3333 13.6945 6.62161 12.2478 5.17138ZM15.1634 9.83824C15.2727 9.94763 15.3342 10.096 15.3342 10.2507C15.3342 10.4054 15.2727 10.5537 15.1634 10.6631L11.6632 14.1632C11.609 14.2176 11.5447 14.2607 11.4738 14.2901C11.4029 14.3195 11.3269 14.3346 11.2502 14.3346C11.1735 14.3346 11.0975 14.3195 11.0266 14.2901C10.9558 14.2607 10.8914 14.2176 10.8372 14.1632L9.08713 12.4132C8.97759 12.3036 8.91605 12.1551 8.91605 12.0002C8.91605 11.8452 8.97759 11.6967 9.08713 11.5871C9.19666 11.4776 9.34523 11.4161 9.50014 11.4161C9.65505 11.4161 9.80362 11.4776 9.91316 11.5871L11.2502 12.9254L14.3373 9.83824C14.3915 9.78391 14.4559 9.74081 14.5268 9.7114C14.5976 9.68199 14.6736 9.66686 14.7504 9.66686C14.8271 9.66686 14.9031 9.68199 14.9739 9.7114C15.0448 9.74081 15.1092 9.78391 15.1634 9.83824Z" fill="#B01116"/>
</svg>
