<svg width="32" height="32" viewBox="0 0 32 32" fill="none" xmlns="http://www.w3.org/2000/svg">
<rect width="32" height="32" rx="16" fill="#F5BEC0"/>
<path fill-rule="evenodd" clip-rule="evenodd" d="M15.2033 9.71279C15.2554 9.9693 15.0896 10.2195 14.8331 10.2715C12.5437 10.7362 10.7391 12.5407 10.2744 14.8302C10.2223 15.0867 9.97219 15.2524 9.71568 15.2003C9.45917 15.1483 9.29343 14.8981 9.3455 14.6416C9.88596 11.9791 11.9821 9.88303 14.6446 9.3426C14.9011 9.29054 15.1512 9.45628 15.2033 9.71279Z" fill="#B01116"/>
<path fill-rule="evenodd" clip-rule="evenodd" d="M9.71578 16.799C9.97229 16.747 10.2224 16.9127 10.2745 17.1692C10.7392 19.4587 12.5438 21.2632 14.8332 21.7279C15.0897 21.7799 15.2555 22.0301 15.2034 22.2866C15.1513 22.5431 14.9012 22.7088 14.6447 22.6568C11.9822 22.1164 9.88607 20.0203 9.3456 17.3578C9.29353 17.1013 9.45927 16.8511 9.71578 16.799Z" fill="#B01116"/>
<path fill-rule="evenodd" clip-rule="evenodd" d="M16.8019 9.71276C16.854 9.45624 17.1041 9.29051 17.3606 9.34257C20.0232 9.88299 22.1192 11.9791 22.6597 14.6416C22.7118 14.8981 22.546 15.1482 22.2895 15.2003C22.033 15.2524 21.7829 15.0866 21.7308 14.8301C21.2661 12.5407 19.4615 10.7362 17.1721 10.2715C16.9156 10.2194 16.7498 9.96927 16.8019 9.71276Z" fill="#B01116"/>
<path fill-rule="evenodd" clip-rule="evenodd" d="M22.2895 16.799C22.546 16.8511 22.7118 17.1013 22.6597 17.3578C22.1192 20.0203 20.0232 22.1164 17.3606 22.6568C17.1041 22.7088 16.854 22.5431 16.8019 22.2866C16.7498 22.0301 16.9156 21.7799 17.1721 21.7279C19.4615 21.2632 21.2661 19.4587 21.7308 17.1692C21.7829 16.9127 22.033 16.747 22.2895 16.799Z" fill="#B01116"/>
<path fill-rule="evenodd" clip-rule="evenodd" d="M16.0026 21.0549C18.7945 21.0549 21.0578 18.7916 21.0578 15.9997C21.0578 13.2078 18.7945 10.9445 16.0026 10.9445C13.2106 10.9445 10.9474 13.2078 10.9474 15.9997C10.9474 18.7916 13.2106 21.0549 16.0026 21.0549ZM13.9631 17.6922C14.1189 17.4819 14.4158 17.4378 14.626 17.5936C15.0191 17.885 15.4929 18.0534 16.0026 18.0534C16.5122 18.0534 16.986 17.885 17.3791 17.5936C17.5894 17.4378 17.8862 17.4819 18.042 17.6922C18.1979 17.9024 18.1538 18.1993 17.9435 18.3551C17.3962 18.7608 16.7264 19.0012 16.0026 19.0012C15.2787 19.0012 14.6089 18.7608 14.0616 18.3551C13.8513 18.1993 13.8072 17.9024 13.9631 17.6922ZM18.2142 14.9334C18.2142 15.3914 17.9667 15.7627 17.6613 15.7627C17.3559 15.7627 17.1084 15.3914 17.1084 14.9334C17.1084 14.4753 17.3559 14.104 17.6613 14.104C17.9667 14.104 18.2142 14.4753 18.2142 14.9334ZM14.3438 15.7627C14.6492 15.7627 14.8967 15.3914 14.8967 14.9334C14.8967 14.4753 14.6492 14.104 14.3438 14.104C14.0385 14.104 13.7909 14.4753 13.7909 14.9334C13.7909 15.3914 14.0385 15.7627 14.3438 15.7627Z" fill="#B01116"/>
</svg>
