<svg width="280" height="319" viewBox="0 0 280 319" fill="none" xmlns="http://www.w3.org/2000/svg">
<rect width="279" height="319" rx="16" fill="url(#paint0_linear_5996_84550)"/>
<g clip-path="url(#clip0_5996_84550)">
<path d="M481.04 957.067C477.321 944.423 469.315 933.048 460.259 923.292C440.265 901.898 414.584 886.586 393.89 865.848C373.196 845.111 357.315 815.492 364.752 787.186C368.821 771.742 379.583 757.83 379.496 741.861C379.409 724.798 366.633 710.055 351.933 701.436C337.19 692.773 320.346 688.661 304.552 682.186C267.54 666.917 245.271 640.842 222.521 609.43C201.521 580.38 175.14 556.93 137.865 553.255C129.377 552.423 120.54 552.555 112.796 549.055C91.271 539.255 89.9585 508.498 73.421 491.655C62.3522 480.367 45.4648 476.43 34.0898 465.405C12.5647 444.536 17.946 406.43 -2.39771 384.38C-14.9102 370.817 -34.204 366.53 -50.7852 358.48C-67.3665 350.43 -83.4227 333.586 -78.479 315.823C-75.854 306.417 -67.979 299.592 -60.629 293.161C-40.8978 275.923 -20.554 252.998 -24.9727 227.186C-28.429 206.973 -46.104 192.536 -55.4665 174.292C-75.2852 135.617 -59.1852 78.3484 -94.7977 53.4109C-110.679 42.2984 -133.779 41.1172 -144.673 25.1047C-149.791 17.6234 -151.06 8.26092 -153.729 -0.401577C-156.091 -8.10158 -159.723 -15.3204 -164.36 -21.8829C-173.548 -34.9641 -193.498 -22.1453 -185.448 -8.27658L-167.335 22.8734C-162.041 31.9296 -156.66 41.2046 -148.741 48.1171C-133.341 61.5921 -109.935 64.9172 -97.5102 81.1922C-80.4915 103.461 -93.0915 136.317 -84.2102 162.917C-74.5852 191.705 -40.0228 213.361 -46.1915 243.067C-52.7977 274.83 -102.016 284.848 -105.166 317.18C-107.091 337.042 -89.679 353.317 -72.3102 363.161C-54.9415 373.005 -34.9477 381.011 -24.6227 398.073C-9.31023 423.405 -19.9415 461.598 2.50227 480.936C13.7023 490.605 29.5835 491.873 43.5398 496.817C71.671 506.792 92.7585 534.136 95.2523 563.886C96.4335 578.061 93.7647 592.761 98.1835 606.323C104.133 624.742 121.458 636.642 137.733 647.142C190.233 681.136 242.734 715.173 295.234 749.167C303.24 754.373 312.165 759.798 321.659 758.617C331.152 757.436 339.29 745.711 333.515 738.142C330.19 733.767 324.108 732.805 318.684 731.886C290.508 727.205 263.602 715.13 241.421 697.192C216.571 677.111 197.015 649.505 167.921 636.292C155.933 630.867 142.721 628.111 131.302 621.548C119.884 614.986 109.996 602.998 111.615 589.917C114.065 569.88 141.846 562.398 159.915 571.455C177.984 580.511 188.746 599.105 200.558 615.511C231.358 658.43 275.459 691.723 325.202 709.573C338.852 714.473 354.733 719.898 359.677 733.548C365.89 750.786 350.49 767.455 344.146 784.604C332.29 816.936 354.034 852.111 379.759 875.036C405.484 897.961 436.94 916.073 454.134 945.955C458.99 954.442 462.621 964.154 461.265 973.823C459.909 983.492 452.296 992.767 442.54 993.336C430.421 994.08 421.627 982.486 415.196 972.205C389.952 931.911 364.709 891.617 339.421 851.323C319.34 819.255 297.29 785.436 262.727 769.992C247.852 763.342 231.052 760.367 218.102 750.436C202.965 738.798 193.033 717.842 174.09 715.479C157.115 713.336 140.534 727.905 124.083 723.267C111.615 719.723 104.746 706.642 99.7147 694.698C74.7335 635.636 57.1898 570.273 11.0773 525.692C2.67726 517.555 -7.34146 509.942 -19.0227 509.023C-30.7039 508.105 -43.6978 516.592 -43.5665 528.273C-43.5228 534.311 -40.1102 539.823 -36.479 544.636C-36.3915 544.767 -36.2602 544.898 -36.1727 545.03C-30.004 553.08 -17.7102 544.417 -23.179 535.886C-25.5415 532.167 -22.0415 527.53 -17.8415 528.755C-9.48523 531.161 -2.00395 538.686 3.72729 545.861C40.871 592.455 67.821 647.186 82.0835 705.023C86.4585 722.742 92.7585 744.18 110.521 748.38C122.596 751.267 135.021 744.398 147.402 745.142C164.465 746.192 176.977 760.761 191.065 770.473C218.408 789.286 255.421 790.773 281.234 811.642C299.346 826.298 309.409 848.392 320.696 868.736C341.696 906.536 368.908 940.486 395.99 974.217C412.483 994.78 436.896 1017.66 461.308 1007.82C476.752 1001.6 484.802 983.23 483.052 966.692C482.615 963.498 481.958 960.217 481.04 957.067Z" fill="#B01116" fill-opacity="0.14"/>
<path d="M577.109 683.542C574.878 669.629 568.097 656.242 559.347 645.042C546.703 628.811 530.253 616.036 514.897 602.342C469.09 561.392 432.472 510.861 385.703 470.961C344.14 435.523 294.79 408.661 259.615 366.879C242.072 346.011 227.897 321.379 205.103 306.417C169.884 283.361 123.553 289.267 82.6905 299.417C68.5592 302.917 53.728 306.811 39.728 302.873C25.728 298.892 13.828 283.623 19.1655 270.104C24.4155 256.804 42.0467 253.479 56.1342 256.017C56.2655 256.061 56.3967 256.061 56.5717 256.104C67.5967 258.161 74.6405 244.686 66.5467 236.898C48.3905 219.442 32.5092 199.667 19.4717 178.142C16.0592 172.542 12.7342 166.679 9.27798 160.817C2.32172 149.048 -15.6158 157.798 -10.6283 170.486C-1.00328 195.204 3.59046 220.842 -3.14704 246.217C-7.65329 263.104 -16.797 281.917 -7.56578 296.748C-2.62203 304.667 6.43423 308.954 15.1842 312.236C50.4467 325.536 88.9467 330.217 126.353 325.754C149.759 322.954 174.697 316.873 195.959 327.067C212.147 334.811 222.734 350.561 233.19 365.129C250.516 389.192 269.94 412.161 293.172 430.754C304.328 439.679 316.709 448.736 330.14 453.811C343.09 458.667 350.484 465.142 360.765 474.854C410.859 522.148 459.247 571.236 505.884 621.986C521.284 638.742 536.465 655.629 551.428 672.736C556.197 678.161 560.922 683.586 565.603 689.011C569.934 693.998 578.159 690.236 577.109 683.717C577.109 683.673 577.109 683.629 577.109 683.542Z" fill="#B01116" fill-opacity="0.14"/>
<path d="M420.969 120.828C422.85 100.047 404.694 82.1096 385.488 73.5346C365.931 64.8284 343.969 61.9847 325.244 51.5722C299.388 37.2222 282.632 10.1409 257.125 -4.82164C242.644 -13.3091 225.756 -17.5966 212.238 -27.5716C186.119 -46.8216 177.544 -83.1778 152.169 -103.434C136.419 -115.99 114.019 -122.815 106.538 -141.54C104.831 -145.784 104.306 -151.209 107.588 -154.403C109.731 -156.503 112.925 -157.028 115.9 -157.29C147.619 -160.222 178.813 -144.865 202.35 -123.384C225.888 -101.903 243.213 -74.6466 261.019 -48.1778C276.681 -24.9466 293.307 -1.75908 314.657 16.1347C319.294 20.0284 325.944 14.6472 323.1 9.26595C323.057 9.2222 323.057 9.17842 323.013 9.13467C301.663 -30.6778 272.7 -65.7653 243.913 -100.547C228.425 -119.272 212.544 -138.347 192.069 -151.384C169.1 -165.997 141.625 -172.122 114.456 -174.309C105.4 -175.009 94.3315 -174.265 90.0002 -166.259C88.119 -162.715 88.0752 -158.472 88.5127 -154.49C90.919 -133.928 105.269 -116.865 120.581 -102.953C135.894 -89.0403 153.088 -76.5716 164.375 -59.2466C173.081 -45.8591 178.025 -29.9779 188.788 -18.1654C209.963 5.15335 246.756 6.50969 266.619 31.1409C290.55 60.8034 325.857 66.9284 359.982 80.0097C365.232 82.0222 370.394 84.2097 375.425 86.7034C385.094 91.5159 394.631 98.0347 399.05 107.922C403.425 117.766 400.494 131.503 390.563 135.747C384.044 138.547 376.475 136.71 370.044 133.778C356.875 127.828 346.113 117.722 334.388 109.235C310.588 91.9972 282.631 81.3221 258.175 65.0034C232.319 47.7222 210.838 24.4472 184.588 7.7347C166.781 -3.59656 146.832 -11.9528 131.257 -26.1716C87.069 -66.5966 89.6065 -142.984 42.4002 -179.865C25.8627 -192.772 5.21274 -199.028 -15.0435 -204.584C-22.131 -206.553 -32.6747 -206.29 -33.4622 -198.94C-33.681 -196.709 -32.9373 -194.478 -31.5373 -192.728C-18.806 -176.672 2.63148 -171.99 19.7815 -161.272C70.8377 -129.422 74.6877 -52.6841 121.369 -14.7529C133.356 -4.99663 147.531 1.56595 160.919 9.26595C188.438 25.0597 212.894 45.5784 238.138 64.8284C276.638 94.1409 317.281 120.522 357.925 146.86C372.581 156.397 387.982 166.678 395.507 182.472C401.019 194.066 401.675 207.366 400.888 220.141C399.75 238.778 395.769 257.241 389.163 274.697C387.588 278.853 385.969 283.841 388.594 287.428C391.132 290.928 396.644 290.928 400.275 288.566C403.863 286.203 405.963 282.135 407.713 278.197C419.569 251.553 422.588 221.103 416.2 192.666C413.269 179.672 408.413 166.503 410.732 153.422C412.657 142.485 419.438 132.816 420.794 121.791C420.882 121.528 420.925 121.178 420.969 120.828Z" fill="#B01116" fill-opacity="0.14"/>
<path d="M481.04 432.068C477.321 419.424 469.315 408.049 460.259 398.293C440.265 376.899 414.584 361.586 393.89 340.849C373.196 320.111 357.315 290.493 364.752 262.186C368.821 246.743 379.583 232.83 379.496 216.861C379.409 199.799 366.633 185.055 351.933 176.436C337.19 167.774 320.346 163.661 304.552 157.186C267.54 141.918 245.271 115.843 222.521 84.4301C201.521 55.3801 175.14 31.9301 137.865 28.2551C129.377 27.4239 120.54 27.5551 112.796 24.0551C91.271 14.2551 89.9585 -16.5011 73.421 -33.3448C62.3522 -44.6324 45.4648 -48.5699 34.0898 -59.5949C12.5647 -80.4636 17.946 -118.57 -2.39771 -140.62C-14.9102 -154.182 -34.204 -158.47 -50.7852 -166.52C-67.3665 -174.57 -83.4227 -191.414 -78.479 -209.176C-75.854 -218.582 -67.979 -225.407 -60.629 -231.839C-40.8978 -249.076 -20.554 -272.001 -24.9727 -297.814C-28.429 -318.026 -46.104 -332.464 -55.4665 -350.707C-75.2852 -389.382 -59.1852 -446.651 -94.7977 -471.589C-110.679 -482.701 -133.779 -483.882 -144.673 -499.895C-149.791 -507.376 -151.06 -516.739 -153.729 -525.401C-156.091 -533.101 -159.723 -540.32 -164.36 -546.882C-173.548 -559.964 -193.498 -547.145 -185.448 -533.276L-167.335 -502.126C-162.041 -493.07 -156.66 -483.795 -148.741 -476.882C-133.341 -463.407 -109.935 -460.082 -97.5102 -443.807C-80.4915 -421.539 -93.0915 -388.682 -84.2102 -362.082C-74.5852 -333.295 -40.0228 -311.639 -46.1915 -281.932C-52.7977 -250.17 -102.016 -240.151 -105.166 -207.82C-107.091 -187.957 -89.679 -171.682 -72.3102 -161.839C-54.9415 -151.995 -34.9477 -143.989 -24.6227 -126.926C-9.31023 -101.595 -19.9415 -63.4011 2.50227 -44.0636C13.7023 -34.3949 29.5835 -33.1261 43.5398 -28.1824C71.671 -18.2073 92.7585 9.13641 95.2523 38.8864C96.4335 53.0614 93.7647 67.7614 98.1835 81.3239C104.133 99.7427 121.458 111.643 137.733 122.143C190.233 156.136 242.734 190.174 295.234 224.168C303.24 229.374 312.165 234.799 321.659 233.618C331.152 232.436 339.29 220.711 333.515 213.143C330.19 208.768 324.108 207.805 318.684 206.886C290.508 202.205 263.602 190.13 241.421 172.193C216.571 152.111 197.015 124.505 167.921 111.293C155.933 105.868 142.721 103.111 131.302 96.549C119.884 89.9865 109.996 77.9989 111.615 64.9177C114.065 44.8802 141.846 37.3989 159.915 46.4552C177.984 55.5114 188.746 74.1052 200.558 90.5114C231.358 133.43 275.459 166.724 325.202 184.574C338.852 189.474 354.733 194.899 359.677 208.549C365.89 225.786 350.49 242.455 344.146 259.605C332.29 291.936 354.034 327.111 379.759 350.036C405.484 372.961 436.94 391.074 454.134 420.955C458.99 429.443 462.621 439.155 461.265 448.824C459.909 458.493 452.296 467.768 442.54 468.38C430.421 469.124 421.627 457.53 415.196 447.249C389.952 406.955 364.709 366.661 339.421 326.368C319.34 294.299 297.29 260.48 262.727 245.036C247.852 238.386 231.052 235.411 218.102 225.48C202.965 213.843 193.033 192.886 174.09 190.524C157.115 188.38 140.534 202.949 124.083 198.311C111.615 194.768 104.746 181.686 99.7147 169.743C74.7335 110.68 57.1898 45.3177 11.0773 0.73645C2.67726 -7.40106 -7.34146 -15.0136 -19.0227 -15.9324C-30.7039 -16.8511 -43.6978 -8.36359 -43.5665 3.31763C-43.5228 9.35516 -40.1102 14.8676 -36.479 19.6801C-36.3915 19.8113 -36.2602 19.9427 -36.1727 20.0739C-30.004 28.1239 -17.7102 19.4614 -23.179 10.9301C-25.5415 7.21136 -22.0415 2.57391 -17.8415 3.79895C-9.48523 6.2052 -2.00395 13.7301 3.72729 20.9052C40.871 67.4989 67.821 122.23 82.0835 180.068C86.4585 197.786 92.7585 219.224 110.521 223.424C122.596 226.311 135.021 219.443 147.402 220.186C164.465 221.236 176.977 235.805 191.065 245.518C218.408 264.33 255.421 265.818 281.234 286.686C299.346 301.343 309.409 323.436 320.696 343.78C341.696 381.58 368.908 415.53 395.99 449.261C412.483 469.824 436.896 492.705 461.308 482.861C476.752 476.649 484.802 458.274 483.052 441.736C482.615 438.499 481.958 435.218 481.04 432.068Z" fill="#B01116" fill-opacity="0.14"/>
<path d="M577.109 158.542C574.878 144.629 568.097 131.242 559.347 120.042C546.703 103.811 530.253 91.0356 514.897 77.3419C469.09 36.3919 432.472 -14.1394 385.703 -54.0394C344.14 -89.4769 294.79 -116.339 259.615 -158.121C242.072 -178.989 227.897 -203.621 205.103 -218.583C169.884 -241.639 123.553 -235.733 82.6905 -225.583C68.5592 -222.083 53.728 -218.189 39.728 -222.127C25.728 -226.108 13.828 -241.377 19.1655 -254.896C24.4155 -268.196 42.0467 -271.521 56.1342 -268.983C56.2655 -268.939 56.3967 -268.939 56.5717 -268.896C67.5967 -266.839 74.6405 -280.314 66.5467 -288.102C48.3905 -305.558 32.5092 -325.333 19.4717 -346.858C16.0592 -352.458 12.7342 -358.321 9.27798 -364.183C2.32172 -375.952 -15.6158 -367.202 -10.6283 -354.514C-1.00328 -329.796 3.59046 -304.158 -3.14704 -278.783C-7.65329 -261.896 -16.797 -243.083 -7.56578 -228.252C-2.62203 -220.333 6.43423 -216.046 15.1842 -212.764C50.4467 -199.464 88.9467 -194.783 126.353 -199.246C149.759 -202.046 174.697 -208.127 195.959 -197.933C212.147 -190.189 222.734 -174.439 233.19 -159.871C250.516 -135.808 269.94 -112.839 293.172 -94.2456C304.328 -85.3206 316.709 -76.2643 330.14 -71.1893C343.09 -66.3331 350.484 -59.858 360.765 -50.1455C410.859 -2.85181 459.247 46.2357 505.884 96.9857C521.284 113.742 536.465 130.629 551.428 147.736C556.197 153.161 560.922 158.586 565.603 164.011C569.934 168.998 578.159 165.236 577.109 158.717C577.109 158.673 577.109 158.629 577.109 158.542Z" fill="#B01116" fill-opacity="0.14"/>
<path d="M52.1093 158.542C49.878 144.629 43.0967 131.242 34.3467 120.042C21.703 103.811 5.25293 91.0356 -10.1033 77.3419C-55.9095 36.3919 -92.5283 -14.1394 -139.297 -54.0394C-180.86 -89.4769 -230.21 -116.339 -265.385 -158.121C-282.928 -178.989 -297.103 -203.621 -319.897 -218.583C-355.116 -241.639 -401.447 -235.733 -442.31 -225.583C-456.441 -222.083 -471.272 -218.189 -485.272 -222.127C-499.272 -226.108 -511.172 -241.377 -505.835 -254.896C-500.585 -268.196 -482.953 -271.521 -468.866 -268.983C-468.735 -268.939 -468.603 -268.939 -468.428 -268.896C-457.403 -266.839 -450.36 -280.314 -458.453 -288.102C-476.61 -305.558 -492.491 -325.333 -505.528 -346.858C-508.941 -352.458 -512.266 -358.321 -515.722 -364.183C-522.678 -375.952 -540.616 -367.202 -535.628 -354.514C-526.003 -329.796 -521.41 -304.158 -528.147 -278.783C-532.653 -261.896 -541.797 -243.083 -532.566 -228.252C-527.622 -220.333 -518.566 -216.046 -509.816 -212.764C-474.553 -199.464 -436.053 -194.783 -398.647 -199.246C-375.241 -202.046 -350.303 -208.127 -329.041 -197.933C-312.853 -190.189 -302.266 -174.439 -291.81 -159.871C-274.485 -135.808 -255.06 -112.839 -231.828 -94.2456C-220.672 -85.3206 -208.291 -76.2643 -194.86 -71.1893C-181.91 -66.3331 -174.516 -59.858 -164.235 -50.1455C-114.141 -2.85181 -65.7533 46.2357 -19.1158 96.9857C-3.71582 113.742 11.4655 130.629 26.428 147.736C31.1967 153.161 35.9217 158.586 40.603 164.011C44.9342 168.998 53.1592 165.236 52.1093 158.717C52.1093 158.673 52.1093 158.629 52.1093 158.542Z" fill="#B01116" fill-opacity="0.14"/>
<path d="M420.969 645.828C422.85 625.047 404.694 607.11 385.488 598.535C365.931 589.828 343.969 586.985 325.244 576.572C299.388 562.222 282.632 535.141 257.125 520.178C242.644 511.691 225.756 507.403 212.238 497.428C186.119 478.178 177.544 441.822 152.169 421.566C136.419 409.01 114.019 402.185 106.538 383.46C104.831 379.216 104.306 373.791 107.588 370.597C109.731 368.497 112.925 367.972 115.9 367.71C147.619 364.778 178.813 380.135 202.35 401.616C225.888 423.097 243.213 450.353 261.019 476.822C276.681 500.053 293.307 523.241 314.657 541.135C319.294 545.028 325.944 539.647 323.1 534.266C323.057 534.222 323.057 534.178 323.013 534.135C301.663 494.322 272.7 459.235 243.913 424.453C228.425 405.728 212.544 386.653 192.069 373.616C169.1 359.003 141.625 352.878 114.456 350.691C105.4 349.991 94.3315 350.735 90.0002 358.741C88.119 362.285 88.0752 366.528 88.5127 370.51C90.919 391.072 105.269 408.135 120.581 422.047C135.894 435.96 153.088 448.428 164.375 465.753C173.081 479.141 178.025 495.022 188.788 506.835C209.963 530.153 246.756 531.51 266.619 556.141C290.55 585.803 325.857 591.928 359.982 605.01C365.232 607.022 370.394 609.21 375.425 611.703C385.094 616.516 394.631 623.035 399.05 632.922C403.425 642.766 400.494 656.503 390.563 660.747C384.044 663.547 376.475 661.71 370.044 658.778C356.875 652.828 346.113 642.722 334.388 634.235C310.588 616.997 282.631 606.322 258.175 590.003C232.319 572.722 210.838 549.447 184.588 532.735C166.781 521.403 146.832 513.047 131.257 498.828C87.069 458.403 89.6065 382.016 42.4002 345.135C25.8627 332.228 5.21274 325.972 -15.0435 320.416C-22.131 318.447 -32.6747 318.71 -33.4622 326.06C-33.681 328.291 -32.9373 330.522 -31.5373 332.272C-18.806 348.328 2.63148 353.01 19.7815 363.728C70.8377 395.578 74.6877 472.316 121.369 510.247C133.356 520.003 147.531 526.566 160.919 534.266C188.438 550.06 212.894 570.578 238.138 589.828C276.638 619.141 317.281 645.522 357.925 671.86C372.581 681.397 387.982 691.678 395.507 707.472C401.019 719.066 401.675 732.366 400.888 745.141C399.75 763.778 395.769 782.241 389.163 799.697C387.588 803.853 385.969 808.841 388.594 812.428C391.132 815.928 396.644 815.928 400.275 813.566C403.906 811.203 405.963 807.135 407.713 803.197C419.569 776.553 422.588 746.103 416.2 717.666C413.269 704.672 408.413 691.503 410.732 678.422C412.657 667.485 419.438 657.816 420.794 646.791C420.882 646.528 420.925 646.178 420.969 645.828Z" fill="#B01116" fill-opacity="0.14"/>
<path d="M52.1093 158.542C49.878 144.629 43.0967 131.242 34.3467 120.042C21.703 103.811 5.25293 91.0356 -10.1033 77.3419C-55.9095 36.3919 -92.5283 -14.1394 -139.297 -54.0394C-180.86 -89.4769 -230.21 -116.339 -265.385 -158.121C-282.928 -178.989 -297.103 -203.621 -319.897 -218.583C-355.116 -241.639 -401.447 -235.733 -442.31 -225.583C-456.441 -222.083 -471.272 -218.189 -485.272 -222.127C-499.272 -226.108 -511.172 -241.377 -505.835 -254.896C-500.585 -268.196 -482.953 -271.521 -468.866 -268.983C-468.735 -268.939 -468.603 -268.939 -468.428 -268.896C-457.403 -266.839 -450.36 -280.314 -458.453 -288.102C-476.61 -305.558 -492.491 -325.333 -505.528 -346.858C-508.941 -352.458 -512.266 -358.321 -515.722 -364.183C-522.678 -375.952 -540.616 -367.202 -535.628 -354.514C-526.003 -329.796 -521.41 -304.158 -528.147 -278.783C-532.653 -261.896 -541.797 -243.083 -532.566 -228.252C-527.622 -220.333 -518.566 -216.046 -509.816 -212.764C-474.553 -199.464 -436.053 -194.783 -398.647 -199.246C-375.241 -202.046 -350.303 -208.127 -329.041 -197.933C-312.853 -190.189 -302.266 -174.439 -291.81 -159.871C-274.485 -135.808 -255.06 -112.839 -231.828 -94.2456C-220.672 -85.3206 -208.291 -76.2643 -194.86 -71.1893C-181.91 -66.3331 -174.516 -59.858 -164.235 -50.1455C-114.141 -2.85181 -65.7533 46.2357 -19.1158 96.9857C-3.71582 113.742 11.4655 130.629 26.428 147.736C31.1967 153.161 35.9217 158.586 40.603 164.011C44.9342 168.998 53.1592 165.236 52.1093 158.717C52.1093 158.673 52.1093 158.629 52.1093 158.542Z" fill="#B01116" fill-opacity="0.14"/>
</g>
<defs>
<linearGradient id="paint0_linear_5996_84550" x1="139.5" y1="0" x2="139.5" y2="319" gradientUnits="userSpaceOnUse">
<stop stop-color="#B01116"/>
<stop offset="0.45" stop-color="#830D10"/>
<stop offset="1" stop-color="#4A0709"/>
</linearGradient>
<clipPath id="clip0_5996_84550">
<rect y="2.56641" width="280" height="345.433" rx="23.7736" fill="white"/>
</clipPath>
</defs>
</svg>
