<svg width="16" height="16" viewBox="0 0 16 16" fill="none" xmlns="http://www.w3.org/2000/svg">
<path d="M8.0026 1.3335C4.32927 1.3335 1.33594 4.32683 1.33594 8.00016C1.33594 11.6735 4.32927 14.6668 8.0026 14.6668C11.6759 14.6668 14.6693 11.6735 14.6693 8.00016C14.6693 4.32683 11.6759 1.3335 8.0026 1.3335ZM11.1893 6.46683L7.40927 10.2468C7.31594 10.3402 7.18927 10.3935 7.05594 10.3935C6.9226 10.3935 6.79594 10.3402 6.7026 10.2468L4.81594 8.36016C4.6226 8.16683 4.6226 7.84683 4.81594 7.6535C5.00927 7.46016 5.32927 7.46016 5.5226 7.6535L7.05594 9.18683L10.4826 5.76016C10.6759 5.56683 10.9959 5.56683 11.1893 5.76016C11.3826 5.9535 11.3826 6.26683 11.1893 6.46683Z" fill="#24A148"/>
</svg>
