<svg width="84" height="91" viewBox="0 0 84 91" fill="none" xmlns="http://www.w3.org/2000/svg">
<g style="mix-blend-mode:luminosity">
<g filter="url(#filter0_d_5996_86205)">
<path d="M38.4948 7.93921C40.6638 6.68693 43.3362 6.68693 45.5052 7.93921L70.4948 22.367C72.6638 23.6193 74 25.9336 74 28.4381V57.2937C74 59.7982 72.6638 62.1126 70.4948 63.3648L45.5052 77.7926C43.3362 79.0449 40.6638 79.0449 38.4948 77.7926L13.5052 63.3648C11.3362 62.1126 10 59.7982 10 57.2937V28.4381C10 25.9336 11.3362 23.6193 13.5052 22.367L38.4948 7.93921Z" fill="url(#paint0_angular_5996_86205)"/>
</g>
<path d="M45.2803 11.0972C43.2397 9.91798 40.7255 9.91798 38.6849 11.0972L16.2163 24.0812C14.1758 25.2604 12.9188 27.4396 12.9188 29.7977V55.7657C12.9188 58.1239 14.1758 60.303 16.2163 61.4823L38.6849 74.4663C40.7255 75.6455 43.2397 75.6455 45.2803 74.4663L67.7489 61.4823C69.7895 60.303 71.0464 58.1239 71.0464 55.7657V29.7977C71.0464 27.4396 69.7895 25.2604 67.7489 24.0812L45.2803 11.0972Z" fill="url(#paint1_linear_5996_86205)" stroke="url(#paint2_linear_5996_86205)" stroke-width="0.584196"/>
<path fill-rule="evenodd" clip-rule="evenodd" d="M70.7557 46.689V55.7668C70.7557 58.0207 69.5543 60.1034 67.6041 61.2304L45.1356 74.2144C43.1854 75.3414 40.7826 75.3414 38.8325 74.2144L22.7344 64.9117C24.5475 52.6874 38.0176 43.1924 54.3655 43.1924C60.3601 43.1924 65.9678 44.4691 70.7557 46.689Z" fill="#006D3F" fill-opacity="0.58"/>
<path d="M22.3359 31.4801C22.6271 31.4667 22.8734 31.3547 23.0749 31.1442C23.2765 30.9337 23.3795 30.6829 23.3795 30.3918C23.3795 30.6829 23.478 30.9337 23.6796 31.1442C23.8811 31.3547 24.1275 31.4667 24.4186 31.4801C24.1275 31.4936 23.8811 31.6055 23.6796 31.8161C23.5821 31.9153 23.5054 32.0329 23.4539 32.1621C23.4024 32.2913 23.3771 32.4294 23.3795 32.5685C23.3795 32.2774 23.281 32.0266 23.0749 31.8161C22.8734 31.6055 22.6271 31.4936 22.3359 31.4801ZM23.3795 28.2554C23.9438 28.2285 24.4231 28.009 24.8172 27.597C25.2114 27.1849 25.4084 26.6967 25.4084 26.1279C25.4084 26.6967 25.6055 27.1849 25.9996 27.597C26.3938 28.009 26.873 28.224 27.4418 28.2554C27.0701 28.2733 26.7297 28.3763 26.4162 28.5734C26.1071 28.766 25.8608 29.0257 25.6772 29.3482C25.498 29.6707 25.4084 30.0156 25.4084 30.3918C25.4084 29.823 25.2114 29.3303 24.8172 28.9182C24.4231 28.5017 23.9438 28.2823 23.3795 28.2554ZM24.8665 33.0791C25.292 33.0612 25.6548 32.8955 25.9504 32.5864C26.246 32.2774 26.3938 31.9101 26.3938 31.4801C26.3938 31.9101 26.5416 32.2774 26.8372 32.5864C27.1328 32.8955 27.4911 33.0612 27.9166 33.0791C27.4911 33.097 27.1328 33.2627 26.8372 33.5718C26.5416 33.8808 26.3938 34.2481 26.3938 34.678C26.3938 34.2481 26.246 33.8808 25.9504 33.5718C25.6679 33.2714 25.2785 33.0944 24.8665 33.0791ZM27.9166 30.9561C28.3421 30.9382 28.7004 30.7725 28.996 30.4634C29.2916 30.1544 29.4349 29.7871 29.4349 29.3527C29.4349 29.7827 29.5827 30.1499 29.8783 30.459C30.1739 30.768 30.5367 30.9337 30.9622 30.9516C30.5367 30.9696 30.1739 31.1353 29.8783 31.4443C29.5827 31.7534 29.4349 32.1206 29.4349 32.5506C29.4349 32.1206 29.2871 31.7534 28.996 31.4443C28.7004 31.1398 28.3421 30.974 27.9166 30.9561Z" fill="white" fill-opacity="0.4"/>
<path d="M50.6719 58.9381C50.963 58.9247 51.2093 58.8127 51.4109 58.6022C51.6124 58.3917 51.7154 58.1409 51.7154 57.8498C51.7154 58.1409 51.814 58.3917 52.0155 58.6022C52.2171 58.8127 52.4634 58.9247 52.7545 58.9381C52.4634 58.9516 52.2171 59.0636 52.0155 59.2741C51.9181 59.3733 51.8414 59.4909 51.7898 59.6201C51.7383 59.7493 51.713 59.8875 51.7154 60.0265C51.7154 59.7354 51.6169 59.4846 51.4109 59.2741C51.2093 59.0636 50.963 58.9516 50.6719 58.9381ZM51.7154 55.7134C52.2798 55.6865 52.759 55.467 53.1532 55.055C53.5473 54.6429 53.7444 54.1547 53.7444 53.5859C53.7444 54.1547 53.9414 54.6429 54.3356 55.055C54.7297 55.467 55.2089 55.682 55.7778 55.7134C55.406 55.7313 55.0656 55.8343 54.7521 56.0314C54.4431 56.224 54.1967 56.4837 54.0131 56.8062C53.8339 57.1287 53.7444 57.4736 53.7444 57.8498C53.7444 57.281 53.5473 56.7883 53.1532 56.3763C52.759 55.9597 52.2798 55.7403 51.7154 55.7134ZM53.2024 60.5371C53.6279 60.5192 53.9907 60.3535 54.2863 60.0444C54.5819 59.7354 54.7297 59.3681 54.7297 58.9381C54.7297 59.3681 54.8775 59.7354 55.1731 60.0444C55.4687 60.3535 55.827 60.5192 56.2525 60.5371C55.827 60.555 55.4687 60.7207 55.1731 61.0298C54.8775 61.3388 54.7297 61.7061 54.7297 62.136C54.7297 61.7061 54.5819 61.3388 54.2863 61.0298C54.0039 60.7294 53.6144 60.5524 53.2024 60.5371ZM56.2525 58.4141C56.678 58.3962 57.0363 58.2305 57.3319 57.9215C57.6275 57.6124 57.7708 57.2451 57.7708 56.8107C57.7708 57.2407 57.9186 57.6079 58.2142 57.917C58.5098 58.226 58.8726 58.3917 59.2981 58.4096C58.8726 58.4276 58.5098 58.5933 58.2142 58.9023C57.9186 59.2114 57.7708 59.5786 57.7708 60.0086C57.7708 59.5786 57.623 59.2114 57.3319 58.9023C57.0363 58.5978 56.678 58.432 56.2525 58.4141Z" fill="white" fill-opacity="0.4"/>
<path d="M48.3359 24.1774C48.6271 24.164 48.8734 24.052 49.0749 23.8415C49.2765 23.631 49.3795 23.3802 49.3795 23.089C49.3795 23.3802 49.478 23.631 49.6796 23.8415C49.8811 24.052 50.1275 24.164 50.4186 24.1774C50.1275 24.1908 49.8811 24.3028 49.6796 24.5133C49.5821 24.6126 49.5054 24.7302 49.4539 24.8594C49.4024 24.9886 49.3771 25.1267 49.3795 25.2658C49.3795 24.9746 49.281 24.7238 49.0749 24.5133C48.8734 24.3028 48.6271 24.1908 48.3359 24.1774ZM49.3795 20.9526C49.9438 20.9258 50.4231 20.7063 50.8172 20.2943C51.2114 19.8822 51.4084 19.394 51.4084 18.8252C51.4084 19.394 51.6055 19.8822 51.9996 20.2943C52.3938 20.7063 52.873 20.9213 53.4418 20.9526C53.0701 20.9706 52.7297 21.0736 52.4162 21.2706C52.1071 21.4632 51.8608 21.723 51.6772 22.0455C51.498 22.368 51.4084 22.7128 51.4084 23.089C51.4084 22.5202 51.2114 22.0276 50.8172 21.6155C50.4231 21.199 49.9438 20.9795 49.3795 20.9526ZM50.8665 25.7764C51.292 25.7584 51.6548 25.5927 51.9504 25.2837C52.246 24.9746 52.3938 24.6074 52.3938 24.1774C52.3938 24.6074 52.5416 24.9746 52.8372 25.2837C53.1328 25.5927 53.4911 25.7584 53.9166 25.7764C53.4911 25.7943 53.1328 25.96 52.8372 26.269C52.5416 26.5781 52.3938 26.9453 52.3938 27.3753C52.3938 26.9453 52.246 26.5781 51.9504 26.269C51.6679 25.9687 51.2785 25.7916 50.8665 25.7764ZM53.9166 23.6534C54.3421 23.6355 54.7004 23.4698 54.996 23.1607C55.2916 22.8517 55.4349 22.4844 55.4349 22.05C55.4349 22.4799 55.5827 22.8472 55.8783 23.1562C56.1739 23.4653 56.5367 23.631 56.9622 23.6489C56.5367 23.6668 56.1739 23.8325 55.8783 24.1416C55.5827 24.4506 55.4349 24.8179 55.4349 25.2478C55.4349 24.8179 55.2871 24.4506 54.996 24.1416C54.7004 23.837 54.3421 23.6713 53.9166 23.6534Z" fill="white" fill-opacity="0.4"/>
<path d="M20.0391 53.5078C20.4757 53.4877 20.8453 53.3197 21.1476 53.0039C21.4499 52.6882 21.6044 52.312 21.6044 51.8753C21.6044 52.312 21.7522 52.6882 22.0545 53.0039C22.3569 53.3197 22.7264 53.4877 23.1631 53.5078C22.7264 53.528 22.3569 53.6959 22.0545 54.0117C21.9084 54.1605 21.7933 54.337 21.716 54.5308C21.6387 54.7245 21.6008 54.9318 21.6044 55.1403C21.6044 54.7037 21.4566 54.3274 21.1476 54.0117C20.8453 53.6959 20.4757 53.528 20.0391 53.5078ZM21.6044 48.6707C22.4509 48.6304 23.1698 48.3012 23.761 47.6831C24.3522 47.065 24.6478 46.3327 24.6478 45.4795C24.6478 46.3327 24.9434 47.065 25.5346 47.6831C26.1258 48.3012 26.8447 48.6236 27.6979 48.6707C27.1403 48.6975 26.6297 48.8521 26.1594 49.1477C25.6958 49.4365 25.3263 49.8262 25.0509 50.3099C24.7822 50.7936 24.6478 51.3109 24.6478 51.8753C24.6478 51.0221 24.3522 50.283 23.761 49.665C23.1698 49.0402 22.4509 48.711 21.6044 48.6707ZM23.8349 55.9062C24.4731 55.8794 25.0173 55.6308 25.4607 55.1672C25.9041 54.7037 26.1258 54.1528 26.1258 53.5078C26.1258 54.1528 26.3475 54.7037 26.7909 55.1672C27.2343 55.6308 27.7718 55.8794 28.41 55.9062C27.7718 55.9331 27.2343 56.1817 26.7909 56.6452C26.3475 57.1088 26.1258 57.6597 26.1258 58.3046C26.1258 57.6597 25.9041 57.1088 25.4607 56.6452C25.037 56.1947 24.4529 55.9292 23.8349 55.9062ZM28.41 52.7218C29.0482 52.6949 29.5857 52.4463 30.0291 51.9828C30.4725 51.5192 30.6875 50.9683 30.6875 50.3166C30.6875 50.9616 30.9092 51.5125 31.3526 51.976C31.796 52.4396 32.3402 52.6882 32.9784 52.7151C32.3402 52.7419 31.796 52.9905 31.3526 53.4541C30.9092 53.9176 30.6875 54.4685 30.6875 55.1135C30.6875 54.4685 30.4658 53.9176 30.0291 53.4541C29.5857 52.9972 29.0482 52.7486 28.41 52.7218Z" fill="white" fill-opacity="0.4"/>
<g filter="url(#filter1_i_5996_86205)">
<path d="M49.3123 47.3402C49.6966 47.3402 50.0083 47.6518 50.0083 48.0362V51.2866C50.0083 51.6709 49.6966 51.9826 49.3123 51.9826H35.1274C34.743 51.9826 34.4314 51.6709 34.4314 51.2865V48.0362C34.4314 47.6518 34.743 47.3402 35.1274 47.3402H39.1835C39.5678 47.3402 39.8795 47.0286 39.8795 46.6442V37.1613C39.8795 36.6981 39.1876 36.4126 38.8052 36.6743C38.3192 36.9812 37.7693 37.2753 37.1554 37.5567C36.5416 37.838 35.9277 38.0682 35.3138 38.2473C34.9756 38.346 34.6567 38.4174 34.3573 38.4617C33.977 38.518 33.6641 38.2042 33.6641 37.8199V34.416C33.6641 34.0316 33.9788 33.7204 34.3528 33.6316C34.6468 33.5617 34.9672 33.4505 35.3138 33.298C35.9789 32.9911 36.6311 32.633 37.2705 32.2237C37.9356 31.8145 38.4983 31.418 38.9587 31.0344C39.2464 30.7921 39.4714 30.5812 39.6336 30.4016C39.803 30.2141 40.0362 30.0752 40.289 30.0752H44.4397C44.8241 30.0752 45.1357 30.3868 45.1357 30.7712V46.6442C45.1357 47.0286 45.4473 47.3402 45.8317 47.3402H49.3123Z" fill="url(#paint3_linear_5996_86205)"/>
<path d="M49.3123 47.3402C49.6966 47.3402 50.0083 47.6518 50.0083 48.0362V51.2866C50.0083 51.6709 49.6966 51.9826 49.3123 51.9826H35.1274C34.743 51.9826 34.4314 51.6709 34.4314 51.2865V48.0362C34.4314 47.6518 34.743 47.3402 35.1274 47.3402H39.1835C39.5678 47.3402 39.8795 47.0286 39.8795 46.6442V37.1613C39.8795 36.6981 39.1876 36.4126 38.8052 36.6743C38.3192 36.9812 37.7693 37.2753 37.1554 37.5567C36.5416 37.838 35.9277 38.0682 35.3138 38.2473C34.9756 38.346 34.6567 38.4174 34.3573 38.4617C33.977 38.518 33.6641 38.2042 33.6641 37.8199V34.416C33.6641 34.0316 33.9788 33.7204 34.3528 33.6316C34.6468 33.5617 34.9672 33.4505 35.3138 33.298C35.9789 32.9911 36.6311 32.633 37.2705 32.2237C37.9356 31.8145 38.4983 31.418 38.9587 31.0344C39.2464 30.7921 39.4714 30.5812 39.6336 30.4016C39.803 30.2141 40.0362 30.0752 40.289 30.0752H44.4397C44.8241 30.0752 45.1357 30.3868 45.1357 30.7712V46.6442C45.1357 47.0286 45.4473 47.3402 45.8317 47.3402H49.3123Z" fill="#DAFFB7" fill-opacity="0.85"/>
</g>
<path d="M38.8832 36.7977L38.8832 36.7978L38.8877 36.7948C39.0252 36.7007 39.2373 36.6967 39.4272 36.7798C39.6176 36.8631 39.7334 37.0091 39.7334 37.1613V46.6442C39.7334 46.9479 39.4872 47.1941 39.1835 47.1941H35.1274C34.6623 47.1941 34.2853 47.5711 34.2853 48.0362V51.2865C34.2853 51.7516 34.6623 52.1286 35.1274 52.1286H49.3123C49.7773 52.1286 50.1543 51.7516 50.1543 51.2866V48.0362C50.1543 47.5711 49.7773 47.1941 49.3123 47.1941H45.8317C45.528 47.1941 45.2817 46.9479 45.2817 46.6442V30.7712C45.2817 30.3061 44.9047 29.9291 44.4397 29.9291H40.289C39.9822 29.9291 39.7125 30.0964 39.5252 30.3037C39.3692 30.4764 39.1498 30.6824 38.8649 30.9224C38.4112 31.3004 37.8546 31.6928 37.194 32.0993L37.194 32.0993L37.1918 32.1007C36.5581 32.5063 35.9122 32.8609 35.2538 33.1648C34.9138 33.3144 34.6023 33.4222 34.319 33.4895C33.8975 33.5896 33.518 33.9468 33.518 34.416V37.8199C33.518 38.2789 33.8964 38.6775 34.3787 38.6062C34.6857 38.5608 35.0111 38.4877 35.3547 38.3875C35.9758 38.2064 36.5963 37.9736 37.2163 37.6895C37.8351 37.4059 38.3909 37.1087 38.8832 36.7977Z" stroke="white" stroke-width="0.292098"/>
</g>
<defs>
<filter id="filter0_d_5996_86205" x="0.951911" y="0.735938" width="82.0962" height="89.8276" filterUnits="userSpaceOnUse" color-interpolation-filters="sRGB">
<feFlood flood-opacity="0" result="BackgroundImageFix"/>
<feColorMatrix in="SourceAlpha" type="matrix" values="0 0 0 0 0 0 0 0 0 0 0 0 0 0 0 0 0 0 127 0" result="hardAlpha"/>
<feOffset dy="2.78403"/>
<feGaussianBlur stdDeviation="4.52404"/>
<feComposite in2="hardAlpha" operator="out"/>
<feColorMatrix type="matrix" values="0 0 0 0 0.051416 0 0 0 0 0.051416 0 0 0 0 0.051416 0 0 0 0.32 0"/>
<feBlend mode="normal" in2="BackgroundImageFix" result="effect1_dropShadow_5996_86205"/>
<feBlend mode="normal" in="SourceGraphic" in2="effect1_dropShadow_5996_86205" result="shape"/>
</filter>
<filter id="filter1_i_5996_86205" x="33.375" y="29.7832" width="16.9219" height="22.4912" filterUnits="userSpaceOnUse" color-interpolation-filters="sRGB">
<feFlood flood-opacity="0" result="BackgroundImageFix"/>
<feBlend mode="normal" in="SourceGraphic" in2="BackgroundImageFix" result="shape"/>
<feColorMatrix in="SourceAlpha" type="matrix" values="0 0 0 0 0 0 0 0 0 0 0 0 0 0 0 0 0 0 127 0" result="hardAlpha"/>
<feOffset/>
<feGaussianBlur stdDeviation="1.46049"/>
<feComposite in2="hardAlpha" operator="arithmetic" k2="-1" k3="1"/>
<feColorMatrix type="matrix" values="0 0 0 0 0 0 0 0 0 0 0 0 0 0 0 0 0 0 0.2 0"/>
<feBlend mode="normal" in2="shape" result="effect1_innerShadow_5996_86205"/>
</filter>
<radialGradient id="paint0_angular_5996_86205" cx="0" cy="0" r="1" gradientUnits="userSpaceOnUse" gradientTransform="translate(42 42.8659) rotate(90) scale(35.8659 32)">
<stop stop-color="#11AF49"/>
<stop offset="0.54" stop-color="#21ED6A"/>
<stop offset="1" stop-color="#008D32"/>
</radialGradient>
<linearGradient id="paint1_linear_5996_86205" x1="41.9826" y1="10.5049" x2="41.9826" y2="75.0586" gradientUnits="userSpaceOnUse">
<stop stop-color="#00CC25"/>
<stop offset="0.0001" stop-color="#57F936"/>
<stop offset="1" stop-color="#009B07"/>
</linearGradient>
<linearGradient id="paint2_linear_5996_86205" x1="41.9826" y1="10.5049" x2="41.9826" y2="75.0586" gradientUnits="userSpaceOnUse">
<stop stop-color="#99FFA3"/>
<stop offset="1" stop-color="#68EE76"/>
</linearGradient>
<linearGradient id="paint3_linear_5996_86205" x1="38.7578" y1="22.8452" x2="45.729" y2="51.6656" gradientUnits="userSpaceOnUse">
<stop offset="0.205" stop-color="#43CF18"/>
<stop offset="1" stop-color="#B8FF2A"/>
</linearGradient>
</defs>
</svg>
