<svg width="144" height="157" viewBox="0 0 144 157" fill="none" xmlns="http://www.w3.org/2000/svg">
<g style="mix-blend-mode:luminosity">
<g filter="url(#filter0_d_6196_106454)">
<path d="M65.6551 12.6367C69.4349 10.4544 74.0917 10.4544 77.8714 12.6367L121.418 37.7785C125.198 39.9608 127.527 43.9937 127.527 48.3581V98.6419C127.527 103.006 125.198 107.039 121.418 109.221L77.8714 134.363C74.0917 136.546 69.4349 136.546 65.6551 134.363L22.1081 109.221C18.3284 107.039 16 103.006 16 98.6419V48.3581C16 43.9937 18.3284 39.9608 22.1081 37.7785L65.6551 12.6367Z" fill="url(#paint0_angular_6196_106454)"/>
</g>
<path d="M77.4818 18.1396C73.9258 16.0847 69.5446 16.0847 65.9886 18.1396L26.8349 40.7655C23.279 42.8204 21.0886 46.6178 21.0886 50.7272V95.9791C21.0886 100.088 23.279 103.886 26.8349 105.941L65.9886 128.567C69.5446 130.622 73.9258 130.622 77.4818 128.567L116.636 105.941C120.191 103.886 122.382 100.088 122.382 95.9791V50.7272C122.382 46.6178 120.191 42.8204 116.636 40.7655L77.4818 18.1396Z" fill="url(#paint1_linear_6196_106454)" stroke="url(#paint2_linear_6196_106454)" stroke-width="1.01802"/>
<path fill-rule="evenodd" clip-rule="evenodd" d="M121.873 80.1624V95.9814C121.873 99.9091 119.78 103.538 116.381 105.502L77.2277 128.128C73.8293 130.092 69.6423 130.092 66.2439 128.128L38.1914 111.917C41.3509 90.6154 64.8241 74.0693 93.3119 74.0693C103.758 74.0693 113.53 76.2941 121.873 80.1624Z" fill="#006D3F" fill-opacity="0.58"/>
<path d="M37.5 53.6569C38.0073 53.6334 38.4366 53.4383 38.7878 53.0715C39.139 52.7047 39.3185 52.2676 39.3185 51.7603C39.3185 52.2676 39.4902 52.7047 39.8414 53.0715C40.1927 53.4383 40.6219 53.6334 41.1292 53.6569C40.6219 53.6803 40.1927 53.8754 39.8414 54.2422C39.6716 54.4151 39.538 54.6201 39.4482 54.8453C39.3584 55.0704 39.3143 55.3111 39.3185 55.5534C39.3185 55.0461 39.1468 54.609 38.7878 54.2422C38.4366 53.8754 38.0073 53.6803 37.5 53.6569ZM39.3185 48.0374C40.3019 47.9905 41.1371 47.6081 41.8239 46.8901C42.5107 46.172 42.8541 45.3213 42.8541 44.3301C42.8541 45.3213 43.1975 46.172 43.8844 46.8901C44.5712 47.6081 45.4063 47.9827 46.3975 48.0374C45.7497 48.0686 45.1565 48.2481 44.6102 48.5915C44.0717 48.9271 43.6424 49.3798 43.3224 49.9418C43.0102 50.5037 42.8541 51.1047 42.8541 51.7603C42.8541 50.7691 42.5107 49.9105 41.8239 49.1925C41.1371 48.4666 40.3019 48.0842 39.3185 48.0374ZM41.9097 56.4432C42.6512 56.412 43.2834 56.1232 43.7985 55.5846C44.3136 55.0461 44.5712 54.4061 44.5712 53.6569C44.5712 54.4061 44.8287 55.0461 45.3439 55.5846C45.859 56.1232 46.4834 56.412 47.2248 56.4432C46.4834 56.4744 45.859 56.7632 45.3439 57.3017C44.8287 57.8402 44.5712 58.4802 44.5712 59.2295C44.5712 58.4802 44.3136 57.8402 43.7985 57.3017C43.3063 56.7783 42.6277 56.4698 41.9097 56.4432ZM47.2248 52.7437C47.9663 52.7125 48.5907 52.4237 49.1058 51.8852C49.6209 51.3466 49.8707 50.7066 49.8707 49.9496C49.8707 50.6988 50.1282 51.3388 50.6433 51.8774C51.1585 52.4159 51.7906 52.7047 52.5321 52.7359C51.7906 52.7671 51.1585 53.0559 50.6433 53.5944C50.1282 54.1329 49.8707 54.7729 49.8707 55.5222C49.8707 54.7729 49.6131 54.1329 49.1058 53.5944C48.5907 53.0637 47.9663 52.7749 47.2248 52.7437Z" fill="white" fill-opacity="0.4"/>
<path d="M86.8711 101.508C87.3784 101.485 87.8077 101.29 88.1589 100.923C88.5101 100.556 88.6896 100.119 88.6896 99.6118C88.6896 100.119 88.8613 100.556 89.2125 100.923C89.5638 101.29 89.993 101.485 90.5003 101.508C89.993 101.532 89.5638 101.727 89.2125 102.094C89.0427 102.267 88.9091 102.472 88.8193 102.697C88.7295 102.922 88.6854 103.163 88.6896 103.405C88.6896 102.898 88.5179 102.461 88.1589 102.094C87.8077 101.727 87.3784 101.532 86.8711 101.508ZM88.6896 95.8889C89.673 95.8421 90.5081 95.4597 91.195 94.7416C91.8818 94.0236 92.2252 93.1729 92.2252 92.1816C92.2252 93.1729 92.5686 94.0236 93.2554 94.7416C93.9423 95.4597 94.7774 95.8343 95.7686 95.8889C95.1208 95.9202 94.5276 96.0997 93.9813 96.4431C93.4428 96.7787 93.0135 97.2314 92.6935 97.7933C92.3813 98.3553 92.2252 98.9562 92.2252 99.6118C92.2252 98.6206 91.8818 97.7621 91.195 97.0441C90.5081 96.3182 89.673 95.9358 88.6896 95.8889ZM91.2808 104.295C92.0223 104.264 92.6545 103.975 93.1696 103.436C93.6847 102.898 93.9423 102.258 93.9423 101.508C93.9423 102.258 94.1998 102.898 94.715 103.436C95.2301 103.975 95.8545 104.264 96.5959 104.295C95.8545 104.326 95.2301 104.615 94.715 105.153C94.1998 105.692 93.9423 106.332 93.9423 107.081C93.9423 106.332 93.6847 105.692 93.1696 105.153C92.6774 104.63 91.9988 104.321 91.2808 104.295ZM96.5959 100.595C97.3374 100.564 97.9618 100.275 98.4769 99.7367C98.992 99.1982 99.2418 98.5582 99.2418 97.8011C99.2418 98.5504 99.4993 99.1904 100.014 99.7289C100.53 100.267 101.162 100.556 101.903 100.587C101.162 100.619 100.53 100.907 100.014 101.446C99.4993 101.985 99.2418 102.625 99.2418 103.374C99.2418 102.625 98.9842 101.985 98.4769 101.446C97.9618 100.915 97.3374 100.626 96.5959 100.595Z" fill="white" fill-opacity="0.4"/>
<path d="M82.7969 40.9332C83.3042 40.9098 83.7335 40.7147 84.0847 40.3479C84.4359 39.981 84.6154 39.544 84.6154 39.0366C84.6154 39.544 84.7871 39.981 85.1383 40.3479C85.4895 40.7147 85.9188 40.9098 86.4261 40.9332C85.9188 40.9566 85.4895 41.1518 85.1383 41.5186C84.9685 41.6915 84.8348 41.8965 84.7451 42.1216C84.6553 42.3467 84.6112 42.5875 84.6154 42.8298C84.6154 42.3225 84.4437 41.8854 84.0847 41.5186C83.7335 41.1518 83.3042 40.9566 82.7969 40.9332ZM84.6154 35.3137C85.5988 35.2669 86.4339 34.8845 87.1208 34.1664C87.8076 33.4484 88.151 32.5977 88.151 31.6064C88.151 32.5977 88.4944 33.4484 89.1812 34.1664C89.8681 34.8845 90.7032 35.2591 91.6944 35.3137C91.0466 35.345 90.4534 35.5245 89.9071 35.8679C89.3685 36.2035 88.9393 36.6562 88.6193 37.2181C88.3071 37.7801 88.151 38.381 88.151 39.0366C88.151 38.0454 87.8076 37.1869 87.1208 36.4689C86.4339 35.743 85.5988 35.3606 84.6154 35.3137ZM87.2066 43.7195C87.9481 43.6883 88.5803 43.3995 89.0954 42.861C89.6105 42.3225 89.8681 41.6825 89.8681 40.9332C89.8681 41.6825 90.1256 42.3225 90.6407 42.861C91.1559 43.3995 91.7802 43.6883 92.5217 43.7195C91.7802 43.7508 91.1559 44.0395 90.6407 44.5781C90.1256 45.1166 89.8681 45.7566 89.8681 46.5059C89.8681 45.7566 89.6105 45.1166 89.0954 44.5781C88.6032 44.0546 87.9246 43.7462 87.2066 43.7195ZM92.5217 40.0201C93.2632 39.9888 93.8875 39.7001 94.4027 39.1615C94.9178 38.623 95.1675 37.983 95.1675 37.2259C95.1675 37.9752 95.4251 38.6152 95.9402 39.1537C96.4553 39.6923 97.0875 39.981 97.829 40.0122C97.0875 40.0435 96.4553 40.3322 95.9402 40.8708C95.4251 41.4093 95.1675 42.0493 95.1675 42.7986C95.1675 42.0493 94.91 41.4093 94.4027 40.8708C93.8875 40.3401 93.2632 40.0513 92.5217 40.0201Z" fill="white" fill-opacity="0.4"/>
<path d="M33.4844 92.0439C34.2453 92.0088 34.8892 91.7161 35.4161 91.1658C35.9429 90.6156 36.2122 89.96 36.2122 89.199C36.2122 89.96 36.4697 90.6156 36.9965 91.1658C37.5234 91.7161 38.1673 92.0088 38.9282 92.0439C38.1673 92.079 37.5234 92.3717 36.9965 92.9219C36.7418 93.1813 36.5413 93.4888 36.4066 93.8265C36.272 94.1642 36.2059 94.5253 36.2122 94.8887C36.2122 94.1278 35.9546 93.4722 35.4161 92.9219C34.8892 92.3717 34.2453 92.079 33.4844 92.0439ZM36.2122 83.6147C37.6873 83.5444 38.94 82.9708 39.9702 81.8937C41.0004 80.8166 41.5155 79.5405 41.5155 78.0537C41.5155 79.5405 42.0307 80.8166 43.0609 81.8937C44.0911 82.9708 45.3438 83.5327 46.8306 83.6147C45.8589 83.6615 44.9692 83.9307 44.1497 84.4459C43.3419 84.9493 42.698 85.6283 42.218 86.4712C41.7497 87.3141 41.5155 88.2156 41.5155 89.199C41.5155 87.7122 41.0004 86.4244 39.9702 85.3473C38.94 84.2586 37.6873 83.6849 36.2122 83.6147ZM40.099 96.2234C41.2112 96.1765 42.1594 95.7434 42.9321 94.9356C43.7048 94.1278 44.0911 93.1678 44.0911 92.0439C44.0911 93.1678 44.4775 94.1278 45.2502 94.9356C46.0228 95.7434 46.9594 96.1765 48.0716 96.2234C46.9594 96.2702 46.0228 96.7034 45.2502 97.5112C44.4775 98.319 44.0911 99.279 44.0911 100.403C44.0911 99.279 43.7048 98.319 42.9321 97.5112C42.1938 96.726 41.176 96.2633 40.099 96.2234ZM48.0716 90.6741C49.1838 90.6273 50.1204 90.1941 50.8931 89.3863C51.6657 88.5785 52.0404 87.6185 52.0404 86.4829C52.0404 87.6068 52.4267 88.5668 53.1994 89.3746C53.9721 90.1824 54.9203 90.6156 56.0325 90.6624C54.9203 90.7092 53.9721 91.1424 53.1994 91.9502C52.4267 92.758 52.0404 93.718 52.0404 94.8419C52.0404 93.718 51.654 92.758 50.8931 91.9502C50.1204 91.1541 49.1838 90.721 48.0716 90.6741Z" fill="white" fill-opacity="0.4"/>
<g filter="url(#filter1_i_6196_106454)">
<path d="M53.7852 92.48C53.2329 92.48 52.7838 92.0321 52.7963 91.4799C52.8415 89.4761 53.0244 87.6495 53.3452 86C53.7185 84.08 54.3585 82.2933 55.2652 80.64C56.2252 78.9867 57.5052 77.44 59.1052 76C60.7585 74.5067 62.8385 73.0667 65.3452 71.68C67.5318 70.5067 69.4518 69.4933 71.1052 68.64C72.7585 67.7333 74.1452 66.9067 75.2652 66.16C76.4385 65.4133 77.3185 64.6667 77.9052 63.92C78.4918 63.12 78.7852 62.2133 78.7852 61.2C78.7852 60.1333 78.4918 59.1733 77.9052 58.32C77.3185 57.4133 76.4918 56.6933 75.4252 56.16C74.3585 55.6267 73.0252 55.36 71.4252 55.36C70.1452 55.36 68.9452 55.52 67.8252 55.84C66.7585 56.16 65.7452 56.6133 64.7852 57.2C63.8785 57.7867 63.0252 58.4533 62.2252 59.2C61.7363 59.6237 61.2774 60.0672 60.8483 60.5307C60.4239 60.989 59.6879 61.0051 59.2787 60.5332L53.8755 54.3037C53.5316 53.9072 53.5514 53.3107 53.945 52.9636C54.5802 52.4035 55.3402 51.8156 56.2252 51.2C57.5052 50.2933 58.9985 49.4667 60.7052 48.72C62.4652 47.92 64.3852 47.28 66.4652 46.8C68.5985 46.2667 70.8652 46 73.2652 46C76.8918 46 79.9852 46.5867 82.5452 47.76C85.1052 48.88 87.0518 50.4533 88.3852 52.48C89.7718 54.5067 90.4652 56.88 90.4652 59.6C90.4652 61.4667 90.1185 63.12 89.4252 64.56C88.7318 66 87.8518 67.28 86.7852 68.4C85.7185 69.4667 84.5452 70.4267 83.2652 71.28C82.0385 72.1333 80.8385 72.88 79.6652 73.52C78.0118 74.3733 76.5185 75.1733 75.1852 75.92C73.8518 76.6133 72.6785 77.3333 71.6652 78.08C70.6518 78.7733 69.7452 79.4933 68.9452 80.24C68.6015 80.5837 68.2748 80.9499 67.965 81.3388C67.4784 81.9496 67.9473 82.8 68.7282 82.8H90.3452C90.8974 82.8 91.3452 83.2477 91.3452 83.8V91.48C91.3452 92.0323 90.8974 92.48 90.3452 92.48H53.7852Z" fill="#E4E4E4"/>
</g>
<path d="M54.8328 80.3889L54.8326 80.3889L54.8268 80.3996C53.8943 82.0999 53.2372 83.9357 52.8543 85.9046C52.5273 87.5865 52.3421 89.4418 52.2964 91.4686C52.2775 92.3087 52.9598 92.98 53.7852 92.98H90.3452C91.1736 92.98 91.8452 92.3084 91.8452 91.48V83.8C91.8452 82.9716 91.1736 82.3 90.3452 82.3H68.7282C68.5284 82.3 68.3825 82.1946 68.3125 82.0633C68.2456 81.9377 68.2456 81.789 68.3561 81.6503C68.6526 81.2781 68.9648 80.9279 69.2927 80.5996C70.0707 79.8741 70.9552 79.1716 71.9475 78.4927L71.9547 78.4877L71.9618 78.4825C72.9507 77.7539 74.1012 77.0472 75.4158 76.3636L75.4227 76.36L75.4295 76.3563C76.7569 75.6129 78.2451 74.8156 79.8945 73.9643L79.8945 73.9644L79.9046 73.9589C81.0942 73.3101 82.3082 72.5546 83.5466 71.6933C84.8519 70.8227 86.0494 69.8428 87.1387 68.7536L87.1388 68.7537L87.1472 68.7448C88.251 67.5858 89.1605 66.2623 89.8757 64.7769C90.6066 63.2588 90.9652 61.5292 90.9652 59.6C90.9652 56.7922 90.2483 54.3193 88.8004 52.2014C87.4069 50.0851 85.3809 48.4556 82.7496 47.3037C80.109 46.0943 76.942 45.5 73.2652 45.5C70.8296 45.5 68.5234 45.7705 66.3483 46.3138C64.2421 46.8001 62.2926 47.4495 60.5015 48.2633C58.7714 49.0205 57.249 49.8622 55.9379 50.7908C55.042 51.4141 54.2667 52.0133 53.6143 52.5886C53.0004 53.13 52.9869 54.0423 53.4978 54.6313L58.901 60.8609C59.521 61.5758 60.6052 61.5292 61.2152 60.8704C61.6315 60.4207 62.0773 59.9898 62.5526 59.5778L62.5596 59.5718L62.5663 59.5655C63.3435 58.8402 64.1718 58.1929 65.0514 57.6233C65.9725 57.061 66.9437 56.6267 67.9657 56.3199C69.0359 56.0144 70.1883 55.86 71.4252 55.86C72.9728 55.86 74.2239 56.1184 75.2015 56.6072C76.1969 57.1049 76.9522 57.7676 77.4854 58.5916L77.4852 58.5917L77.4931 58.6033C78.0207 59.3706 78.2852 60.2312 78.2852 61.2C78.2852 62.1066 78.0259 62.907 77.5069 63.6176C76.9671 64.3024 76.1388 65.0114 74.9967 65.7382L74.9967 65.7381L74.9878 65.744C73.8847 66.4794 72.5131 67.2975 70.8702 68.1986C69.2152 69.0529 67.2946 70.0665 65.1087 71.2394L65.1087 71.2394L65.1031 71.2425C62.5721 72.6426 60.4586 74.1038 58.7702 75.6288C57.1365 77.0992 55.8219 78.6854 54.8328 80.3889Z" stroke="white"/>
</g>
<defs>
<filter id="filter0_d_6196_106454" x="0.232784" y="0.0842352" width="143.062" height="156.534" filterUnits="userSpaceOnUse" color-interpolation-filters="sRGB">
<feFlood flood-opacity="0" result="BackgroundImageFix"/>
<feColorMatrix in="SourceAlpha" type="matrix" values="0 0 0 0 0 0 0 0 0 0 0 0 0 0 0 0 0 0 127 0" result="hardAlpha"/>
<feOffset dy="4.85145"/>
<feGaussianBlur stdDeviation="7.88361"/>
<feComposite in2="hardAlpha" operator="out"/>
<feColorMatrix type="matrix" values="0 0 0 0 0.051416 0 0 0 0 0.051416 0 0 0 0 0.051416 0 0 0 0.32 0"/>
<feBlend mode="normal" in2="BackgroundImageFix" result="effect1_dropShadow_6196_106454"/>
<feBlend mode="normal" in="SourceGraphic" in2="effect1_dropShadow_6196_106454" result="shape"/>
</filter>
<filter id="filter1_i_6196_106454" x="51.7969" y="45" width="40.5469" height="52.4805" filterUnits="userSpaceOnUse" color-interpolation-filters="sRGB">
<feFlood flood-opacity="0" result="BackgroundImageFix"/>
<feBlend mode="normal" in="SourceGraphic" in2="BackgroundImageFix" result="shape"/>
<feColorMatrix in="SourceAlpha" type="matrix" values="0 0 0 0 0 0 0 0 0 0 0 0 0 0 0 0 0 0 127 0" result="hardAlpha"/>
<feOffset dy="4"/>
<feGaussianBlur stdDeviation="5"/>
<feComposite in2="hardAlpha" operator="arithmetic" k2="-1" k3="1"/>
<feColorMatrix type="matrix" values="0 0 0 0 0 0 0 0 0 0 0 0 0 0 0 0 0 0 0.25 0"/>
<feBlend mode="normal" in2="shape" result="effect1_innerShadow_6196_106454"/>
</filter>
<radialGradient id="paint0_angular_6196_106454" cx="0" cy="0" r="1" gradientUnits="userSpaceOnUse" gradientTransform="translate(71.7633 73.5) rotate(90) scale(62.5 55.7633)">
<stop stop-color="#11AF49"/>
<stop offset="0.54" stop-color="#21ED6A"/>
<stop offset="1" stop-color="#008D32"/>
</radialGradient>
<linearGradient id="paint1_linear_6196_106454" x1="71.7352" y1="17.1074" x2="71.7352" y2="129.599" gradientUnits="userSpaceOnUse">
<stop stop-color="#00CC25"/>
<stop offset="0.0001" stop-color="#57F936"/>
<stop offset="1" stop-color="#009B07"/>
</linearGradient>
<linearGradient id="paint2_linear_6196_106454" x1="71.7352" y1="17.1074" x2="71.7352" y2="129.599" gradientUnits="userSpaceOnUse">
<stop stop-color="#99FFA3"/>
<stop offset="1" stop-color="#68EE76"/>
</linearGradient>
</defs>
</svg>
