<svg width="36" height="36" viewBox="0 0 36 36" fill="none" xmlns="http://www.w3.org/2000/svg">
<path d="M18.9254 8.24483C18.8479 8.16722 18.756 8.10565 18.6547 8.06364C18.5535 8.02163 18.445 8 18.3353 8C18.2257 8 18.1172 8.02163 18.0159 8.06364C17.9147 8.10565 17.8227 8.16722 17.7453 8.24483C15.6736 10.3133 13.3835 11.3333 10.8334 11.3333C10.6123 11.3333 10.4004 11.4211 10.2441 11.5774C10.0878 11.7337 10 11.9456 10 12.1667V17.1685C10 22.5337 12.7351 26.1806 18.0703 27.9573C18.2413 28.0142 18.4261 28.0142 18.597 27.9573C23.9306 26.1806 26.6673 22.5337 26.6673 17.1685V12.1667C26.6673 11.9456 26.5795 11.7337 26.4233 11.5774C26.267 11.4211 26.055 11.3333 25.834 11.3333C23.2822 11.3333 20.9921 10.3166 18.9254 8.24483ZM23.0905 14.9118C23.2468 15.068 23.3345 15.28 23.3345 15.501C23.3345 15.7219 23.2468 15.9339 23.0905 16.0902L18.0903 21.0904C18.0129 21.168 17.921 21.2295 17.8197 21.2715C17.7185 21.3136 17.6099 21.3352 17.5003 21.3352C17.3907 21.3352 17.2821 21.3136 17.1809 21.2715C17.0797 21.2295 16.9877 21.168 16.9103 21.0904L14.4102 18.5903C14.2537 18.4338 14.1658 18.2215 14.1658 18.0002C14.1658 17.7789 14.2537 17.5667 14.4102 17.4102C14.5667 17.2537 14.7789 17.1658 15.0002 17.1658C15.2215 17.1658 15.4337 17.2537 15.5902 17.4102L17.5003 19.3219L21.9105 14.9118C21.9879 14.8342 22.0799 14.7726 22.1811 14.7306C22.2824 14.6886 22.3909 14.6669 22.5005 14.6669C22.6101 14.6669 22.7187 14.6886 22.8199 14.7306C22.9212 14.7726 23.0131 14.8342 23.0905 14.9118Z" fill="#F89295"/>
</svg>
