<svg width="36" height="36" viewBox="0 0 36 36" fill="none" xmlns="http://www.w3.org/2000/svg">
<path d="M8.60949 12.8573H26.1681L26.2426 12.8595C26.9073 12.8844 27.5365 13.166 27.998 13.645C28.4595 14.124 28.7174 14.7632 28.7176 15.4283V25.7141C28.7176 26.396 28.4467 27.0501 27.9645 27.5323C27.4822 28.0146 26.8282 28.2855 26.1462 28.2855H9.86049C9.17851 28.2855 8.52445 28.0146 8.04222 27.5323C7.55998 27.0501 7.28906 26.396 7.28906 25.7141V15.4283L7.29035 15.3405L7.29463 15.2633C7.26493 14.7791 7.37258 14.2963 7.6052 13.8706C7.83782 13.4449 8.18594 13.0939 8.60949 12.8573ZM21.8605 18.8569C21.4058 18.8569 20.9698 19.0375 20.6483 19.359C20.3268 19.6805 20.1462 20.1165 20.1462 20.5712C20.1462 21.0259 20.3268 21.4619 20.6483 21.7834C20.9698 22.1049 21.4058 22.2855 21.8605 22.2855C22.3151 22.2855 22.7512 22.1049 23.0727 21.7834C23.3942 21.4619 23.5748 21.0259 23.5748 20.5712C23.5748 20.1165 23.3942 19.6805 23.0727 19.359C22.7512 19.0375 22.3151 18.8569 21.8605 18.8569ZM26.0806 9.62121C26.1388 9.83786 26.1683 10.0612 26.1685 10.2855L26.1681 11.5712H12.1851L22.9315 7.80192C23.5902 7.62548 24.2921 7.71793 24.8827 8.05895C25.4732 8.39997 25.9042 8.96162 26.0806 9.62035" fill="#F89295"/>
</svg>
